<svg width="291" height="291" viewBox="0 0 291 291" fill="none" xmlns="http://www.w3.org/2000/svg">
<path d="M145.499 145.651C68.7701 339.454 222.229 339.454 145.499 145.651V145.651Z" fill="#F0BBDD"/>
<path d="M145.35 145.651C-45.9134 228.357 62.6434 336.914 145.35 145.651V145.651Z" fill="#F0BBDD"/>
<path d="M145.352 145.501C-48.4508 68.7716 -48.4508 222.23 145.352 145.501V145.501Z" fill="#F0BBDD"/>
<path d="M145.648 145.651C228.355 336.914 336.912 228.357 145.648 145.651V145.651Z" fill="#F0BBDD"/>
<path d="M145.654 145.501C147.746 144.604 149.913 143.633 152.154 142.737C149.988 143.633 147.821 144.53 145.654 145.352C146.476 143.185 147.373 141.018 148.269 138.852C147.373 141.018 146.476 143.185 145.505 145.352C144.608 143.26 143.637 141.093 142.74 138.852C143.637 141.018 144.534 143.185 145.355 145.352C143.189 144.53 141.022 143.633 138.855 142.737C141.022 143.633 143.189 144.53 145.355 145.501C143.263 146.397 141.097 147.369 138.855 148.265C141.022 147.369 143.189 146.472 145.355 145.65C144.534 147.817 143.637 149.984 142.74 152.15C143.637 149.984 144.534 147.817 145.505 145.65C146.401 147.742 147.373 149.909 148.269 152.15C147.373 149.984 146.476 147.817 145.654 145.65C147.821 146.472 149.988 147.369 152.154 148.265C149.913 147.369 147.821 146.397 145.654 145.501Z" fill="#F0BBDD"/>
<path d="M145.648 145.501C339.452 68.7716 339.452 222.23 145.648 145.501V145.501Z" fill="#F0BBDD"/>
<path d="M145.648 145.354C228.355 -45.9095 336.912 62.6473 145.648 145.354V145.354Z" fill="#F0BBDD"/>
<path d="M145.35 145.354C-45.9134 62.6473 62.6434 -45.9095 145.35 145.354V145.354Z" fill="#F0BBDD"/>
<path d="M145.499 145.352C68.7701 -48.4508 222.229 -48.4508 145.499 145.352V145.352Z" fill="#F0BBDD"/>
</svg>
