<svg width="377" height="377" viewBox="0 0 377 377" fill="none" xmlns="http://www.w3.org/2000/svg">
<path d="M361.301 264.7C362.301 262.7 362.301 261.7 362.301 259.7C361.301 254.7 355.301 254.7 352.301 255.7C307.301 270.7 257.301 266.7 221.301 234.7C220.301 232.7 218.301 231.7 216.301 229.7C214.301 226.7 211.301 224.7 210.301 221.7C235.301 243.7 268.301 249.7 300.301 244.7C321.301 241.7 339.301 233.7 357.301 222.7C367.301 216.7 374.301 207.7 376.301 195.7C376.301 191.7 377.301 185.7 372.301 184.7C370.301 184.7 368.301 184.7 367.301 185.7C329.301 217.7 277.301 235.7 230.301 214.7C248.301 219.7 268.301 216.7 286.301 211.7C292.301 209.7 297.301 207.7 303.301 204.7C308.301 201.7 313.301 198.7 318.301 195.7C320.301 193.7 322.301 192.7 325.301 190.7C340.301 178.7 352.301 166.7 360.301 150.7C365.301 141.7 367.301 130.7 364.301 120.7C363.301 117.7 360.301 116.7 358.301 115.7C356.301 115.7 354.301 116.7 353.301 117.7C348.301 123.7 346.301 129.7 342.301 136.7C340.301 138.7 339.301 140.7 337.301 142.7C336.301 143.7 337.301 144.7 336.301 145.7C310.301 180.7 269.301 203.7 226.301 197.7C266.301 194.7 299.301 167.7 317.301 132.7C328.301 108.7 345.301 74.7003 319.301 55.7003C315.301 52.7003 311.301 58.7003 311.301 62.7003C308.301 110.7 282.301 161.7 235.301 178.7C245.301 171.7 254.301 163.7 262.301 153.7C263.301 151.7 265.301 148.7 267.301 146.7C287.301 112.7 292.301 72.7003 281.301 36.7003C275.301 28.7003 270.301 15.7003 258.301 16.7003C253.301 17.7003 253.301 23.7003 254.301 26.7003C271.301 74.7003 263.301 132.7 223.301 166.7C259.301 121.7 250.301 54.7003 214.301 11.7003C208.301 4.70034 199.301 2.70034 190.301 0.700339C185.301 -0.299661 182.301 3.70034 183.301 7.70034C187.301 18.7003 198.301 26.7003 203.301 37.7003C204.301 39.7003 206.301 40.7003 207.301 42.7003C225.301 76.7003 230.301 117.7 213.301 152.7C222.301 113.7 208.301 72.7003 180.301 42.7003C179.301 41.7003 178.301 41.7003 177.301 40.7003C168.301 30.7003 157.301 20.7003 144.301 16.7003C134.301 12.7003 119.301 8.70034 115.301 20.7003C114.301 22.7003 117.301 25.7003 119.301 27.7003C139.301 37.7003 155.301 49.7003 170.301 66.7003C172.301 68.7003 173.301 71.7003 175.301 73.7003C184.301 88.7003 192.301 101.7 195.301 118.7C195.301 119.7 195.301 121.7 195.301 122.7C198.301 129.7 197.301 137.7 197.301 144.7C191.301 113.7 173.301 86.7003 146.301 68.7003C134.301 60.7003 122.301 54.7003 109.301 51.7003C99.3008 48.7003 91.3008 44.7003 81.3008 45.7003C71.3008 47.7003 59.3008 48.7003 54.3008 58.7003C53.3008 62.7003 59.3008 65.7003 62.3008 66.7003C111.301 69.7003 163.301 95.7003 179.301 144.7C180.301 146.7 182.301 148.7 182.301 150.7C155.301 102.7 98.3008 83.7003 44.3008 94.7003C41.3008 95.7003 38.3008 96.7003 35.3008 97.7003C27.3008 102.7 18.3008 107.7 15.3008 117.7C13.3008 124.7 21.3008 125.7 26.3008 124.7C71.3008 108.7 127.301 114.7 161.301 150.7C128.301 127.7 84.3008 127.7 47.3008 141.7C27.3008 149.7 3.30078 161.7 0.300781 185.7C0.300781 191.7 5.30079 195.7 10.3008 192.7C26.3008 181.7 40.3008 169.7 58.3008 163.7C59.3008 163.7 60.3008 161.7 61.3008 161.7C93.3008 149.7 128.301 151.7 158.301 167.7C135.301 159.7 111.301 161.7 88.3008 169.7C60.3008 179.7 37.3008 197.7 20.3008 223.7C13.3008 235.7 9.30079 248.7 15.3008 261.7C18.3008 267.7 23.3008 263.7 26.3008 259.7C31.3008 252.7 35.3008 245.7 39.3008 237.7C43.3008 231.7 47.3008 226.7 52.3008 221.7C56.3008 218.7 59.3008 213.7 63.3008 210.7C76.3008 201.7 88.3008 192.7 103.301 187.7C116.301 183.7 129.301 180.7 142.301 181.7C115.301 186.7 92.3008 201.7 74.3008 223.7C59.3008 242.7 49.3008 262.7 45.3008 285.7C43.3008 297.7 45.3008 309.7 53.3008 319.7C55.3008 321.7 58.3008 322.7 61.3008 321.7C65.3008 319.7 65.3008 313.7 66.3008 309.7C70.3008 260.7 100.301 209.7 150.301 196.7C138.301 203.7 127.301 211.7 118.301 222.7C117.301 224.7 115.301 227.7 113.301 229.7C92.3008 260.7 86.3008 295.7 93.3008 332.7C96.3008 345.7 104.301 362.7 119.301 362.7C124.301 363.7 124.301 356.7 123.301 352.7C107.301 305.7 114.301 248.7 152.301 215.7C134.301 238.7 129.301 267.7 132.301 295.7C133.301 305.7 135.301 314.7 138.301 323.7C144.301 338.7 150.301 353.7 161.301 365.7C169.301 372.7 180.301 380.7 190.301 374.7C196.301 370.7 188.301 363.7 184.301 358.7C184.301 357.7 184.301 357.7 182.301 355.7C173.301 343.7 166.301 331.7 162.301 317.7C162.301 316.7 160.301 315.7 160.301 314.7C151.301 285.7 151.301 253.7 165.301 225.7C151.301 276.7 179.301 327.7 222.301 358.7C223.301 358.7 223.301 358.7 224.301 358.7C235.301 366.7 249.301 370.7 261.301 362.7C265.301 360.7 262.301 354.7 258.301 351.7C229.301 336.7 204.301 314.7 190.301 284.7C189.301 282.7 188.301 279.7 187.301 277.7C182.301 261.7 178.301 245.7 181.301 229.7C184.301 255.7 197.301 279.7 216.301 297.7C239.301 317.7 268.301 334.7 299.301 332.7C308.301 331.7 323.301 328.7 321.301 317.7C321.301 313.7 314.301 312.7 310.301 311.7C265.301 308.7 222.301 283.7 202.301 242.7C201.301 240.7 201.301 237.7 199.301 235.7C227.301 277.7 280.301 295.7 331.301 285.7C343.301 282.7 355.301 276.7 361.301 264.7Z" fill="#7163DE"/>
</svg>
