<svg width="916" height="916" viewBox="0 0 916 916" fill="none" xmlns="http://www.w3.org/2000/svg">
<path d="M457.876 68.7621L548.955 0L606.779 98.3024L717.463 69.755L733.098 182.704L846.264 198.591L817.476 309.057L916 366.896L847.008 458L916 549.104L817.476 606.943L846.264 717.409L733.098 733.297L717.463 846.245L606.779 817.698L548.955 916L457.876 847.238L366.797 916L308.973 817.698L198.537 846.245L182.654 733.297L69.7361 717.409L98.524 606.943L0 549.104L68.7434 458L0 366.896L98.524 309.057L69.7361 198.591L182.654 182.704L198.537 69.755L308.973 98.3024L366.797 0L457.876 68.7621Z" fill="#FCE4E4"/>
</svg>
