<svg width="47" height="44" viewBox="0 0 47 44" fill="none" xmlns="http://www.w3.org/2000/svg">
<path d="M17.86 7.33333C17.86 6.11776 18.3552 4.95197 19.2366 4.09243C20.118 3.23289 21.3135 2.75 22.56 2.75C23.8065 2.75 25.002 3.23289 25.8834 4.09243C26.7648 4.95197 27.26 6.11776 27.26 7.33333C27.26 8.54891 26.7648 9.7147 25.8834 10.5742C25.002 11.4338 23.8065 11.9167 22.56 11.9167C21.3135 11.9167 20.118 11.4338 19.2366 10.5742C18.3552 9.7147 17.86 8.54891 17.86 7.33333ZM22.56 0C20.5656 0 18.6528 0.772617 17.2426 2.14788C15.8323 3.52315 15.04 5.38841 15.04 7.33333C15.04 9.27825 15.8323 11.1435 17.2426 12.5188C18.6528 13.8941 20.5656 14.6667 22.56 14.6667C24.5544 14.6667 26.4672 13.8941 27.8774 12.5188C29.2877 11.1435 30.08 9.27825 30.08 7.33333C30.08 5.38841 29.2877 3.52315 27.8774 2.14788C26.4672 0.772617 24.5544 0 22.56 0ZM6.58 8.25C5.58279 8.25 4.62642 8.63631 3.92128 9.32394C3.21614 10.0116 2.82 10.9442 2.82 11.9167C2.82 12.8891 3.21614 13.8218 3.92128 14.5094C4.62642 15.197 5.58279 15.5833 6.58 15.5833C7.57721 15.5833 8.53358 15.197 9.23872 14.5094C9.94386 13.8218 10.34 12.8891 10.34 11.9167C10.34 10.9442 9.94386 10.0116 9.23872 9.32394C8.53358 8.63631 7.57721 8.25 6.58 8.25ZM0 11.9167C-1.28761e-08 11.074 0.170197 10.2396 0.500873 9.46112C0.831548 8.68261 1.31623 7.97524 1.92724 7.3794C2.53825 6.78356 3.26362 6.31091 4.06194 5.98844C4.86027 5.66597 5.7159 5.5 6.58 5.5C7.4441 5.5 8.29974 5.66597 9.09806 5.98844C9.89638 6.31091 10.6218 6.78356 11.2328 7.3794C11.8438 7.97524 12.3285 8.68261 12.6591 9.46112C12.9898 10.2396 13.16 11.074 13.16 11.9167C13.16 13.6185 12.4668 15.2506 11.2328 16.4539C9.99877 17.6573 8.32512 18.3333 6.58 18.3333C4.83488 18.3333 3.16123 17.6573 1.92724 16.4539C0.693248 15.2506 2.60044e-08 13.6185 0 11.9167ZM38.54 8.25C37.5428 8.25 36.5864 8.63631 35.8813 9.32394C35.1761 10.0116 34.78 10.9442 34.78 11.9167C34.78 12.8891 35.1761 13.8218 35.8813 14.5094C36.5864 15.197 37.5428 15.5833 38.54 15.5833C39.5372 15.5833 40.4936 15.197 41.1987 14.5094C41.9039 13.8218 42.3 12.8891 42.3 11.9167C42.3 10.9442 41.9039 10.0116 41.1987 9.32394C40.4936 8.63631 39.5372 8.25 38.54 8.25ZM31.96 11.9167C31.96 10.2149 32.6532 8.58276 33.8872 7.3794C35.1212 6.17604 36.7949 5.5 38.54 5.5C40.2851 5.5 41.9588 6.17604 43.1928 7.3794C44.4268 8.58276 45.12 10.2149 45.12 11.9167C45.12 13.6185 44.4268 15.2506 43.1928 16.4539C41.9588 17.6573 40.2851 18.3333 38.54 18.3333C36.7949 18.3333 35.1212 17.6573 33.8872 16.4539C32.6532 15.2506 31.96 13.6185 31.96 11.9167ZM13.16 21.5417C13.16 19.7707 14.6339 18.3333 16.45 18.3333H28.67C29.3938 18.3333 30.0612 18.5607 30.6045 18.9457C29.0606 19.4133 27.6107 20.1364 26.3181 21.0833H16.45C16.3253 21.0833 16.2058 21.1316 16.1177 21.2176C16.0295 21.3035 15.98 21.4201 15.98 21.5417V31.1667C15.9794 32.7467 16.5766 34.2713 17.6572 35.4485C18.7378 36.6258 20.2258 37.3729 21.8362 37.5467C22.2724 38.5257 22.8213 39.446 23.4662 40.2912C23.1679 40.3193 22.8658 40.3333 22.56 40.3333C20.067 40.3333 17.676 39.3676 15.9132 37.6485C14.1504 35.9294 13.16 33.5978 13.16 31.1667V21.5417ZM11.28 21.5453L2.43836 23.8553C2.02096 23.9645 1.6297 24.1527 1.28692 24.4093C0.944146 24.6659 0.656565 24.9859 0.440607 25.3509C0.224649 25.7159 0.0845465 26.1188 0.0283006 26.5366C-0.0279453 26.9545 0.000767687 27.379 0.1128 27.786L1.69388 33.5408C2.05551 34.8581 2.71396 36.0801 3.62125 37.1177C4.52853 38.1554 5.66179 38.9826 6.93844 39.539C8.21509 40.0955 9.60296 40.3671 11.0009 40.3342C12.3989 40.3013 13.7717 39.9647 15.0193 39.3488C14.2865 38.7068 13.6431 37.974 13.1055 37.169C12.9012 37.2448 12.6919 37.3108 12.4776 37.367C11.6428 37.5852 10.7722 37.6409 9.91542 37.531C9.05862 37.421 8.23242 37.1475 7.484 36.7262C6.73558 36.3048 6.07961 35.7438 5.55354 35.0752C5.02747 34.4066 4.64161 33.6435 4.418 32.8295L2.83692 27.0728C2.80478 26.9554 2.82178 26.8303 2.88418 26.7251C2.94658 26.6199 3.04928 26.5432 3.16968 26.5118L11.28 24.3925V21.5453ZM47 32.0833C47 35.2438 45.7125 38.2749 43.4208 40.5097C41.1292 42.7445 38.0209 44 34.78 44C31.5391 44 28.4308 42.7445 26.1392 40.5097C23.8475 38.2749 22.56 35.2438 22.56 32.0833C22.56 28.9228 23.8475 25.8918 26.1392 23.657C28.4308 21.4222 31.5391 20.1667 34.78 20.1667C38.0209 20.1667 41.1292 21.4222 43.4208 23.657C45.7125 25.8918 47 28.9228 47 32.0833ZM35.72 24.75C35.72 24.5069 35.621 24.2737 35.4447 24.1018C35.2684 23.9299 35.0293 23.8333 34.78 23.8333C34.5307 23.8333 34.2916 23.9299 34.1153 24.1018C33.939 24.2737 33.84 24.5069 33.84 24.75V31.1667H27.26C27.0107 31.1667 26.7716 31.2632 26.5953 31.4352C26.419 31.6071 26.32 31.8402 26.32 32.0833C26.32 32.3265 26.419 32.5596 26.5953 32.7315C26.7716 32.9034 27.0107 33 27.26 33H33.84V39.4167C33.84 39.6598 33.939 39.8929 34.1153 40.0648C34.2916 40.2368 34.5307 40.3333 34.78 40.3333C35.0293 40.3333 35.2684 40.2368 35.4447 40.0648C35.621 39.8929 35.72 39.6598 35.72 39.4167V33H42.3C42.5493 33 42.7884 32.9034 42.9647 32.7315C43.141 32.5596 43.24 32.3265 43.24 32.0833C43.24 31.8402 43.141 31.6071 42.9647 31.4352C42.7884 31.2632 42.5493 31.1667 42.3 31.1667H35.72V24.75Z" fill="#7B6DDB"/>
</svg>
