<svg width="173" height="173" viewBox="0 0 173 173" fill="none" xmlns="http://www.w3.org/2000/svg">
<path d="M156.813 108.667C145.366 105.618 134.687 100.115 126.559 91.6357C140.476 78.2011 152.062 61.879 154.472 42.1421C156.231 31.3685 152.954 21.1741 146.116 12.0207C139.952 4.15705 131.237 -0.730896 121.505 1.07251C116.807 2.29668 112.476 5.7928 111.091 10.2122C105.954 23.1627 101.799 36.4209 91.7222 46.2055C78.1337 32.7796 61.9655 20.7024 42.2286 18.2922C23.1366 15.5448 1.05519 27.4994 0.455277 48.3429C0.301396 48.8339 1.28349 49.1417 1.1296 49.6327C0.939433 57.1229 8.33451 61.0581 14.4103 64.0407C26.811 65.7697 36.8739 73.2373 46.292 81.0422C34.7715 91.9922 25.7356 105.339 20.137 119.762C17.03 127.956 16.3782 136.919 18.9804 145.824C19.6547 147.114 19.838 148.25 20.3585 150.031C24.9543 161.178 33.9401 172.083 46.9562 171.847C47.4472 172.001 47.9383 172.155 48.4293 172.309C54.7541 171.056 60.7124 167.53 62.7128 161.146C66.7138 148.379 71.6968 135.92 81.1286 126.472C85.453 131.602 90.5761 135.904 95.8531 139.715C97.6634 140.822 99.1365 141.283 100.793 142.881C101.621 143.68 102.603 143.987 103.585 144.295C104.414 145.094 104.905 145.248 105.733 146.047C117.577 152.994 130.19 157.486 143.638 154.151C156.442 151.152 168.175 142.965 171.685 130.044C174.272 120.069 166.605 110.117 156.813 108.667Z" fill="#B0A7F7"/>
</svg>
