<svg width="94" height="94" viewBox="0 0 94 94" fill="none" xmlns="http://www.w3.org/2000/svg">
<path d="M50.5799 86.848C49.0637 86.1742 47.5709 85.4489 46.1042 84.6734C38.7972 80.543 32.0868 75.4367 26.1581 69.4951C18.4623 62.2512 12.1414 53.674 7.50118 44.1783C5.01892 39.0754 3.34175 33.6189 2.52925 28.0027C1.4275 22.3303 2.05458 16.4578 4.32927 11.1459C5.73522 8.85945 7.42821 6.76756 9.36444 4.92378C10.1501 4.04246 11.1059 3.32913 12.1744 2.82668C13.2428 2.32423 14.4019 2.04303 15.5818 2C18.0386 2.36973 20.2618 3.65405 21.7991 5.60973C25.1559 9.34107 28.7559 12.6978 32.3025 16.2443C33.6987 17.4411 34.5695 19.1389 34.7252 20.9729C34.6668 22.5151 34.0733 23.9892 33.0468 25.1421C31.8695 26.6356 30.4392 28.0027 29.0722 29.4329C28.248 30.2297 27.6176 31.205 27.2296 32.2838C26.8417 33.3625 26.7064 34.5159 26.8343 35.6551C27.6925 38.3188 29.16 40.7458 31.1203 42.7432C33.4846 45.9783 35.8441 48.9702 38.5149 52.1372C43.3188 57.6854 49.0122 62.3956 55.3621 66.0751C56.2404 66.7371 57.2783 67.1548 58.3704 67.2855C59.4625 67.4163 60.5697 67.2554 61.5795 66.8194C63.6933 65.6425 65.5692 64.0818 67.1108 62.2172C68.4487 60.5875 70.3655 59.5415 72.4574 59.2934C74.3206 59.3907 76.0769 60.1886 77.3709 61.5313C79.0445 62.9615 80.4747 64.6448 82.0315 66.1967C83.5834 67.7534 84.8288 68.8724 86.1326 70.3026C87.6959 71.681 89.1667 73.1534 90.5451 74.7199C91.6154 76.1015 92.1213 77.8334 91.9754 79.5702C91.4207 81.649 90.2238 83.4997 88.5553 84.8583C86.2095 87.2994 83.359 89.1989 80.2029 90.424C77.0468 91.6492 73.6612 92.1704 70.2828 91.9512C63.4433 91.5632 56.7477 89.829 50.5799 86.848Z" stroke="#C9549D" stroke-width="4" stroke-miterlimit="10" stroke-linecap="round"/>
</svg>
