<svg width="56" height="57" viewBox="0 0 56 57" fill="none" xmlns="http://www.w3.org/2000/svg">
<path d="M28.0009 47.54C17.4729 47.54 8.96094 39.028 8.96094 28.5C8.96094 17.972 17.4729 9.46002 28.0009 9.46002C38.5289 9.46002 47.0409 17.972 47.0409 28.5C47.0409 39.028 38.5289 47.54 28.0009 47.54ZM28.0009 11.7C18.7049 11.7 11.2009 19.204 11.2009 28.5C11.2009 37.796 18.7049 45.3 28.0009 45.3C37.2969 45.3 44.8009 37.796 44.8009 28.5C44.8009 19.204 37.2969 11.7 28.0009 11.7Z" fill="#C9549D"/>
<path d="M28.3367 39.364L17.4727 28.5L28.3367 17.636L29.9047 19.204L20.6087 28.5L29.9047 37.796L28.3367 39.364Z" fill="#C9549D"/>
<path d="M19.0391 27.38H38.0791V29.62H19.0391V27.38Z" fill="#C9549D"/>
</svg>
