<svg width="56" height="57" viewBox="0 0 56 57" fill="none" xmlns="http://www.w3.org/2000/svg">
<path d="M27.9991 47.54C38.5271 47.54 47.0391 39.028 47.0391 28.5C47.0391 17.972 38.5271 9.46002 27.9991 9.46002C17.4711 9.46002 8.95906 17.972 8.95906 28.5C8.95906 39.028 17.4711 47.54 27.9991 47.54ZM27.9991 11.7C37.2951 11.7 44.7991 19.204 44.7991 28.5C44.7991 37.796 37.2951 45.3 27.9991 45.3C18.7031 45.3 11.1991 37.796 11.1991 28.5C11.1991 19.204 18.7031 11.7 27.9991 11.7Z" fill="#C9549D"/>
<path d="M27.6633 39.364L38.5273 28.5L27.6633 17.636L26.0953 19.204L35.3913 28.5L26.0953 37.796L27.6633 39.364Z" fill="#C9549D"/>
<path d="M36.9609 27.38H17.9209V29.62H36.9609V27.38Z" fill="#C9549D"/>
</svg>
