<svg width="1342" height="1342" viewBox="0 0 1342 1342" fill="none" xmlns="http://www.w3.org/2000/svg">
<path d="M717.247 658.552C1550.3 435.127 1314.64 27.0793 704.963 637.212C1314.97 27.0793 906.681 -208.308 683.628 624.925C907.005 -208.308 435.682 -208.308 658.736 624.925C435.359 -208.632 27.3968 27.0793 637.077 636.888C27.3968 27.0793 -208.264 435.127 624.793 658.552C-208.264 435.127 -208.264 906.549 624.793 683.448C-208.264 906.873 27.3968 1314.92 637.077 704.789C27.0736 1314.92 435.359 1550.31 658.413 717.075C435.036 1550.31 906.358 1550.31 683.304 717.075C906.681 1550.31 1314.64 1314.6 704.64 704.789C1314.64 1314.92 1549.98 906.549 716.924 683.448C1550.3 906.549 1550.3 435.127 717.247 658.552Z" fill="#F4D6CD"/>
</svg>
