<svg width="50" height="50" viewBox="0 0 50 50" fill="none" xmlns="http://www.w3.org/2000/svg">
<path d="M8.33268 43.7498C7.18685 43.7498 6.20629 43.3422 5.39102 42.5269C4.57574 41.7116 4.1674 40.7304 4.16602 39.5832V16.6665C4.16602 15.5207 4.57435 14.5401 5.39102 13.7248C6.20768 12.9096 7.18824 12.5012 8.33268 12.4998H16.666V8.33317C16.666 7.18734 17.0743 6.20678 17.891 5.3915C18.7077 4.57623 19.6882 4.16789 20.8327 4.1665H29.166C30.3118 4.1665 31.2931 4.57484 32.1098 5.3915C32.9264 6.20817 33.3341 7.18873 33.3327 8.33317V12.4998H41.666C42.8118 12.4998 43.7931 12.9082 44.6098 13.7248C45.4264 14.5415 45.8341 15.5221 45.8327 16.6665V39.5832C45.8327 40.729 45.425 41.7103 44.6098 42.5269C43.7945 43.3436 42.8132 43.7512 41.666 43.7498H8.33268ZM8.33268 39.5832H41.666V16.6665H8.33268V39.5832ZM20.8327 12.4998H29.166V8.33317H20.8327V12.4998Z" fill="#7B6DDB"/>
</svg>
