<svg width="27" height="34" viewBox="0 0 27 34" fill="none" xmlns="http://www.w3.org/2000/svg">
<path d="M2 28.6667V3.66667C2 3.22464 2.17309 2.80072 2.48118 2.48816C2.78928 2.17559 3.20714 2 3.64286 2H23.3571C23.7929 2 24.2107 2.17559 24.5188 2.48816C24.8269 2.80072 25 3.22464 25 3.66667V25.3333H5.28571C4.41429 25.3333 3.57855 25.6845 2.96236 26.3096C2.34617 26.9348 2 27.7826 2 28.6667ZM2 28.6667C2 29.5507 2.34617 30.3986 2.96236 31.0237C3.57855 31.6488 4.41429 32 5.28571 32H25M8.57143 2V25.3333M20.0714 25.3333V32" stroke="#4D7358" stroke-width="4" stroke-linecap="round" stroke-linejoin="round"/>
</svg>
