<svg width="39" height="34" viewBox="0 0 39 34" fill="none" xmlns="http://www.w3.org/2000/svg">
<path d="M19.5 9.50001C20.75 4.56563 25.4711 2.0461 35.75 2.00001C35.9143 1.99939 36.0771 2.0313 36.2291 2.0939C36.381 2.1565 36.5191 2.24855 36.6353 2.36474C36.7515 2.48094 36.8435 2.61899 36.9061 2.77092C36.9687 2.92286 37.0006 3.08568 37 3.25001V25.75C37 26.0815 36.8683 26.3995 36.6339 26.6339C36.3995 26.8683 36.0815 27 35.75 27C25.75 27 21.8867 29.0164 19.5 32M19.5 9.50001C18.25 4.56563 13.5289 2.0461 3.25001 2.00001C3.08568 1.99939 2.92286 2.0313 2.77092 2.0939C2.61899 2.1565 2.48094 2.24855 2.36474 2.36474C2.24855 2.48094 2.1565 2.61899 2.0939 2.77092C2.0313 2.92286 1.99939 3.08568 2.00001 3.25001V25.5992C2.00001 26.3711 2.47813 27 3.25001 27C13.25 27 17.1273 29.0313 19.5 32M19.5 9.50001V32" stroke="#4D7358" stroke-width="3" stroke-linecap="round" stroke-linejoin="round"/>
</svg>
