<svg width="21" height="22" viewBox="0 0 21 22" fill="none" xmlns="http://www.w3.org/2000/svg">
<path fill-rule="evenodd" clip-rule="evenodd" d="M10.5 21.5C11.8789 21.5 13.2443 21.2284 14.5182 20.7007C15.7921 20.1731 16.9496 19.3996 17.9246 18.4246C18.8996 17.4496 19.6731 16.2921 20.2007 15.0182C20.7284 13.7443 21 12.3789 21 11C21 9.62112 20.7284 8.25574 20.2007 6.98182C19.6731 5.70791 18.8996 4.55039 17.9246 3.57538C16.9496 2.60036 15.7921 1.82694 14.5182 1.29926C13.2443 0.77159 11.8789 0.5 10.5 0.5C7.71523 0.5 5.04451 1.60625 3.07538 3.57538C1.10625 5.54451 0 8.21523 0 11C0 13.7848 1.10625 16.4555 3.07538 18.4246C5.04451 20.3938 7.71523 21.5 10.5 21.5ZM10.2293 15.2467L16.0627 8.24667L14.2707 6.75333L9.254 12.7722L6.65817 10.1752L5.0085 11.8248L8.5085 15.3248L9.4115 16.2278L10.2293 15.2467Z" fill="#6B8F71"/>
</svg>
