<svg width="50" height="50" viewBox="0 0 50 50" fill="none" xmlns="http://www.w3.org/2000/svg">
<path fill-rule="evenodd" clip-rule="evenodd" d="M45.3125 25C45.3125 30.3872 43.1724 35.5538 39.3631 39.3631C35.5538 43.1724 30.3872 45.3125 25 45.3125C19.6128 45.3125 14.4462 43.1724 10.6369 39.3631C6.82756 35.5538 4.6875 30.3872 4.6875 25C4.6875 19.6128 6.82756 14.4462 10.6369 10.6369C14.4462 6.82756 19.6128 4.6875 25 4.6875C30.3872 4.6875 35.5538 6.82756 39.3631 10.6369C43.1724 14.4462 45.3125 19.6128 45.3125 25ZM50 25C50 31.6304 47.3661 37.9893 42.6777 42.6777C37.9893 47.3661 31.6304 50 25 50C18.3696 50 12.0107 47.3661 7.32233 42.6777C2.63392 37.9893 0 31.6304 0 25C0 18.3696 2.63392 12.0107 7.32233 7.32233C12.0107 2.63392 18.3696 0 25 0C31.6304 0 37.9893 2.63392 42.6777 7.32233C47.3661 12.0107 50 18.3696 50 25ZM16.4125 14.6875C17.4889 14.0682 18.7671 13.9013 19.9665 14.2236C21.1658 14.5458 22.1883 15.3308 22.8094 16.4062C23.0133 16.7649 23.0671 17.1897 22.959 17.5879C22.8509 17.9861 22.5897 18.3254 22.2323 18.5317C21.875 18.738 21.4506 18.7946 21.0517 18.6891C20.6528 18.5837 20.3118 18.3247 20.1031 17.9688C19.966 17.7318 19.7691 17.535 19.5321 17.3981C19.295 17.2612 19.0262 17.189 18.7525 17.1887C18.4787 17.1884 18.2097 17.26 17.9724 17.3963C17.735 17.5327 17.5376 17.729 17.4 17.9656C17.192 18.3241 16.8501 18.5852 16.4495 18.6916C16.0489 18.798 15.6225 18.7408 15.2641 18.5328C14.9056 18.3248 14.6445 17.9829 14.5381 17.5823C14.4317 17.1817 14.4888 16.7553 14.6969 16.3969C15.11 15.6862 15.6996 15.0967 16.4125 14.6875ZM25 37.5C28.3152 37.5 31.4946 36.183 33.8388 33.8388C36.183 31.4946 37.5 28.3152 37.5 25H12.5C12.5 28.3152 13.817 31.4946 16.1612 33.8388C18.5054 36.183 21.6848 37.5 25 37.5ZM28.9125 14.6875C29.9889 14.0682 31.2671 13.9013 32.4665 14.2236C33.6658 14.5458 34.6883 15.3308 35.3094 16.4062C35.4136 16.584 35.4816 16.7806 35.5095 16.9848C35.5374 17.189 35.5247 17.3966 35.472 17.5959C35.4194 17.7951 35.3278 17.9819 35.2026 18.1456C35.0775 18.3093 34.9212 18.4466 34.7427 18.5496C34.5642 18.6527 34.3672 18.7194 34.1628 18.7459C33.9585 18.7725 33.7509 18.7584 33.552 18.7044C33.3532 18.6504 33.167 18.5576 33.0041 18.4314C32.8412 18.3051 32.705 18.1479 32.6031 17.9688C32.466 17.7318 32.2691 17.535 32.0321 17.3981C31.795 17.2612 31.5262 17.189 31.2525 17.1887C30.9787 17.1884 30.7097 17.26 30.4724 17.3963C30.235 17.5327 30.0376 17.729 29.9 17.9656C29.692 18.3241 29.3501 18.5852 28.9495 18.6916C28.5489 18.798 28.1225 18.7408 27.7641 18.5328C27.4056 18.3248 27.1445 17.9829 27.0381 17.5823C26.9317 17.1817 26.9888 16.7553 27.1969 16.3969C27.61 15.6862 28.2027 15.0967 28.9156 14.6875H28.9125Z" fill="#7B6DDB"/>
</svg>
