<svg width="24" height="25" viewBox="0 0 24 25" fill="none" xmlns="http://www.w3.org/2000/svg">
<path d="M20.3635 13.207C20.5509 13.0195 20.6562 12.7652 20.6562 12.5C20.6562 12.2348 20.5509 11.9805 20.3635 11.793L14.7065 6.13601C14.6142 6.0405 14.5039 5.96431 14.3819 5.91191C14.2599 5.8595 14.1286 5.83191 13.9959 5.83076C13.8631 5.8296 13.7314 5.8549 13.6085 5.90519C13.4856 5.95547 13.374 6.02972 13.2801 6.12361C13.1862 6.21751 13.1119 6.32916 13.0616 6.45205C13.0114 6.57495 12.9861 6.70663 12.9872 6.83941C12.9884 6.97219 13.016 7.10341 13.0684 7.22541C13.1208 7.34742 13.197 7.45776 13.2925 7.55001L17.2425 11.5H3.99946C3.73425 11.5 3.47989 11.6054 3.29236 11.7929C3.10482 11.9804 2.99946 12.2348 2.99946 12.5C2.99946 12.7652 3.10482 13.0196 3.29236 13.2071C3.47989 13.3946 3.73425 13.5 3.99946 13.5H17.2425L13.2925 17.45C13.1103 17.6386 13.0095 17.8912 13.0118 18.1534C13.0141 18.4156 13.1192 18.6664 13.3046 18.8518C13.4901 19.0372 13.7409 19.1424 14.0031 19.1447C14.2653 19.147 14.5179 19.0462 14.7065 18.864L20.3635 13.207Z" fill="#C9549D"/>
</svg>
