<svg width="243" height="243" viewBox="0 0 243 243" fill="none" xmlns="http://www.w3.org/2000/svg">
<path d="M243 121.5L241.318 121.164C214.181 115.781 180.372 112.585 145.385 111.632C169.943 85.6163 191.978 58.9278 207.397 35.6034C184.072 51.0222 157.384 73.057 131.368 97.6149C130.359 61.8433 127.051 27.4174 121.5 0C115.949 27.4174 112.641 61.8433 111.632 97.6149C85.6163 73.057 58.9278 51.0222 35.6034 35.6034C51.0221 58.9278 73.057 85.6163 97.6149 111.632C61.8433 112.641 27.4174 115.949 0 121.5C27.4174 127.051 61.8433 130.359 97.6149 131.368C73.5616 156.823 51.9192 182.951 36.5565 205.939L35.6034 207.397L37.0611 206.443C60.0491 191.025 86.177 169.382 111.632 145.385C112.641 180.372 115.781 214.125 121.164 241.318L121.5 243L121.836 241.318C127.219 214.181 130.415 180.372 131.368 145.385C156.823 169.438 182.951 191.081 205.939 206.443L207.397 207.397L206.443 205.939C191.025 182.951 169.382 156.823 145.385 131.368C180.372 130.359 214.125 127.219 241.318 121.836L243 121.5Z" fill="#4B3B74" fill-opacity="0.55"/>
</svg>
