<svg width="40" height="40" viewBox="0 0 40 40" fill="none" xmlns="http://www.w3.org/2000/svg">
<path fill-rule="evenodd" clip-rule="evenodd" d="M15.625 35.75C13.9677 36.8812 12.0065 37.4835 10 37.4775C4.475 37.4775 0 33.0025 0 27.4775C0 21.9525 4.475 17.4775 10 17.4775C11.8187 17.4758 13.6034 17.9703 15.162 18.9076C16.7205 19.845 17.9938 21.1897 18.8448 22.7971C19.6958 24.4044 20.0922 26.2134 19.9914 28.0293C19.8905 29.8453 19.2962 31.5993 18.2725 33.1025L21.9475 36.7775C22.1215 36.9515 22.2595 37.1581 22.3537 37.3854C22.4479 37.6127 22.4963 37.8564 22.4963 38.1025C22.4963 38.3486 22.4479 38.5922 22.3537 38.8196C22.2595 39.0469 22.1215 39.2535 21.9475 39.4275C21.7735 39.6015 21.5669 39.7395 21.3396 39.8337C21.1122 39.9278 20.8686 39.9763 20.6225 39.9763C20.3764 39.9763 20.1328 39.9278 19.9054 39.8337C19.6781 39.7395 19.4715 39.6015 19.2975 39.4275L15.6225 35.7525L15.625 35.75ZM17.505 27.475C17.505 31.625 14.155 34.975 10.005 34.975C5.855 34.975 2.505 31.625 2.505 27.475C2.505 23.325 5.855 19.975 10.005 19.975C14.155 19.975 17.505 23.325 17.505 27.475Z" fill="#7B6DDB"/>
<path fill-rule="evenodd" clip-rule="evenodd" d="M13.75 2.5C13.4185 2.5 13.1005 2.6317 12.8661 2.86612C12.6317 3.10054 12.5 3.41848 12.5 3.75V12.5C12.5 12.8315 12.3683 13.1495 12.1339 13.3839C11.8995 13.6183 11.5815 13.75 11.25 13.75C10.9185 13.75 10.6005 13.6183 10.3661 13.3839C10.1317 13.1495 10 12.8315 10 12.5H7.5C6.83696 12.5 6.20107 12.7634 5.73223 13.2322C5.26339 13.7011 5 14.337 5 15C5 15.3315 4.8683 15.6495 4.63388 15.8839C4.39946 16.1183 4.08152 16.25 3.75 16.25C3.41848 16.25 3.10054 16.1183 2.86612 15.8839C2.6317 15.6495 2.5 15.3315 2.5 15C2.5 12.25 4.7375 10 7.5 10H10V3.75C10 2.75544 10.3951 1.80161 11.0983 1.09835C11.8016 0.395088 12.7554 0 13.75 0L25.225 0C26.22 0 27.1725 0.395 27.875 1.0975L31.4 4.6225C32.1025 5.3255 32.4973 6.27863 32.4975 7.2725V9.9975H34.9975C37.7475 9.9975 39.9975 12.235 39.9975 14.9975V24.9975C39.9975 26.9925 38.8275 28.7225 37.1475 29.5225L39.7475 32.9975C39.8868 33.1832 39.9716 33.404 39.9925 33.6352C40.0133 33.8664 39.9693 34.0989 39.8655 34.3065C39.7617 34.5141 39.6021 34.6888 39.4047 34.8108C39.2072 34.9329 38.9796 34.9975 38.7475 34.9975H26.2475C25.916 34.9975 25.598 34.8658 25.3636 34.6314C25.1292 34.397 24.9975 34.079 24.9975 33.7475C24.9975 33.416 25.1292 33.098 25.3636 32.8636C25.598 32.6292 25.916 32.4975 26.2475 32.4975H36.2475L30.6225 24.9975H23.75C23.4185 24.9975 23.1005 24.8658 22.8661 24.6314C22.6317 24.397 22.5 24.079 22.5 23.7475C22.5 23.416 22.6317 23.098 22.8661 22.8636C23.1005 22.6292 23.4185 22.4975 23.75 22.4975H31.25C31.4441 22.4975 31.6354 22.5427 31.809 22.6295C31.9826 22.7163 32.1336 22.8423 32.25 22.9975L35.575 27.4225C36.1229 27.293 36.611 26.9824 36.9604 26.5409C37.3098 26.0994 37.4999 25.553 37.5 24.99V14.99C37.5 14.327 37.2366 13.6911 36.7678 13.2222C36.2989 12.7534 35.663 12.49 35 12.49H32.5V16.24C32.5 17.2346 32.1049 18.1884 31.4017 18.8917C30.6984 19.5949 29.7446 19.99 28.75 19.99H21.25C20.9185 19.99 20.6005 19.8583 20.3661 19.6239C20.1317 19.3895 20 19.0715 20 18.74C20 18.4085 20.1317 18.0905 20.3661 17.8561C20.6005 17.6217 20.9185 17.49 21.25 17.49H28.75C29.0815 17.49 29.3995 17.3583 29.6339 17.1239C29.8683 16.8895 30 16.5715 30 16.24V7.49H26.25C25.9185 7.49 25.6005 7.3583 25.3661 7.12388C25.1317 6.88946 25 6.57152 25 6.24V2.49H13.75V2.5Z" fill="#7B6DDB"/>
</svg>
