<svg width="75" height="67" viewBox="0 0 75 67" fill="none" xmlns="http://www.w3.org/2000/svg">
<path d="M37.5 14.8151L45.6849 23M37.5 14.8151L29.3151 23.3417M37.5 14.8151V33.2312M36.6324 44.6409C36.8626 44.8709 37.1746 45 37.5 45C37.8254 45 38.1374 44.8709 38.3676 44.6409L59.1409 23.8676C59.3709 23.6374 59.5 23.3254 59.5 23C59.5 22.6746 59.3709 22.3626 59.1409 22.1324L38.3676 1.35906C38.1374 1.12914 37.8254 1 37.5 1C37.1746 1 36.8626 1.12914 36.6324 1.35906L15.8591 22.1324C15.6291 22.3626 15.5 22.6746 15.5 23C15.5 23.3254 15.6291 23.6374 15.8591 23.8676L36.6324 44.6409Z" stroke="#C9549D" stroke-width="2" stroke-linecap="round" stroke-linejoin="round"/>
<path d="M7.14225 63.16C6.37425 63.16 5.69158 63.0533 5.09425 62.84C4.49692 62.6267 3.92625 62.2747 3.38225 61.784C3.26492 61.6987 3.17425 61.5973 3.11025 61.48C3.05692 61.352 3.03025 61.224 3.03025 61.096C3.03025 60.8933 3.10492 60.712 3.25425 60.552C3.40358 60.392 3.59025 60.312 3.81425 60.312C3.98492 60.312 4.14492 60.3707 4.29425 60.488C4.69958 60.8613 5.12092 61.144 5.55825 61.336C6.00625 61.528 6.52892 61.624 7.12625 61.624C7.55292 61.624 7.94225 61.5547 8.29425 61.416C8.65692 61.2773 8.94492 61.0907 9.15825 60.856C9.37158 60.6213 9.47825 60.3493 9.47825 60.04C9.47825 59.656 9.36625 59.3413 9.14225 59.096C8.92892 58.84 8.61425 58.632 8.19825 58.472C7.79292 58.3013 7.30225 58.1573 6.72625 58.04C6.19292 57.944 5.71292 57.8107 5.28625 57.64C4.87025 57.4693 4.51292 57.256 4.21425 57C3.91558 56.7333 3.68625 56.4187 3.52625 56.056C3.36625 55.6933 3.28625 55.272 3.28625 54.792C3.28625 54.1413 3.45692 53.5813 3.79825 53.112C4.13958 52.6427 4.60358 52.28 5.19025 52.024C5.77692 51.768 6.43825 51.64 7.17425 51.64C7.84625 51.64 8.47558 51.7467 9.06225 51.96C9.64892 52.1627 10.1236 52.44 10.4862 52.792C10.7423 53.016 10.8703 53.256 10.8703 53.512C10.8703 53.704 10.7903 53.8853 10.6302 54.056C10.4809 54.216 10.3049 54.296 10.1023 54.296C9.95292 54.296 9.82492 54.2533 9.71825 54.168C9.54758 53.9867 9.31825 53.8267 9.03025 53.688C8.74225 53.5387 8.43292 53.416 8.10225 53.32C7.78225 53.224 7.47292 53.176 7.17425 53.176C6.69425 53.176 6.28358 53.2453 5.94225 53.384C5.60092 53.512 5.33958 53.6933 5.15825 53.928C4.97692 54.152 4.88625 54.4187 4.88625 54.728C4.88625 55.0907 4.98758 55.3893 5.19025 55.624C5.40358 55.8587 5.69692 56.0507 6.07025 56.2C6.44358 56.3387 6.87025 56.4667 7.35025 56.584C7.93692 56.712 8.45958 56.856 8.91825 57.016C9.38758 57.176 9.78225 57.384 10.1023 57.64C10.4223 57.8853 10.6676 58.1947 10.8383 58.568C11.0089 58.9413 11.0943 59.4053 11.0943 59.96C11.0943 60.6 10.9129 61.16 10.5503 61.64C10.1876 62.12 9.70758 62.4933 9.11025 62.76C8.52358 63.0267 7.86758 63.16 7.14225 63.16ZM22.6936 54.504C22.8963 54.504 23.0723 54.584 23.2216 54.744C23.3816 54.8933 23.4616 55.0907 23.4616 55.336C23.4616 55.3893 23.4563 55.4427 23.4456 55.496C23.435 55.5493 23.419 55.5973 23.3976 55.64L20.9496 62.488C20.8856 62.6693 20.7736 62.808 20.6136 62.904C20.4536 62.9893 20.2883 63.0213 20.1176 63C19.8083 62.9787 19.579 62.808 19.4296 62.488L17.6216 57.688L17.9896 57.72L16.3256 62.488C16.1763 62.808 15.947 62.9787 15.6376 63C15.4776 63.0213 15.3123 62.9893 15.1416 62.904C14.9816 62.808 14.8696 62.6693 14.8056 62.488L12.3416 55.64C12.299 55.544 12.2776 55.4427 12.2776 55.336C12.2776 55.112 12.347 54.92 12.4856 54.76C12.635 54.5893 12.8323 54.504 13.0776 54.504C13.2483 54.504 13.3976 54.5467 13.5256 54.632C13.6643 54.7173 13.7603 54.8453 13.8136 55.016L15.8616 60.792L15.4936 60.76L17.1576 56.392C17.2963 56.0613 17.5416 55.896 17.8936 55.896C18.0856 55.896 18.235 55.9387 18.3416 56.024C18.4483 56.1093 18.5336 56.232 18.5976 56.392L20.2936 60.776L19.8616 60.824L21.9256 55.016C22.0323 54.6747 22.2883 54.504 22.6936 54.504ZM26.5928 62.184C26.5928 62.4187 26.5181 62.616 26.3688 62.776C26.2194 62.9253 26.0274 63 25.7928 63C25.5688 63 25.3768 62.9253 25.2168 62.776C25.0674 62.616 24.9928 62.4187 24.9928 62.184V55.336C24.9928 55.1013 25.0674 54.9093 25.2168 54.76C25.3768 54.6 25.5688 54.52 25.7928 54.52C26.0274 54.52 26.2194 54.6 26.3688 54.76C26.5181 54.9093 26.5928 55.1013 26.5928 55.336V62.184ZM25.7768 53.464C25.4674 53.464 25.2434 53.4107 25.1048 53.304C24.9661 53.1867 24.8968 52.9947 24.8968 52.728V52.472C24.8968 52.2053 24.9714 52.0187 25.1208 51.912C25.2701 51.8053 25.4941 51.752 25.7928 51.752C26.1128 51.752 26.3421 51.8107 26.4808 51.928C26.6194 52.0347 26.6888 52.216 26.6888 52.472V52.728C26.6888 53.0053 26.6141 53.1973 26.4648 53.304C26.3261 53.4107 26.0968 53.464 25.7768 53.464ZM32.985 54.44C33.7317 54.44 34.393 54.6267 34.969 55C35.5557 55.3733 36.0197 55.8853 36.361 56.536C36.7023 57.176 36.873 57.9227 36.873 58.776C36.873 59.6293 36.7023 60.3867 36.361 61.048C36.0197 61.6987 35.561 62.2107 34.985 62.584C34.409 62.9573 33.7583 63.144 33.033 63.144C32.6277 63.144 32.2437 63.08 31.881 62.952C31.5183 62.824 31.1983 62.6587 30.921 62.456C30.6437 62.2427 30.4143 62.0187 30.233 61.784C30.0623 61.5493 29.9557 61.3307 29.913 61.128L30.345 60.92V65.384C30.345 65.6187 30.265 65.8107 30.105 65.96C29.9557 66.12 29.769 66.2 29.545 66.2C29.3103 66.2 29.1183 66.12 28.969 65.96C28.8197 65.8107 28.745 65.6187 28.745 65.384V55.368C28.745 55.144 28.8197 54.952 28.969 54.792C29.1183 54.632 29.3103 54.552 29.545 54.552C29.769 54.552 29.9557 54.632 30.105 54.792C30.265 54.952 30.345 55.144 30.345 55.368V56.472L30.089 56.328C30.121 56.1253 30.2223 55.9173 30.393 55.704C30.5637 55.48 30.777 55.272 31.033 55.08C31.2997 54.888 31.5983 54.7333 31.929 54.616C32.2703 54.4987 32.6223 54.44 32.985 54.44ZM32.809 55.912C32.297 55.912 31.849 56.04 31.465 56.296C31.0917 56.5413 30.7983 56.8773 30.585 57.304C30.3717 57.7307 30.265 58.2213 30.265 58.776C30.265 59.32 30.3717 59.816 30.585 60.264C30.7983 60.7013 31.0917 61.048 31.465 61.304C31.849 61.5493 32.297 61.672 32.809 61.672C33.3103 61.672 33.7477 61.5493 34.121 61.304C34.4943 61.048 34.7877 60.7013 35.001 60.264C35.225 59.816 35.337 59.32 35.337 58.776C35.337 58.232 35.225 57.7467 35.001 57.32C34.7877 56.8827 34.4943 56.5413 34.121 56.296C33.7477 56.04 33.3103 55.912 32.809 55.912ZM42.6025 63.16C41.7172 63.16 40.9492 62.9787 40.2985 62.616C39.6478 62.2427 39.1412 61.736 38.7785 61.096C38.4265 60.4453 38.2505 59.704 38.2505 58.872C38.2505 57.9333 38.4372 57.1333 38.8105 56.472C39.1945 55.8 39.6905 55.288 40.2985 54.936C40.9065 54.5733 41.5518 54.392 42.2345 54.392C42.7572 54.392 43.2532 54.4987 43.7225 54.712C44.1918 54.9147 44.6078 55.2027 44.9705 55.576C45.3438 55.9387 45.6372 56.3707 45.8505 56.872C46.0638 57.3627 46.1758 57.9013 46.1865 58.488C46.1758 58.7013 46.0905 58.8773 45.9305 59.016C45.7705 59.1547 45.5838 59.224 45.3705 59.224H39.1465L38.7625 57.864H44.7785L44.4745 58.152V57.752C44.4532 57.3787 44.3305 57.0533 44.1065 56.776C43.8825 56.488 43.6052 56.2693 43.2745 56.12C42.9438 55.96 42.5972 55.88 42.2345 55.88C41.9145 55.88 41.6052 55.9333 41.3065 56.04C41.0185 56.136 40.7572 56.296 40.5225 56.52C40.2985 56.744 40.1172 57.0427 39.9785 57.416C39.8505 57.7787 39.7865 58.232 39.7865 58.776C39.7865 59.3627 39.9092 59.8747 40.1545 60.312C40.3998 60.7493 40.7305 61.0907 41.1465 61.336C41.5625 61.5707 42.0212 61.688 42.5225 61.688C42.9172 61.688 43.2425 61.6507 43.4985 61.576C43.7545 61.4907 43.9678 61.3893 44.1385 61.272C44.3092 61.1547 44.4585 61.0427 44.5865 60.936C44.7465 60.84 44.9065 60.792 45.0665 60.792C45.2585 60.792 45.4185 60.8613 45.5465 61C45.6745 61.128 45.7385 61.2827 45.7385 61.464C45.7385 61.6987 45.6212 61.912 45.3865 62.104C45.0985 62.3813 44.6985 62.6267 44.1865 62.84C43.6852 63.0533 43.1572 63.16 42.6025 63.16ZM60.5761 51.784C60.8108 51.784 60.9975 51.864 61.1361 52.024C61.2748 52.1733 61.3441 52.3653 61.3441 52.6V58.664C61.3441 59.5173 61.1575 60.28 60.7841 60.952C60.4108 61.624 59.8988 62.152 59.2481 62.536C58.5975 62.9093 57.8455 63.096 56.9921 63.096C56.1495 63.096 55.3975 62.9093 54.7361 62.536C54.0855 62.152 53.5681 61.624 53.1841 60.952C52.8108 60.28 52.6241 59.5173 52.6241 58.664V52.6C52.6241 52.3653 52.7041 52.1733 52.8641 52.024C53.0241 51.864 53.2321 51.784 53.4881 51.784C53.6908 51.784 53.8721 51.864 54.0321 52.024C54.2028 52.1733 54.2881 52.3653 54.2881 52.6V58.664C54.2881 59.2293 54.4108 59.7253 54.6561 60.152C54.9121 60.568 55.2481 60.8987 55.6641 61.144C56.0801 61.3787 56.5228 61.496 56.9921 61.496C57.5041 61.496 57.9735 61.3787 58.4001 61.144C58.8268 60.8987 59.1681 60.568 59.4241 60.152C59.6908 59.7253 59.8241 59.2293 59.8241 58.664V52.6C59.8241 52.3653 59.8881 52.1733 60.0161 52.024C60.1548 51.864 60.3415 51.784 60.5761 51.784ZM68.0163 54.44C68.7629 54.44 69.4243 54.6267 70.0003 55C70.5869 55.3733 71.0509 55.8853 71.3923 56.536C71.7336 57.176 71.9043 57.9227 71.9043 58.776C71.9043 59.6293 71.7336 60.3867 71.3923 61.048C71.0509 61.6987 70.5923 62.2107 70.0163 62.584C69.4403 62.9573 68.7896 63.144 68.0643 63.144C67.6589 63.144 67.2749 63.08 66.9123 62.952C66.5496 62.824 66.2296 62.6587 65.9523 62.456C65.6749 62.2427 65.4456 62.0187 65.2643 61.784C65.0936 61.5493 64.9869 61.3307 64.9443 61.128L65.3763 60.92V65.384C65.3763 65.6187 65.2963 65.8107 65.1363 65.96C64.9869 66.12 64.8003 66.2 64.5763 66.2C64.3416 66.2 64.1496 66.12 64.0003 65.96C63.8509 65.8107 63.7763 65.6187 63.7763 65.384V55.368C63.7763 55.144 63.8509 54.952 64.0003 54.792C64.1496 54.632 64.3416 54.552 64.5763 54.552C64.8003 54.552 64.9869 54.632 65.1363 54.792C65.2963 54.952 65.3763 55.144 65.3763 55.368V56.472L65.1203 56.328C65.1523 56.1253 65.2536 55.9173 65.4243 55.704C65.5949 55.48 65.8083 55.272 66.0643 55.08C66.3309 54.888 66.6296 54.7333 66.9603 54.616C67.3016 54.4987 67.6536 54.44 68.0163 54.44ZM67.8403 55.912C67.3283 55.912 66.8803 56.04 66.4963 56.296C66.1229 56.5413 65.8296 56.8773 65.6163 57.304C65.4029 57.7307 65.2963 58.2213 65.2963 58.776C65.2963 59.32 65.4029 59.816 65.6163 60.264C65.8296 60.7013 66.1229 61.048 66.4963 61.304C66.8803 61.5493 67.3283 61.672 67.8403 61.672C68.3416 61.672 68.7789 61.5493 69.1523 61.304C69.5256 61.048 69.8189 60.7013 70.0323 60.264C70.2563 59.816 70.3683 59.32 70.3683 58.776C70.3683 58.232 70.2563 57.7467 70.0323 57.32C69.8189 56.8827 69.5256 56.5413 69.1523 56.296C68.7789 56.04 68.3416 55.912 67.8403 55.912Z" fill="#C9549D"/>
</svg>
