<svg width="241" height="241" viewBox="0 0 241 241" fill="none" xmlns="http://www.w3.org/2000/svg">
<path d="M45.6117 134.699L12.9531 140.811L17.8395 166.921L50.4981 160.809L45.6117 134.699Z" fill="#F5F5F5"/>
<path d="M45.62 134.707L45.4616 134.745L44.9816 134.837L43.2104 135.182L36.524 136.464L12.98 140.928L13.0712 140.793C14.5112 148.565 16.2008 157.473 17.972 166.901L17.8232 166.795L50.4632 160.709L50.3816 160.833C48.9416 152.971 47.732 146.457 46.892 141.893C46.4792 139.613 46.1528 137.822 45.932 136.613C45.8216 136.003 45.74 135.537 45.6824 135.211C45.6248 134.885 45.6008 134.731 45.6008 134.731C45.6008 134.731 45.6392 134.885 45.6968 135.211L45.9704 136.589C46.2056 137.813 46.5464 139.593 46.9832 141.869C47.852 146.443 49.0904 152.976 50.588 160.857L50.612 160.958L50.5064 160.982L17.8472 167.078L17.7224 167.102L17.6984 166.973C15.9416 157.545 14.276 148.637 12.8264 140.861V140.75L12.9416 140.726L36.5768 136.358L43.244 135.139L45.0056 134.822L45.452 134.745L45.62 134.707Z" fill="#E0E0E0"/>
<path d="M44.7497 136.56L14.384 142.243L18.6549 165.064L49.0206 159.381L44.7497 136.56Z" fill="#EBEBEB"/>
<path d="M18.644 165.072L26.5976 148.901L34.8248 156.547L38.396 150.97L49.0088 159.394L18.644 165.072Z" fill="#E0E0E0"/>
<path d="M35.6313 145.416C35.7199 145.889 35.6662 146.378 35.477 146.82C35.2879 147.263 34.9718 147.639 34.5687 147.902C34.1656 148.165 33.6936 148.303 33.2124 148.297C32.7312 148.292 32.2624 148.144 31.8652 147.872C31.468 147.601 31.1603 147.217 30.9809 146.771C30.8016 146.324 30.7587 145.834 30.8577 145.363C30.9566 144.892 31.193 144.461 31.5369 144.125C31.8808 143.788 32.3168 143.561 32.7897 143.472C33.104 143.413 33.4268 143.416 33.7397 143.482C34.0526 143.548 34.3495 143.675 34.6134 143.855C34.8773 144.036 35.103 144.267 35.2777 144.534C35.4523 144.802 35.5725 145.102 35.6313 145.416Z" fill="#E0E0E0"/>
<path d="M94.5431 25.3091L77.8228 117.682L146.215 130.061L162.936 37.6888L94.5431 25.3091Z" fill="#FAFAFA"/>
<path d="M146.214 130.065C146.214 130.065 146.238 129.912 146.286 129.624L146.516 128.323C146.718 127.181 147.02 125.491 147.409 123.297C148.201 118.901 149.353 112.478 150.812 104.347L162.812 37.6749L162.908 37.8093L94.5319 25.4397L94.6807 25.3341C88.4407 59.7933 82.6471 91.7133 77.9335 117.701L77.8519 117.581L127.546 126.633L141.337 129.158L144.966 129.83C145.786 129.979 146.214 130.065 146.214 130.065L144.985 129.854L141.37 129.211L127.58 126.758L77.8039 117.801H77.7031V117.701C82.4023 91.7037 88.1767 59.7837 94.4071 25.3245V25.1997H94.5367L162.956 37.5789L163.071 37.6029V37.7133C158.094 65.0733 153.889 88.1757 150.932 104.433L147.476 123.345C147.073 125.529 146.766 127.185 146.554 128.347C146.449 128.909 146.372 129.336 146.319 129.629L146.214 130.065Z" fill="#E0E0E0"/>
<path d="M129.359 40.3271L100.32 35.0708L95.7412 60.3685L124.78 65.6248L129.359 40.3271Z" fill="#E0E0E0"/>
<path d="M152.519 44.5194L133.929 41.1543L133.331 44.4558L151.922 47.8209L152.519 44.5194Z" fill="#E0E0E0"/>
<path d="M148.233 75.1944L95.1719 65.5898L94.5743 68.8914L147.635 78.4959L148.233 75.1944Z" fill="#E0E0E0"/>
<path d="M147.185 81.0054L94.1245 71.4009L93.5269 74.7024L146.588 84.307L147.185 81.0054Z" fill="#E0E0E0"/>
<path d="M146.134 86.8165L93.0732 77.2119L92.4756 80.5135L145.537 90.118L146.134 86.8165Z" fill="#E0E0E0"/>
<path d="M145.077 92.627L92.0164 83.0225L91.4187 86.324L144.48 95.9286L145.077 92.627Z" fill="#E0E0E0"/>
<path d="M144.026 98.4332L90.9651 88.8286L90.3675 92.1302L143.428 101.735L144.026 98.4332Z" fill="#E0E0E0"/>
<path d="M140.42 118.357L87.3594 108.753L86.7618 112.054L139.823 121.659L140.42 118.357Z" fill="#E0E0E0"/>
<path d="M119.045 99.9146L89.917 94.6421L89.3194 97.9436L118.448 103.216L119.045 99.9146Z" fill="#E0E0E0"/>
<path d="M151.555 49.8636L132.964 46.4985L132.366 49.8001L150.957 53.1652L151.555 49.8636Z" fill="#E0E0E0"/>
<path d="M149.883 55.2752L131.368 51.8745L130.764 55.1626L149.279 58.5633L149.883 55.2752Z" fill="#E0E0E0"/>
<path d="M142.492 59.2532L131.029 57.1782L130.431 60.4798L141.894 62.5547L142.492 59.2532Z" fill="#E0E0E0"/>
<path d="M177.14 24.8831L171.241 25.1231L170.602 26.7743C170.42 27.2045 170.322 27.6657 170.314 28.1327C170.309 28.3393 170.36 28.5434 170.464 28.7222C170.567 28.9011 170.718 29.0477 170.9 29.1455C171.433 29.3156 171.992 29.3919 172.551 29.3711V29.8511L167.06 30.0527V29.5727C167.618 29.4761 168.126 29.1916 168.5 28.7663C169.068 27.9793 169.516 27.1122 169.83 26.1935L175.22 12.6479H175.455L182.026 26.0879C182.666 27.3679 183.172 28.1679 183.543 28.4879C183.887 28.7524 184.31 28.8928 184.743 28.8863V29.3375L176.665 29.6639V29.2079H177.001C177.474 29.23 177.943 29.1168 178.354 28.8815C178.442 28.8149 178.511 28.7269 178.554 28.6261C178.598 28.5252 178.615 28.4149 178.604 28.3055C178.596 28.1514 178.566 27.9993 178.513 27.8543C178.513 27.7823 178.354 27.4751 178.105 26.9471L177.14 24.8831ZM176.684 23.9903L173.967 18.3359L171.634 24.1919L176.684 23.9903Z" fill="#E0E0E0"/>
<path d="M188.311 59.7604L161.331 68.772L168.536 90.3429L195.516 81.3314L188.311 59.7604Z" fill="#F5F5F5"/>
<path d="M187.791 61.4409L162.71 69.8184L169.007 88.6713L194.088 80.2939L187.791 61.4409Z" fill="#EBEBEB"/>
<path d="M169.009 88.68L173.857 74.0352L181.729 79.5552L184.1 74.4048L194.089 80.304L169.009 88.68Z" fill="#E0E0E0"/>
<path d="M181.105 70.0174C181.235 70.4082 181.247 70.829 181.139 71.2265C181.03 71.6241 180.806 71.9805 180.495 72.2508C180.184 72.5211 179.8 72.693 179.391 72.7449C178.983 72.7967 178.568 72.7262 178.199 72.5422C177.83 72.3582 177.524 72.0689 177.32 71.7111C177.116 71.3532 177.022 70.9428 177.051 70.5317C177.08 70.1207 177.23 69.7275 177.483 69.4018C177.735 69.0761 178.079 68.8327 178.47 68.7022C178.729 68.615 179.003 68.5798 179.276 68.5987C179.549 68.6177 179.815 68.6903 180.06 68.8125C180.305 68.9347 180.523 69.104 180.703 69.3108C180.882 69.5176 181.019 69.7577 181.105 70.0174Z" fill="#E0E0E0"/>
<path d="M189.059 34.6743L182.456 68.397L224.634 76.6567L231.238 42.934L189.059 34.6743Z" fill="#F5F5F5"/>
<path d="M231.246 42.9358L231.039 42.9022L230.444 42.7966L228.15 42.3598L219.51 40.699L189.044 34.7902L189.178 34.699C187.215 44.7358 184.969 56.2414 182.588 68.419L182.487 68.2654L224.66 76.555L224.535 76.6366C226.546 66.4894 228.212 58.075 229.378 52.195C229.969 49.2526 230.43 46.9438 230.746 45.3646C230.905 44.5774 231.025 43.9774 231.111 43.5598C231.198 43.1422 231.246 42.9358 231.246 42.9358C231.246 42.9358 231.212 43.1422 231.135 43.5454C231.058 43.9486 230.948 44.5534 230.799 45.331C230.497 46.9054 230.055 49.2094 229.494 52.147C228.351 58.051 226.714 66.4942 224.746 76.6798L224.722 76.7854H224.622L182.42 68.5246L182.295 68.5006L182.319 68.3758C184.719 56.203 186.97 44.6974 188.938 34.6606L188.962 34.5454L189.073 34.5694L219.606 40.5982L228.207 42.3166L230.478 42.7966L231.054 42.9166L231.246 42.9358Z" fill="#E0E0E0"/>
<path d="M190.103 37.0834L184.331 66.5571L223.546 74.2366L229.318 44.7628L190.103 37.0834Z" fill="#EBEBEB"/>
<path d="M184.33 66.5617L201.615 50.9233L207.855 64.0465L214.81 59.0449L223.546 74.2417L184.33 66.5617Z" fill="#E0E0E0"/>
<path d="M214.143 51.0432C214.024 51.6547 213.727 52.2172 213.288 52.6595C212.85 53.1018 212.29 53.4041 211.679 53.5281C211.069 53.652 210.435 53.5922 209.859 53.356C209.282 53.1199 208.789 52.7181 208.441 52.2014C208.093 51.6848 207.906 51.0765 207.904 50.4536C207.901 49.8307 208.084 49.2211 208.428 48.7019C208.772 48.1828 209.263 47.7774 209.838 47.5372C210.412 47.2969 211.046 47.2324 211.657 47.352C212.063 47.4308 212.449 47.5888 212.794 47.817C213.138 48.0452 213.435 48.3391 213.666 48.682C213.897 49.0248 214.058 49.4099 214.14 49.815C214.222 50.2202 214.223 50.6376 214.143 51.0432Z" fill="#E0E0E0"/>
<path d="M26.7751 15.979L28.9543 41.4094L38.8183 44.083L57.9511 41.8606L55.2583 13.2334L26.7751 15.979Z" fill="#F5F5F5"/>
<path d="M31.964 39.1245L28.9592 41.4093C30.1014 42.3995 31.4368 43.1416 32.8808 43.5885C34.8113 44.1256 36.8267 44.2885 38.8184 44.0685C38.8184 44.0685 34.2632 43.2957 31.964 39.1245Z" fill="#EBEBEB"/>
<path d="M52.9543 22.5985C52.9543 22.6465 48.1159 23.1505 42.1399 23.7313C36.1639 24.3121 31.3063 24.7441 31.3015 24.6913C31.2967 24.6385 36.1399 24.1249 42.1207 23.5585C48.1015 22.9921 52.9495 22.5361 52.9543 22.5985Z" fill="#E0E0E0"/>
<path d="M53.2375 26.4958C53.2375 26.5438 48.3991 27.0526 42.4231 27.6334C36.4471 28.2142 31.5895 28.6414 31.5847 28.5934C31.5799 28.5454 36.4231 28.0366 42.4039 27.4558C48.3847 26.875 53.2327 26.4382 53.2375 26.4958Z" fill="#E0E0E0"/>
<path d="M53.6937 29.947C53.6937 29.995 48.8553 30.5038 42.8793 31.0798C36.9033 31.6558 32.0505 32.0926 32.0457 32.0398C32.0409 31.987 36.8793 31.4878 42.8601 30.907C48.8409 30.3262 53.6889 29.899 53.6937 29.947Z" fill="#E0E0E0"/>
<path d="M53.9961 33.2829C53.9961 33.3261 49.1577 33.8349 43.1769 34.4157C37.1961 34.9965 32.3481 35.4285 32.3433 35.3757C32.3385 35.3229 37.1817 34.8189 43.1625 34.2429C49.1433 33.6669 53.9913 33.2349 53.9961 33.2829Z" fill="#E0E0E0"/>
<path d="M233.007 220.791C233.007 220.858 182.415 220.916 120.025 220.916C57.6343 220.916 7.03271 220.858 7.03271 220.791C7.03271 220.724 57.6103 220.661 120.025 220.661C182.439 220.661 233.007 220.719 233.007 220.791Z" fill="#263238"/>
<path d="M20.6311 60.2063L40.8679 176.088L126.202 162.691L130.158 153.134L107.07 45.9839L27.0823 50.7551L20.6311 60.2063Z" fill="#E0E0E0"/>
<path opacity="0.3" d="M40.8679 176.088L46.9303 166.8L26.6935 50.9136L20.6311 60.2064L40.8679 176.088Z" fill="black"/>
<path d="M26.6936 50.9139L46.9304 166.8L130.158 153.135L109.129 39.1587L26.6936 50.9139Z" fill="#FAFAFA"/>
<path d="M26.6936 50.9185L109.114 39.0625H109.215V39.1585C115.114 70.9873 122.42 110.438 130.282 153.11L130.306 153.24L130.177 153.264L128.804 153.49L46.9496 166.93H46.8344V166.815C34.9304 98.3713 26.8712 51.9361 26.6936 50.9185C26.8712 51.9409 35.0264 98.3569 47.0456 166.781L46.9112 166.69L128.761 153.25L130.134 153.024L130.028 153.173C122.166 110.496 114.898 71.0449 109.028 39.1921L109.143 39.2737L26.6936 50.9185Z" fill="#263238"/>
<path d="M93.4229 105.794C94.4549 98.0291 88.9964 90.8975 81.2311 89.8655C73.4658 88.8335 66.3341 94.292 65.3022 102.057C64.2702 109.823 69.7286 116.954 77.494 117.986C85.2593 119.018 92.3909 113.56 93.4229 105.794Z" fill="#7163DE"/>
<path d="M72.8551 107.645L72.2119 103.56L86.3575 101.318L86.9623 105.158C86.9623 105.158 86.0983 108.461 80.3767 109.363C74.6551 110.266 72.8551 107.645 72.8551 107.645Z" fill="white"/>
<path d="M69.98 103.584L80.0744 105.379L88.8296 100.454L78.7208 98.856L69.98 103.584Z" fill="white"/>
<path d="M90.2879 72.3047L58.4794 77.3313C57.8641 77.4285 57.4441 78.0062 57.5413 78.6215L57.7106 79.693C57.8079 80.3083 58.3855 80.7284 59.0009 80.6311L90.8094 75.6045C91.4247 75.5073 91.8447 74.9296 91.7475 74.3143L91.5781 73.2428C91.4809 72.6274 90.9032 72.2074 90.2879 72.3047Z" fill="#E0E0E0"/>
<path d="M101.745 143.407L69.9364 148.434C69.3211 148.531 68.9011 149.109 68.9983 149.724L69.1677 150.796C69.2649 151.411 69.8426 151.831 70.4579 151.734L102.266 146.707C102.882 146.61 103.302 146.032 103.204 145.417L103.035 144.345C102.938 143.73 102.36 143.31 101.745 143.407Z" fill="#E0E0E0"/>
<path d="M125.871 156.355L125.468 156.432L124.278 156.639L119.674 157.407L102.582 160.21L44.8377 169.594L44.7129 169.618V169.493C43.9065 164.909 43.0569 160.109 42.1929 155.218C37.5465 128.938 33.3609 105.159 30.3321 87.9314C28.8297 79.3202 27.6153 72.3554 26.7705 67.5362C26.3577 65.1362 26.0361 63.2594 25.8105 61.9874C25.7049 61.3538 25.6233 60.8738 25.5657 60.5474C25.5081 60.221 25.4937 60.0674 25.4937 60.0674C25.4937 60.0674 25.5321 60.2354 25.5945 60.5474C25.6569 60.8594 25.7433 61.3586 25.8585 61.9874C26.0889 63.2594 26.4249 65.1266 26.8617 67.5266C27.7209 72.3266 28.9641 79.3058 30.5001 87.9074C33.5481 105.13 37.7625 128.909 42.4137 155.184C43.2777 160.071 44.1225 164.875 44.9337 169.459L44.7849 169.354L102.548 160.051L119.65 157.325L124.258 156.6L125.454 156.418L125.871 156.355Z" fill="#263238"/>
<path d="M119.54 160.714L119.161 160.79L118.038 160.987L113.689 161.726L97.5224 164.424L42.6584 173.506H42.5336V173.386L39.38 156.264C34.6808 130.344 30.428 106.896 27.3464 89.9137C25.82 81.4273 24.5816 74.5537 23.7272 69.8017C23.3096 67.4305 22.9784 65.5873 22.7672 64.3297C22.6616 63.7105 22.5752 63.2353 22.5224 62.8897C22.4696 62.5441 22.4456 62.4097 22.4456 62.4097C22.4456 62.4097 22.484 62.5681 22.5464 62.8897L22.82 64.3297C23.0504 65.5825 23.396 67.4209 23.8376 69.7873L27.5336 89.8849C30.6344 106.867 34.916 130.315 39.644 156.221C40.7096 162.091 41.756 167.837 42.7592 173.362L42.6152 173.261L97.484 164.266L113.66 161.64L118.014 160.944L119.142 160.771L119.54 160.714Z" fill="#263238"/>
<path d="M28.7047 99.9888L26.8279 102.638L31.3831 129.946L34.0951 130.867L28.7047 99.9888Z" fill="#263238"/>
<path d="M41.7026 97.7148L28.709 99.9849L34.1033 130.861L47.0969 128.591L41.7026 97.7148Z" fill="#263238"/>
<path d="M42.1167 96.5175L41.2703 96.6652C40.7872 96.7495 40.4639 97.2095 40.5482 97.6927L46.0064 128.967C46.0908 129.45 46.5508 129.774 47.0339 129.689L47.8803 129.541C48.3634 129.457 48.6867 128.997 48.6024 128.514L43.1441 97.2396C43.0598 96.7565 42.5998 96.4332 42.1167 96.5175Z" fill="#263238"/>
<path d="M26.4584 122.328C25.0186 122.322 23.6295 121.796 22.5478 120.845C21.4661 119.895 20.7649 118.586 20.5736 117.159C20.4085 115.939 20.6253 114.699 21.1942 113.608C21.763 112.517 22.6559 111.629 23.75 111.067C24.8442 110.504 26.0858 110.294 27.304 110.466C28.5222 110.638 29.6572 111.184 30.5528 112.027L38.6648 107.419C38.8201 107.331 38.9942 107.282 39.1726 107.275C39.3509 107.269 39.5283 107.305 39.6897 107.381C39.8511 107.457 39.9918 107.571 40.1 107.713C40.2081 107.855 40.2806 108.021 40.3112 108.197L42.2312 119.184C42.2628 119.359 42.2519 119.539 42.1995 119.709C42.1471 119.878 42.0547 120.033 41.93 120.16C41.8053 120.286 41.652 120.381 41.4831 120.436C41.3141 120.491 41.1345 120.504 40.9592 120.475L31.8008 119.035C31.305 120.028 30.5425 120.862 29.5989 121.446C28.6552 122.029 27.5678 122.338 26.4584 122.338V122.328ZM26.4584 111.379C26.2174 111.378 25.9766 111.395 25.7384 111.432C24.4471 111.642 23.2866 112.342 22.4988 113.387C21.711 114.431 21.3566 115.739 21.5096 117.039C21.655 118.125 22.154 119.134 22.9296 119.908C23.7052 120.683 24.7143 121.181 25.801 121.325C26.8877 121.469 27.9917 121.252 28.9424 120.706C29.8932 120.16 30.6379 119.317 31.0616 118.306L31.2056 117.96L41.1128 119.559C41.1363 119.564 41.1607 119.562 41.1835 119.555C41.2063 119.547 41.2266 119.533 41.2424 119.515C41.2594 119.499 41.2722 119.478 41.2797 119.456C41.2873 119.433 41.2893 119.409 41.2856 119.386L39.3656 108.394C39.361 108.37 39.3507 108.347 39.3357 108.328C39.3207 108.309 39.3013 108.294 39.2792 108.283C39.2576 108.272 39.2338 108.267 39.2096 108.267C39.1854 108.267 39.1616 108.272 39.14 108.283L30.38 113.237L30.1208 112.963C29.6515 112.468 29.0859 112.073 28.4585 111.804C27.8312 111.535 27.1554 111.397 26.4728 111.399L26.4584 111.379Z" fill="#455A64"/>
<path d="M45.9465 128.558C45.9146 128.458 45.8921 128.355 45.8793 128.251C45.8361 128.021 45.7833 127.728 45.7113 127.368C45.5673 126.566 45.3657 125.448 45.1161 124.104C44.6361 121.325 43.9449 117.533 43.1961 113.342C42.4473 109.152 41.8089 105.35 41.3289 102.561C41.1033 101.208 40.9209 100.099 40.7913 99.2927C40.7337 98.9279 40.6905 98.6303 40.6569 98.3999C40.6344 98.2975 40.6247 98.1927 40.6281 98.0879C40.6607 98.1868 40.6864 98.2878 40.7049 98.3903C40.7529 98.6207 40.8153 98.9135 40.8873 99.2735C41.0409 100.075 41.2521 101.193 41.5065 102.533C42.0201 105.283 42.7065 109.089 43.4265 113.294C44.1465 117.499 44.8185 121.315 45.2697 124.075C45.5001 125.457 45.6729 126.576 45.7881 127.349C45.8409 127.737 45.8889 128.035 45.9081 128.246C45.9337 128.348 45.9466 128.453 45.9465 128.558Z" fill="#455A64"/>
<path d="M33.8359 130.973C33.8074 130.87 33.785 130.766 33.7687 130.661C33.7255 130.435 33.6727 130.142 33.6055 129.778C33.4567 128.976 33.2551 127.858 33.0055 126.518C32.5255 123.734 31.8343 119.942 31.0855 115.752C30.3367 111.562 29.7031 107.76 29.2183 104.976C28.9927 103.618 28.8103 102.509 28.6807 101.707C28.6231 101.338 28.5799 101.045 28.5463 100.814C28.5238 100.71 28.5141 100.604 28.5175 100.498C28.5539 100.597 28.5812 100.7 28.5991 100.805C28.6423 101.035 28.7047 101.328 28.7767 101.688C28.9303 102.49 29.1415 103.608 29.3959 104.942C29.9095 107.698 30.5959 111.499 31.3159 115.709C32.0359 119.918 32.7079 123.725 33.1639 126.485C33.3895 127.867 33.5671 128.986 33.6775 129.763C33.7303 130.152 33.7783 130.45 33.7975 130.656C33.8231 130.76 33.836 130.866 33.8359 130.973Z" fill="#455A64"/>
<path d="M88.8201 100.455C88.611 100.614 88.3895 100.757 88.1577 100.882L86.3049 101.971C84.7305 102.883 82.5465 104.127 80.1273 105.49L80.0841 105.514H80.0409H79.9401C77.1801 105.034 74.6601 104.554 72.8841 104.223L70.7481 103.805C70.4836 103.764 70.2234 103.7 69.9705 103.613C70.2378 103.625 70.5041 103.655 70.7673 103.704L72.9129 104.045C74.7273 104.343 77.2329 104.775 79.9881 105.264H80.0841H79.9977C82.4217 103.906 84.6201 102.687 86.2377 101.813L88.1337 100.795C88.3514 100.661 88.5812 100.547 88.8201 100.455Z" fill="#263238"/>
<path d="M98.2231 62.9618L48.0663 70.8879C47.451 70.9851 47.0731 71.8297 47.2224 72.7742L47.4823 74.4189C47.6316 75.3634 48.2514 76.0503 48.8667 75.953L99.0235 68.0269C99.6389 67.9297 100.017 67.0852 99.8675 66.1406L99.6076 64.4959C99.4583 63.5514 98.8385 62.8645 98.2231 62.9618Z" fill="#E0E0E0" fill-opacity="0.9"/>
<path d="M53.995 71.3908C53.0065 71.5505 52.1341 71.5672 51.3777 71.4408C50.6198 71.3048 50.0055 71.0112 49.5349 70.5602C49.0626 70.0995 48.7599 69.4573 48.6268 68.6335L48.6127 68.5463L51.3457 68.1046L51.3951 68.4099C51.4295 68.6231 51.5005 68.7856 51.6081 68.8975C51.7238 68.9982 51.931 69.0492 52.2296 69.0507C52.5281 69.0522 52.9827 69.0036 53.5933 68.9049C54.1457 68.8156 54.5504 68.7353 54.8074 68.6639C55.0628 68.5829 55.2181 68.4981 55.2735 68.4096C55.3369 68.3098 55.3569 68.1873 55.3334 68.0419C55.3052 67.8674 55.2162 67.7476 55.0664 67.6823C54.9263 67.6154 54.6537 67.5899 54.2485 67.6056L51.1299 67.692C50.5149 67.7019 49.9851 67.6234 49.5404 67.4566C49.0942 67.2801 48.7381 67.0144 48.4719 66.6597C48.2057 66.3049 48.0303 65.8658 47.9457 65.3425C47.8831 64.9548 47.9036 64.5587 48.0073 64.1541C48.1109 63.7495 48.3226 63.3672 48.6424 63.0073C48.9605 62.6376 49.4052 62.3122 49.9763 62.0309C50.5474 61.7497 51.2739 61.5378 52.1559 61.3952C53.1928 61.2276 54.0692 61.2352 54.7849 61.4179C55.5087 61.5893 56.0785 61.9149 56.4941 62.3946C56.9179 62.8632 57.1886 63.4609 57.306 64.1877L57.3201 64.275L54.5871 64.7167L54.5519 64.4986C54.5143 64.266 54.4312 64.0905 54.3027 63.972C54.1838 63.852 53.9646 63.788 53.6451 63.78C53.3353 63.7704 52.8751 63.8149 52.2645 63.9136C51.7993 63.9888 51.4495 64.0702 51.215 64.1578C50.979 64.2357 50.8196 64.3261 50.7368 64.429C50.6636 64.5303 50.6388 64.6537 50.6623 64.799C50.678 64.8959 50.7115 64.98 50.7628 65.0513C50.8222 65.1113 50.9035 65.1529 51.0067 65.176C51.1195 65.1975 51.2655 65.2087 51.4447 65.2096L54.5704 65.1669C55.3839 65.1547 56.0322 65.2588 56.5153 65.4791C56.9968 65.6896 57.3562 65.9747 57.5933 66.3341C57.8304 66.6936 57.9826 67.0817 58.0499 67.4984C58.1392 68.0508 58.068 68.5944 57.8361 69.1291C57.6124 69.6526 57.1905 70.1185 56.5704 70.527C55.9486 70.9259 55.0902 71.2138 53.995 71.3908ZM63.3221 69.8834C62.4596 70.0228 61.6842 69.9939 60.996 69.7969C60.3062 69.5901 59.7407 69.229 59.2994 68.7136C58.8581 68.1982 58.574 67.548 58.4471 66.763C58.3187 65.9683 58.3835 65.2617 58.6415 64.6432C58.898 64.015 59.3218 63.499 59.9129 63.0952C60.5024 62.6816 61.2284 62.4052 62.091 62.2658C62.9245 62.1311 63.6684 62.1501 64.3228 62.3228C64.9854 62.4842 65.5206 62.7806 65.9284 63.2119C66.3459 63.6417 66.6079 64.186 66.7145 64.8451L66.7521 65.0777L64.0336 65.517L64.0148 65.4007C63.9537 65.0227 63.7829 64.7968 63.5024 64.7227C63.2317 64.6472 62.8734 64.6454 62.4276 64.7175C61.9236 64.7989 61.5646 64.9464 61.3505 65.16C61.1348 65.364 61.0732 65.7518 61.1656 66.3236C61.2564 66.8857 61.4371 67.2344 61.7076 67.3697C61.9765 67.4953 62.3629 67.5174 62.8669 67.4359C63.3127 67.3639 63.653 67.2542 63.8878 67.1069C64.1306 66.9483 64.2215 66.68 64.1604 66.302L64.1393 66.1712L66.8578 65.7318L66.8977 65.979C67.0027 66.6283 66.9247 67.2227 66.6638 67.7621C66.4126 68.2999 65.9988 68.7546 65.4224 69.1262C64.8557 69.4963 64.1556 69.7487 63.3221 69.8834ZM70.8615 68.5157L68.1284 68.9574L66.9443 61.6306L69.5029 61.2171L69.8412 63.3105L70.0274 63.355L70.8615 68.5157ZM70.1543 64.14L69.6455 64.2222L69.4786 63.1901L69.9584 63.1125C69.9604 62.6945 70.0333 62.3148 70.177 61.9733C70.3207 61.6319 70.5432 61.3473 70.8446 61.1196C71.1556 60.8903 71.5534 60.7365 72.0379 60.6582C72.5807 60.5705 73.0348 60.6115 73.4003 60.7811C73.7643 60.9411 74.0495 61.1983 74.256 61.5528C74.4721 61.9057 74.6202 62.3293 74.7 62.8235L74.935 64.2773L72.202 64.719L72.0634 63.8613C72.0132 63.5511 71.9109 63.3489 71.7565 63.2545C71.6004 63.1505 71.3431 63.1274 70.9845 63.1854C70.6162 63.2449 70.3744 63.3486 70.2591 63.4965C70.1422 63.6347 70.1073 63.8492 70.1543 64.14ZM78.8116 67.2308L76.0785 67.6725L74.8944 60.3457L77.6274 59.904L78.8116 67.2308ZM77.5194 59.2353L74.7863 59.677L74.5044 57.9325L77.2374 57.4908L77.5194 59.2353ZM85.3485 66.3235C84.4859 66.4629 83.8068 66.3838 83.3112 66.086C82.814 65.7785 82.4627 65.3281 82.2574 64.7347L81.8359 64.8029L81.5633 63.1165L81.8395 63.0719C81.8944 63.4111 81.9996 63.6626 82.1554 63.8264C82.3193 63.9789 82.5375 64.0679 82.8102 64.0935C83.0909 64.1078 83.4348 64.082 83.8419 64.0162C84.2683 63.9473 84.5956 63.8497 84.8238 63.7233C85.0617 63.5953 85.2183 63.4258 85.2936 63.2148C85.3688 63.0037 85.3806 62.7383 85.3289 62.4184C85.2757 62.0889 85.1809 61.8407 85.0445 61.6738C84.9066 61.4972 84.7054 61.3905 84.4408 61.3537C84.1845 61.3056 83.843 61.316 83.4166 61.385C82.806 61.4836 82.3639 61.6396 82.09 61.8529C81.8259 62.0647 81.7369 62.4371 81.8231 62.9701L81.5469 63.0148L81.0732 61.3759L81.5238 61.303C81.5227 60.5574 81.7224 59.9781 82.1231 59.5653C82.5222 59.1428 83.1482 58.8626 84.001 58.7248C84.7473 58.6042 85.4023 58.6574 85.9661 58.8845C86.538 59.1004 87.001 59.4731 87.3551 60.0026C87.7173 60.5208 87.9626 61.1773 88.091 61.972C88.2195 62.7667 88.1991 63.4711 88.0298 64.0852C87.859 64.6896 87.5466 65.1876 87.0928 65.5792C86.6471 65.9595 86.0656 66.2076 85.3485 66.3235ZM82.8169 69.1194L80.0839 69.5611L78.5004 59.7629L81.0589 59.3494L81.3925 61.4137L81.5975 61.5745L82.8169 69.1194ZM94.8898 64.6324L92.9708 64.9425C92.0598 65.0897 91.3058 64.9779 90.7089 64.6069C90.1216 64.2345 89.7512 63.5733 89.5977 62.6236L88.6603 56.8232L91.3933 56.3815L92.2673 61.7893C92.3143 62.0801 92.3989 62.2653 92.5212 62.345C92.6532 62.4231 92.8742 62.4371 93.1843 62.387L94.4927 62.1755L94.8898 64.6324ZM94.0674 59.5443L88.1507 60.5005L87.7889 58.2618L93.7056 57.3055L94.0674 59.5443Z" fill="#263238"/>
<path d="M96.1063 156.418H137.031V177.893H96.1063C93.8594 177.893 91.7045 177.001 90.1157 175.412C88.5269 173.823 87.6343 171.668 87.6343 169.421V164.885C87.6343 162.638 88.5269 160.483 90.1157 158.894C91.7045 157.306 93.8594 156.413 96.1063 156.413V156.418Z" fill="#7163DE"/>
<path d="M126.332 156.418H212.66C213.033 156.418 213.391 156.566 213.655 156.83C213.918 157.094 214.066 157.451 214.066 157.824V158.578C214.066 158.951 213.918 159.309 213.655 159.572C213.391 159.836 213.033 159.984 212.66 159.984H126.332V156.418Z" fill="#7163DE"/>
<path d="M126.332 174.332H212.66C212.845 174.332 213.028 174.368 213.198 174.439C213.369 174.509 213.524 174.613 213.655 174.743C213.785 174.874 213.889 175.029 213.959 175.2C214.03 175.37 214.066 175.553 214.066 175.738V176.492C214.066 176.865 213.918 177.222 213.655 177.486C213.391 177.75 213.033 177.898 212.66 177.898H126.332V174.332Z" fill="#7163DE"/>
<path d="M211.441 174.332H136.124C135.182 174.332 134.249 174.146 133.378 173.785C132.508 173.425 131.717 172.896 131.051 172.229C130.385 171.563 129.857 170.772 129.497 169.901C129.137 169.031 128.952 168.098 128.953 167.156C128.953 165.254 129.708 163.43 131.053 162.085C132.398 160.74 134.222 159.984 136.124 159.984H211.441C210.443 162.244 209.927 164.688 209.927 167.158C209.927 169.628 210.443 172.072 211.441 174.332Z" fill="#F5F5F5"/>
<path opacity="0.3" d="M128.953 177.898H96.2743C93.9828 177.898 91.7852 176.988 90.1649 175.367C88.5446 173.747 87.6343 171.549 87.6343 169.258V164.991C87.6343 162.717 88.5375 160.537 90.1452 158.929C91.7529 157.321 93.9334 156.418 96.2071 156.418H129.764C121.993 161.132 122.573 172.412 128.953 177.898Z" fill="black"/>
<path d="M202.292 167.822C202.292 167.894 186.831 167.952 167.766 167.952C148.7 167.952 133.239 167.894 133.239 167.822C133.239 167.75 148.695 167.693 167.766 167.693C186.836 167.693 202.292 167.75 202.292 167.822Z" fill="#263238"/>
<path d="M209.396 171.01C209.396 171.082 193.935 171.14 174.87 171.14C155.804 171.14 140.343 171.082 140.343 171.01C140.343 170.938 155.799 170.885 174.87 170.885C193.94 170.885 209.396 170.943 209.396 171.01Z" fill="#263238"/>
<path d="M207.303 163.301C207.303 163.373 191.842 163.431 172.777 163.431C153.711 163.431 138.246 163.373 138.246 163.301C138.246 163.229 153.702 163.171 172.777 163.171C191.852 163.171 207.303 163.239 207.303 163.301Z" fill="#263238"/>
<path d="M125.17 176.391C125.17 176.463 117.932 176.52 109.009 176.52C100.086 176.52 92.8472 176.463 92.8472 176.391C92.8472 176.319 100.081 176.261 109.009 176.261C117.937 176.261 125.17 176.319 125.17 176.391Z" fill="#263238"/>
<path d="M125.17 158.203C125.17 158.275 117.932 158.333 109.009 158.333C100.086 158.333 92.8472 158.275 92.8472 158.203C92.8472 158.131 100.081 158.074 109.009 158.074C117.937 158.074 125.17 158.131 125.17 158.203Z" fill="#263238"/>
<path d="M78.0391 192.97H133.186V220.627H78.0391C75.7922 220.627 73.6373 219.735 72.0485 218.146C70.4597 216.557 69.5671 214.402 69.5671 212.155V201.442C69.5671 199.195 70.4597 197.04 72.0485 195.451C73.6373 193.862 75.7922 192.97 78.0391 192.97Z" fill="#7163DE"/>
<path d="M119.406 192.97H230.972C231.345 192.97 231.703 193.118 231.966 193.382C232.23 193.645 232.378 194.003 232.378 194.376V196.157C232.378 196.53 232.23 196.888 231.966 197.151C231.703 197.415 231.345 197.563 230.972 197.563H119.406V192.97Z" fill="#7163DE"/>
<path d="M119.406 216.039H230.972C231.345 216.039 231.703 216.187 231.966 216.451C232.23 216.714 232.378 217.072 232.378 217.445V219.226C232.378 219.599 232.23 219.956 231.966 220.22C231.703 220.484 231.345 220.632 230.972 220.632H119.406V216.039Z" fill="#7163DE"/>
<path d="M229.009 216.039H132.02C129.57 216.037 127.221 215.063 125.489 213.331C123.758 211.598 122.785 209.248 122.785 206.799C122.785 205.586 123.024 204.385 123.488 203.265C123.952 202.144 124.632 201.126 125.49 200.268C126.347 199.411 127.365 198.731 128.486 198.266C129.606 197.802 130.807 197.563 132.02 197.563H229.009C227.722 200.473 227.058 203.62 227.058 206.801C227.058 209.983 227.722 213.129 229.009 216.039Z" fill="#F5F5F5"/>
<path opacity="0.3" d="M122.775 220.627H77.9288C76.831 220.627 75.7439 220.411 74.7297 219.991C73.7155 219.57 72.794 218.954 72.018 218.178C71.2419 217.401 70.6265 216.48 70.2068 215.465C69.7871 214.451 69.5714 213.364 69.572 212.266V201.639C69.572 199.347 70.4823 197.149 72.1026 195.529C73.7229 193.909 75.9206 192.999 78.212 192.999H123.812C113.814 199.037 114.562 213.567 122.775 220.627Z" fill="black"/>
<path d="M217.225 207.658C217.225 207.73 197.314 207.788 172.762 207.788C148.21 207.788 128.295 207.73 128.295 207.658C128.295 207.586 148.201 207.528 172.762 207.528C197.324 207.528 217.225 207.586 217.225 207.658Z" fill="#263238"/>
<path d="M226.378 211.762C226.378 211.834 206.468 211.892 181.911 211.892C157.354 211.892 137.444 211.834 137.444 211.762C137.444 211.69 157.349 211.637 181.911 211.637C206.473 211.637 226.378 211.719 226.378 211.762Z" fill="#263238"/>
<path d="M223.7 203.847C223.7 203.919 203.794 203.976 179.237 203.976C154.681 203.976 134.77 203.919 134.77 203.847C134.77 203.775 154.676 203.717 179.237 203.717C203.799 203.717 223.7 203.775 223.7 203.847Z" fill="#263238"/>
<path d="M117.903 218.688C117.903 218.76 108.586 218.818 97.0904 218.818C85.5944 218.818 76.2776 218.76 76.2776 218.688C76.2776 218.616 85.5944 218.563 97.0904 218.563C108.586 218.563 117.903 218.621 117.903 218.688Z" fill="#263238"/>
<path d="M117.903 195.269C117.903 195.336 108.586 195.394 97.0904 195.394C85.5944 195.394 76.2776 195.336 76.2776 195.269C76.2776 195.202 85.5944 195.14 97.0904 195.14C108.586 195.14 117.903 195.197 117.903 195.269Z" fill="#263238"/>
<path d="M104.266 177.235H149.703V193.075H104.266C102.611 193.075 101.024 192.418 99.854 191.248C98.6838 190.077 98.0264 188.49 98.0264 186.835V183.475C98.0264 181.82 98.6838 180.233 99.854 179.063C101.024 177.893 102.611 177.235 104.266 177.235Z" fill="#455A64"/>
<path d="M138.51 177.235H228.826C229.217 177.235 229.592 177.391 229.868 177.667C230.145 177.943 230.3 178.318 230.3 178.709V179.496C230.3 179.887 230.145 180.262 229.868 180.538C229.592 180.815 229.217 180.97 228.826 180.97H138.51V177.24V177.235Z" fill="#455A64"/>
<path d="M138.51 189.341H228.826C229.217 189.341 229.592 189.497 229.868 189.773C230.145 190.049 230.3 190.424 230.3 190.815V191.602C230.3 191.993 230.145 192.368 229.868 192.644C229.592 192.92 229.217 193.076 228.826 193.076H138.51V189.346V189.341Z" fill="#455A64"/>
<path d="M227.54 189.341H145.46C144.349 189.341 143.284 188.9 142.499 188.115C141.713 187.33 141.271 186.266 141.27 185.155C141.27 184.044 141.711 182.978 142.497 182.192C143.283 181.406 144.349 180.965 145.46 180.965H227.54C225.441 183.758 225.441 186.55 227.54 189.341Z" fill="#F5F5F5"/>
<path opacity="0.3" d="M141.246 193.071H104.286C103.46 193.071 102.643 192.908 101.88 192.592C101.117 192.276 100.425 191.813 99.841 191.229C99.2575 190.645 98.7948 189.951 98.4793 189.189C98.1639 188.426 98.0018 187.608 98.0024 186.783V183.653C98.0018 182.81 98.1672 181.976 98.4892 181.197C98.8112 180.419 99.2835 179.711 99.879 179.115C100.475 178.519 101.182 178.047 101.96 177.724C102.738 177.401 103.573 177.235 104.415 177.235H142.1C133.964 180.711 134.574 189.029 141.246 193.071Z" fill="black"/>
<path d="M217.983 184.493C217.983 184.565 201.807 184.623 181.858 184.623C161.91 184.623 145.734 184.565 145.734 184.493C145.734 184.421 161.905 184.368 181.858 184.368C201.812 184.368 217.983 184.426 217.983 184.493Z" fill="#263238"/>
<path d="M225.418 186.759C225.418 186.831 209.242 186.888 189.294 186.888C169.345 186.888 153.169 186.831 153.169 186.759C153.169 186.687 169.34 186.629 189.294 186.629C209.247 186.629 225.418 186.677 225.418 186.759Z" fill="#263238"/>
<path d="M137.3 191.496C137.3 191.568 129.73 191.626 120.39 191.626C111.049 191.626 103.479 191.568 103.479 191.496C103.479 191.424 111.049 191.367 120.39 191.367C129.73 191.367 137.3 191.424 137.3 191.496Z" fill="#263238"/>
<path d="M137.3 179.103C137.3 179.175 129.73 179.228 120.39 179.228C111.049 179.228 103.479 179.175 103.479 179.103C103.479 179.031 111.049 178.973 120.39 178.973C129.73 178.973 137.3 179.031 137.3 179.103Z" fill="#263238"/>
<path d="M229.22 177.236C229.22 177.308 201.442 177.365 167.189 177.365C132.937 177.365 105.14 177.308 105.14 177.236C105.14 177.164 132.908 177.106 167.175 177.106C201.442 177.106 229.22 177.159 229.22 177.236Z" fill="#263238"/>
<path d="M179.41 163.066V171.668L182.391 169.757L185.713 171.668V163.066H179.41Z" fill="#7163DE"/>
<path d="M209.703 77.688L194.694 90.192L171.865 135.293L186.097 141.725L208.302 97.4928L209.703 77.688Z" fill="#7163DE"/>
<g opacity="0.7">
<path d="M208.302 97.4786C208.128 97.5216 207.946 97.5238 207.771 97.4851C207.596 97.4463 207.433 97.3676 207.293 97.2551C207.154 97.1426 207.042 96.9994 206.968 96.8367C206.893 96.674 206.856 96.4961 206.862 96.317C206.388 96.8682 205.754 97.2571 205.048 97.429C204.342 97.6009 203.6 97.5472 202.926 97.2754C202.252 97.0036 201.68 96.5274 201.291 95.9138C200.902 95.3002 200.715 94.5801 200.756 93.8546C200.124 94.1952 199.412 94.3614 198.694 94.3363C197.976 94.3111 197.278 94.0955 196.67 93.7116C196.063 93.3277 195.569 92.7892 195.239 92.1513C194.908 91.5135 194.753 90.7993 194.79 90.0818L209.67 77.6738L208.302 97.4786Z" fill="white"/>
</g>
<path d="M203.665 82.7184C203.665 82.7184 203.895 86.4528 209.127 85.8L209.703 77.688L203.665 82.7184Z" fill="#7163DE"/>
<path opacity="0.3" d="M200.775 93.8691L178.767 138.168L171.865 135.288L194.694 90.1683L194.809 90.0723C194.775 90.6737 194.88 91.2749 195.116 91.8291C195.431 92.5566 195.943 93.1817 196.594 93.6339C197.394 94.18 198.364 94.4171 199.326 94.3011C199.831 94.2466 200.322 94.1002 200.775 93.8691Z" fill="black"/>
<path opacity="0.3" d="M206.9 96.3315L184.292 140.9L186.116 141.725L208.302 97.4787C208.001 97.5335 207.69 97.4744 207.43 97.3129C207.17 97.1515 206.98 96.8992 206.895 96.6051C206.888 96.514 206.889 96.4224 206.9 96.3315Z" fill="black"/>
<path d="M200.66 89.5682C200.613 89.6233 200.586 89.6926 200.583 89.765C200.584 89.8698 200.624 89.9707 200.695 90.0478C200.766 90.125 200.863 90.173 200.967 90.1826C201.308 90.1976 201.644 90.1034 201.927 89.9138C202.106 89.8087 202.249 89.6512 202.335 89.4626C202.383 89.3604 202.404 89.2479 202.396 89.1354C202.389 89.0229 202.353 88.9142 202.292 88.8194C202.213 88.7212 202.114 88.6409 202.001 88.5838C201.889 88.5267 201.765 88.4941 201.639 88.4882C201.362 88.4639 201.082 88.4801 200.809 88.5362C200.198 88.6379 199.614 88.8651 199.095 89.2034C198.957 89.2886 198.838 89.4026 198.747 89.5375C198.656 89.6724 198.594 89.8253 198.567 89.9858C198.56 90.1538 198.594 90.3209 198.667 90.4725C198.74 90.624 198.849 90.7553 198.985 90.8546C199.3 91.0359 199.649 91.1522 200.01 91.1967C200.371 91.2412 200.737 91.213 201.087 91.1138C201.782 90.9677 202.423 90.6334 202.94 90.1475C203.457 89.6615 203.831 89.0427 204.02 88.3586C204.052 88.2073 204.049 88.0506 204.011 87.9007C203.973 87.7508 203.9 87.6118 203.799 87.4946C203.596 87.2767 203.342 87.1119 203.06 87.0146C202.553 86.8288 202.02 86.722 201.481 86.6978C200.694 86.6563 199.907 86.7739 199.167 87.0434C198.908 87.1394 198.687 87.2306 198.577 87.293C198.466 87.3554 198.375 87.389 198.375 87.389C198.621 87.2334 198.881 87.1031 199.153 87.0002C199.895 86.7163 200.687 86.5872 201.481 86.621C202.031 86.6395 202.575 86.7431 203.094 86.9282C203.39 87.0302 203.657 87.2032 203.871 87.4322C203.984 87.562 204.066 87.7163 204.109 87.8829C204.152 88.0494 204.156 88.2238 204.121 88.3922C203.873 89.2831 203.325 90.0608 202.569 90.5936C201.813 91.1263 200.896 91.3814 199.974 91.3154C199.596 91.2958 199.231 91.1693 198.922 90.9506C198.768 90.844 198.643 90.7001 198.559 90.5322C198.475 90.3644 198.435 90.1781 198.442 89.9906C198.472 89.8154 198.539 89.6485 198.638 89.5012C198.737 89.3538 198.867 89.2294 199.018 89.1362C199.551 88.7911 200.149 88.5606 200.775 88.4594C201.058 88.4062 201.348 88.3932 201.634 88.421C201.771 88.4292 201.904 88.4664 202.025 88.5301C202.146 88.5938 202.251 88.6826 202.335 88.7906C202.402 88.8967 202.44 89.0177 202.448 89.1427C202.455 89.2676 202.432 89.3925 202.378 89.5058C202.285 89.7068 202.133 89.8743 201.942 89.9858C201.65 90.1741 201.304 90.2633 200.958 90.2402C200.845 90.2293 200.741 90.1762 200.666 90.0916C200.591 90.0069 200.551 89.8971 200.554 89.7842C200.578 89.6066 200.66 89.5634 200.66 89.5682Z" fill="white"/>
<path d="M208.714 89.3188C208.714 89.3188 208.494 89.2852 208.1 89.3188C207.539 89.3556 206.991 89.5024 206.487 89.7508C205.746 90.1311 205.05 90.5949 204.414 91.1332C203.639 91.8149 202.757 92.3631 201.802 92.7556C200.818 93.094 199.756 93.1341 198.75 92.8708C197.93 92.6545 197.176 92.239 196.556 91.6612C196.136 91.2626 195.787 90.7951 195.524 90.2788C195.424 90.0978 195.341 89.9083 195.274 89.7124C195.302 89.757 195.326 89.8035 195.346 89.8516C195.39 89.9476 195.462 90.0868 195.558 90.2596C195.839 90.7449 196.193 91.1837 196.609 91.5604C197.225 92.1208 197.968 92.5228 198.774 92.7316C199.763 92.9803 200.803 92.9369 201.769 92.6068C202.711 92.2197 203.583 91.6814 204.351 91.0132C204.994 90.4723 205.7 90.0114 206.454 89.6404C206.966 89.3915 207.526 89.2525 208.095 89.2324C208.304 89.2347 208.513 89.2638 208.714 89.3188Z" fill="white"/>
<path d="M208.628 93.8164C208.353 93.5374 207.987 93.367 207.596 93.3364C206.647 93.328 205.703 93.4673 204.798 93.7492C203.88 93.9966 202.986 94.3276 202.129 94.738C201.798 94.8964 201.538 95.0356 201.356 95.1268C201.266 95.1838 201.172 95.232 201.073 95.2708C201.156 95.2054 201.245 95.1461 201.337 95.0932C201.51 94.9876 201.769 94.834 202.095 94.6708C202.948 94.2352 203.844 93.8909 204.769 93.6436C205.277 93.5044 205.793 93.3954 206.314 93.3172C206.74 93.2394 207.175 93.2216 207.606 93.2644C207.9 93.2958 208.179 93.4089 208.412 93.5908C208.494 93.6552 208.567 93.7312 208.628 93.8164Z" fill="white"/>
<path d="M202.397 96.9986C202.543 96.8468 202.704 96.7101 202.877 96.5906C203.305 96.2764 203.797 96.0601 204.317 95.957C204.578 95.9039 204.847 95.9094 205.106 95.9734C205.364 96.0373 205.605 96.158 205.81 96.3266C205.933 96.4305 206.035 96.5557 206.113 96.6962C206.142 96.7467 206.161 96.802 206.17 96.8594C206.059 96.6797 205.922 96.5179 205.762 96.3794C205.559 96.2263 205.325 96.1184 205.077 96.0629C204.829 96.0075 204.571 96.0057 204.322 96.0578C203.822 96.163 203.348 96.3652 202.925 96.653C202.756 96.7784 202.58 96.8938 202.397 96.9986Z" fill="white"/>
<path d="M209.108 86.6064C209.087 86.63 209.062 86.6509 209.036 86.6688C208.988 86.7024 208.916 86.7552 208.815 86.8176C208.698 86.9003 208.566 86.959 208.426 86.9904C208.238 87.0239 208.044 87.0124 207.86 86.9568C207.452 86.8656 206.996 86.6592 206.482 86.4768C205.926 86.2877 205.354 86.1448 204.774 86.0496C203.71 85.8953 202.637 85.8231 201.562 85.8336H200.602C200.483 85.8457 200.362 85.8457 200.242 85.8336L200.602 85.8048L201.562 85.7712C202.641 85.7372 203.721 85.7998 204.788 85.9584C205.377 86.0514 205.955 86.1992 206.516 86.4C207.034 86.5824 207.476 86.7936 207.879 86.88C208.03 86.9343 208.19 86.9535 208.349 86.936C208.508 86.9186 208.661 86.8649 208.796 86.7792C208.897 86.7165 209.001 86.6588 209.108 86.6064Z" fill="white"/>
<path d="M225.015 127.368V166.685C225.025 166.76 225.061 166.83 225.118 166.88C225.175 166.93 225.249 166.958 225.325 166.958C225.401 166.958 225.474 166.93 225.531 166.88C225.589 166.83 225.625 166.76 225.635 166.685V127.368C225.625 127.293 225.589 127.223 225.531 127.173C225.474 127.123 225.401 127.095 225.325 127.095C225.249 127.095 225.175 127.123 225.118 127.173C225.061 127.223 225.025 127.293 225.015 127.368Z" fill="#7163DE"/>
<path d="M227.54 158.021C227.54 158.459 227.41 158.888 227.166 159.253C226.923 159.618 226.576 159.902 226.171 160.07C225.766 160.237 225.32 160.281 224.89 160.196C224.46 160.11 224.065 159.899 223.754 159.589C223.444 159.279 223.233 158.884 223.148 158.453C223.062 158.023 223.106 157.577 223.274 157.172C223.442 156.767 223.726 156.421 224.091 156.177C224.455 155.933 224.884 155.803 225.323 155.803C225.911 155.803 226.475 156.037 226.891 156.453C227.307 156.869 227.54 157.433 227.54 158.021Z" fill="#7163DE"/>
<path d="M224.708 159.168C224.708 159.168 223.091 160.786 222.606 165.523C222.121 170.261 222.015 172.627 222.015 172.627L226.374 172.896V169.507C226.374 169.666 227.238 172.037 227.238 172.037L230.684 170.904C230.684 170.904 229.46 158.309 224.708 159.168Z" fill="#7163DE"/>
<path d="M202.038 130.584H128.022V157.268H202.038V130.584Z" fill="#263238"/>
<path d="M228.035 125.996H101.435V130.589H228.035V125.996Z" fill="#263238"/>
<path opacity="0.3" d="M128.022 149.698C128.022 149.698 150.505 141.634 165.03 138.658C179.555 135.682 202.038 136.671 202.038 136.671V130.599H128.022V149.698Z" fill="black"/>
<path opacity="0.3" d="M147.227 125.996H101.435V130.589H147.227V125.996Z" fill="black"/>
<path d="M227.118 130.598C227.118 130.67 198.966 130.728 164.238 130.728C129.51 130.728 101.358 130.67 101.358 130.598C101.358 130.526 129.5 130.474 164.238 130.474C198.975 130.474 227.118 130.517 227.118 130.598Z" fill="#455A64"/>
<path d="M147.154 130.623C146.982 129.072 146.982 127.507 147.154 125.957C147.321 127.508 147.321 129.072 147.154 130.623Z" fill="#455A64"/>
<path d="M157.71 157.272C157.643 157.272 157.585 152.064 157.585 145.642C157.585 139.219 157.643 134.016 157.71 134.016C157.777 134.016 157.839 139.219 157.839 145.642C157.839 152.064 157.782 157.272 157.71 157.272Z" fill="#455A64"/>
<path d="M50.6362 190.042L59.1466 186.605L65.6458 169.627L74.3098 174.091C74.3098 174.091 73.4746 175.767 71.6842 179.919C70.9882 181.517 68.6986 185.986 67.7674 188.16C66.9056 190.171 65.4861 191.892 63.6769 193.121C61.8676 194.35 59.7442 195.036 57.5578 195.096L49.5706 195.303L50.6362 190.042Z" fill="#FFBF9D"/>
<path d="M46.4072 186.758L45.14 185.405C44.8938 185.243 44.604 185.161 44.3096 185.17L40.2392 185.294C39.8592 185.331 39.4924 185.453 39.1658 185.65C38.8393 185.848 38.5614 186.117 38.3528 186.437L36.8696 188.957C36.8696 188.957 35.876 190.68 36.0008 191.102C36.0564 191.278 36.175 191.426 36.3336 191.519C36.4923 191.612 36.6798 191.643 36.86 191.606C36.86 191.606 37.004 192.403 37.268 192.566C37.4209 192.643 37.5877 192.688 37.7584 192.699C37.9292 192.71 38.1004 192.686 38.2616 192.629C38.3317 192.78 38.4456 192.907 38.5885 192.992C38.7315 193.078 38.8969 193.118 39.0632 193.109C39.1346 193.102 39.2053 193.089 39.2744 193.07C39.7544 192.922 39.9752 191.986 39.9752 191.986L42.0392 191.606C42.0392 191.606 45.0056 193.589 46.052 194.885C47.0984 196.181 49.8344 195.192 49.8344 195.192L50.8568 190.296L46.4072 186.758Z" fill="#FFBF9D"/>
<path d="M43.4074 187.339C43.1179 187.429 42.8175 187.479 42.5146 187.488C41.953 187.551 41.161 187.575 40.2634 187.69L40.3594 187.618C40.2051 187.949 40.0287 188.27 39.8314 188.578C39.2893 189.438 38.6302 190.218 37.873 190.896C37.5755 191.195 37.2299 191.442 36.8506 191.626C36.8506 191.592 37.2106 191.304 37.7482 190.762C38.4541 190.06 39.0803 189.283 39.6154 188.443C39.8122 188.122 39.9898 187.805 40.1386 187.483L40.1674 187.421H40.2346C41.1514 187.32 41.9434 187.33 42.505 187.311C42.806 187.289 43.1084 187.299 43.4074 187.339Z" fill="#FF9A6C"/>
<path d="M43.4984 189.283C43.2582 189.401 42.9972 189.469 42.7304 189.485C42.0675 189.577 41.3937 189.554 40.7384 189.418L40.8872 189.336C40.8009 189.588 40.7015 189.834 40.5896 190.075C40.2185 190.841 39.6979 191.525 39.0584 192.087C38.8088 192.334 38.5116 192.528 38.1848 192.658C38.4217 192.409 38.6717 192.174 38.9336 191.952C39.5253 191.377 40.0126 190.703 40.3736 189.96C40.4846 189.731 40.5824 189.495 40.6664 189.255L40.7048 189.149H40.8104C41.6963 189.315 42.6005 189.36 43.4984 189.283Z" fill="#FF9A6C"/>
<path d="M48.673 190.286L45.0394 188.597C44.5518 188.325 44.0116 188.162 43.4554 188.117C42.8604 188.169 42.2863 188.361 41.7802 188.678L39.8218 189.686C39.7162 189.744 39.601 189.811 39.5674 189.922C39.5338 190.032 39.625 190.224 39.7354 190.334C40.2409 190.813 40.9025 191.092 41.5978 191.12C42.2931 191.148 42.9751 190.924 43.5178 190.488C43.7829 191.353 44.1972 192.165 44.7418 192.888C45.0203 193.25 45.3874 193.535 45.8078 193.714C46.2282 193.893 46.6876 193.96 47.1418 193.91" fill="#FFBF9D"/>
<path d="M47.1322 193.958C47.102 193.973 47.0695 193.983 47.0362 193.987C46.9387 194.011 46.8389 194.024 46.7386 194.026C46.3573 194.027 45.9814 193.935 45.6442 193.757C45.1218 193.484 44.6787 193.08 44.3578 192.586C43.9594 191.95 43.6372 191.271 43.3978 190.56L43.5802 190.603C43.2886 190.848 42.9514 191.033 42.5881 191.146C42.2247 191.26 41.8425 191.301 41.4634 191.266C41.0512 191.237 40.6493 191.125 40.2826 190.934C40.0948 190.835 39.9192 190.714 39.7594 190.574C39.6727 190.503 39.5939 190.423 39.5242 190.334C39.4789 190.28 39.4464 190.216 39.429 190.147C39.4115 190.078 39.4096 190.006 39.4234 189.936C39.439 189.879 39.4662 189.825 39.5034 189.779C39.5405 189.733 39.5868 189.695 39.6394 189.667C39.7258 189.614 39.7978 189.581 39.8746 189.538L40.3258 189.307L41.2138 188.827C41.7654 188.504 42.3535 188.248 42.9658 188.064C43.5535 187.958 44.1598 188.051 44.689 188.328C45.169 188.549 45.649 188.77 46.033 188.966L47.953 189.926C48.1942 190.035 48.4269 190.162 48.649 190.306C48.395 190.23 48.1477 190.134 47.9098 190.018L45.9418 189.149L44.5882 188.544C44.1002 188.294 43.5425 188.215 43.0042 188.318C42.4136 188.503 41.8466 188.756 41.3146 189.072L40.4314 189.552L39.9802 189.787C39.8266 189.864 39.6634 189.941 39.6538 190.018C39.6442 190.094 39.7642 190.282 39.913 190.402C40.0595 190.529 40.2206 190.639 40.393 190.728C40.7287 190.902 41.096 191.006 41.473 191.035C42.1743 191.104 42.8742 190.893 43.4218 190.45L43.5466 190.344L43.5994 190.498C43.8231 191.196 44.1242 191.868 44.497 192.499C44.7908 192.978 45.2001 193.376 45.6874 193.656C46.1302 193.893 46.6316 193.998 47.1322 193.958Z" fill="#FF9A6C"/>
<path d="M95.9241 142.728C95.9577 140.002 96.4041 137.285 96.2793 134.568C96.1545 131.851 95.4585 129.005 93.5577 127.051C91.6569 125.098 88.3401 124.358 86.1321 125.918L85.6521 128.242C86.5257 138.754 86.4105 149.434 87.2841 159.946C87.3993 161.328 88.5177 162.581 89.1465 163.814C89.7753 165.048 91.0377 166.07 92.4201 165.984C94.2297 165.874 95.4153 164.04 95.9769 162.312C98.0409 156.067 95.8425 149.318 95.9241 142.728Z" fill="#263238"/>
<path d="M89.3674 128.592C89.0033 127.899 88.5355 127.266 87.9802 126.715C87.7001 126.441 87.3615 126.234 86.99 126.109C86.6184 125.984 86.2234 125.945 85.8346 125.995C85.6515 126.018 85.4772 126.087 85.3285 126.196C85.1798 126.306 85.0615 126.451 84.985 126.619C84.865 126.965 85.1242 127.43 85.489 127.397L85.5658 127.464C86.3818 128.187 87.2122 128.893 88.057 129.581C88.2586 129.769 88.495 129.915 88.753 130.013C88.8827 130.06 89.0231 130.07 89.1581 130.041C89.2931 130.012 89.4172 129.946 89.5162 129.849C89.8186 129.513 89.5978 128.981 89.3674 128.592Z" fill="#7163DE"/>
<path d="M90.908 131.27C88.1912 127.949 84.5432 126.034 80.252 125.99C77.852 125.947 76.8296 126.47 75.0872 126.922C73.3425 127.343 71.8005 128.362 70.7288 129.802C69.4952 131.554 68.4584 133.517 68.2232 135.653C67.9157 137.835 67.8112 140.041 67.9112 142.243C68.0119 144.456 68.723 146.597 69.9656 148.43L75.5528 149.39C78.6392 149.496 81.7688 149.597 84.7784 148.91C87.788 148.224 90.7064 146.587 92.3144 143.952C94.5512 140.266 93.62 134.587 90.908 131.27Z" fill="#263238"/>
<path d="M85.94 131.232L78.4904 128.271L76.5416 128.496C72.164 128.496 69.14 133.344 69.1112 136.887C69.0824 140.832 69.1976 145.642 69.8216 148.546C71.084 154.387 76.0616 154.872 76.0616 154.872C76.0616 154.872 75.9608 157.987 75.9224 159.946L87.332 159.125L87.9032 133.234C87.8859 132.715 87.6746 132.221 87.3111 131.851C86.9476 131.48 86.4584 131.259 85.94 131.232Z" fill="#FFBF9D"/>
<path d="M78.5818 147.178C78.5357 146.879 78.3821 146.608 78.1498 146.415C77.9385 146.233 77.6732 146.125 77.3948 146.109C77.1164 146.092 76.8403 146.168 76.609 146.323C76.3689 146.509 76.1824 146.754 76.0685 147.035C75.9547 147.316 75.9176 147.622 75.961 147.922C76.0893 148.102 76.2546 148.253 76.4458 148.363C76.6371 148.474 76.8498 148.543 77.0698 148.565C77.1385 148.57 77.2075 148.57 77.2762 148.565C77.6323 148.572 77.977 148.44 78.2362 148.195C78.3666 148.063 78.4653 147.902 78.5251 147.726C78.585 147.55 78.6043 147.363 78.5818 147.178Z" fill="#FF9A6C"/>
<path d="M71.084 141.874C71.0915 142.071 71.1762 142.258 71.3198 142.393C71.4634 142.529 71.6545 142.603 71.852 142.599C71.9486 142.601 72.0446 142.583 72.1345 142.548C72.2244 142.512 72.3063 142.459 72.3755 142.392C72.4447 142.324 72.4999 142.244 72.5377 142.155C72.5756 142.066 72.5954 141.97 72.596 141.874C72.5861 141.677 72.5 141.491 72.3558 141.356C72.2117 141.22 72.0208 141.146 71.8232 141.149C71.7268 141.147 71.631 141.164 71.5414 141.2C71.4518 141.236 71.3702 141.289 71.3013 141.356C71.2325 141.424 71.1778 141.504 71.1405 141.593C71.1032 141.682 71.084 141.777 71.084 141.874Z" fill="#263238"/>
<path d="M70.4457 138.859C70.5417 138.951 71.0937 138.499 71.8857 138.456C72.6777 138.413 73.3257 138.787 73.4025 138.682C73.4793 138.576 73.3353 138.461 73.0665 138.288C72.7011 138.064 72.2752 137.958 71.8473 137.986C71.4246 138.007 71.0196 138.161 70.6905 138.427C70.4697 138.634 70.3929 138.816 70.4457 138.859Z" fill="#263238"/>
<path d="M75.6682 145.239C75.2327 145.124 74.784 145.068 74.3338 145.071C74.1274 145.071 73.9258 145.032 73.8826 144.888C73.8565 144.676 73.8932 144.461 73.9882 144.269C74.1562 143.755 74.3338 143.218 74.5162 142.651C75.2458 140.357 75.7642 138.471 75.6682 138.442C75.5722 138.413 74.9098 140.251 74.1802 142.551L73.7002 144.173C73.582 144.43 73.5599 144.721 73.6378 144.994C73.671 145.065 73.7204 145.128 73.782 145.177C73.8437 145.226 73.9159 145.26 73.993 145.277C74.1096 145.302 74.229 145.312 74.3482 145.306C74.7893 145.335 75.2324 145.313 75.6682 145.239Z" fill="#263238"/>
<path d="M76.052 154.867C78.8291 154.757 81.5212 153.878 83.828 152.328C83.828 152.328 81.9512 156.528 76.0232 156.303L76.052 154.867Z" fill="#FF9A6C"/>
<path d="M78.0921 145.666C77.9625 145.666 78.0057 146.549 77.2857 147.216C76.5657 147.883 75.6201 147.84 75.6201 147.965C75.6201 148.09 75.8409 148.123 76.2345 148.114C76.7536 148.093 77.2486 147.889 77.6313 147.538C77.9976 147.202 78.2196 146.737 78.2505 146.242C78.2601 145.872 78.1545 145.661 78.0921 145.666Z" fill="#263238"/>
<path d="M70.7193 136.013C70.8681 136.2 71.4825 136.037 72.2121 136.056C72.9417 136.075 73.5561 136.234 73.7097 136.056C73.7769 135.965 73.6857 135.778 73.4217 135.576C73.0647 135.344 72.6474 135.222 72.2217 135.226C71.7959 135.214 71.3759 135.326 71.0121 135.547C70.7481 135.73 70.6569 135.917 70.7193 136.013Z" fill="#263238"/>
<path d="M79.9592 141.672C79.9632 141.869 79.8902 142.06 79.7558 142.204C79.6214 142.348 79.4361 142.435 79.2392 142.445C79.1432 142.454 79.0463 142.444 78.9542 142.415C78.8622 142.386 78.7767 142.34 78.703 142.277C78.6292 142.215 78.5686 142.139 78.5247 142.053C78.4808 141.967 78.4544 141.874 78.4472 141.777C78.4431 141.581 78.5152 141.39 78.6485 141.245C78.7818 141.1 78.9659 141.012 79.1624 141C79.259 140.991 79.3565 141.001 79.4492 141.03C79.5418 141.059 79.6278 141.106 79.702 141.168C79.7762 141.231 79.8372 141.308 79.8813 141.394C79.9255 141.481 79.952 141.575 79.9592 141.672Z" fill="#263238"/>
<path d="M81.4473 138.542C81.3561 138.643 80.7753 138.23 79.9593 138.245C79.1433 138.259 78.5577 138.682 78.4665 138.581C78.3753 138.48 78.5145 138.36 78.7737 138.163C79.1205 137.913 79.5365 137.777 79.9641 137.774C80.3875 137.765 80.8029 137.891 81.1497 138.134C81.4041 138.322 81.4953 138.499 81.4473 138.542Z" fill="#263238"/>
<path d="M80.9576 135.941C80.804 136.128 80.1704 135.941 79.4168 135.941C78.6632 135.941 78.02 136.09 77.8712 135.898C77.804 135.806 77.9048 135.619 78.1784 135.418C78.5577 135.196 78.9917 135.084 79.4312 135.096C79.8676 135.091 80.2961 135.213 80.6648 135.446C80.9384 135.658 81.0296 135.85 80.9576 135.941Z" fill="#263238"/>
<path d="M86.9001 143.131C86.9001 142.694 87.3273 141.634 87.7593 141.542C88.9065 141.298 90.9945 141.274 91.1769 144.211C91.4265 148.229 87.3369 147.648 87.3369 147.533C87.3369 147.418 86.9721 144.648 86.9001 143.131Z" fill="#FFBF9D"/>
<path d="M88.3401 145.997C88.3401 145.997 88.4121 146.045 88.5321 146.088C88.7014 146.157 88.8908 146.157 89.0601 146.088C89.4729 145.906 89.7897 145.21 89.7657 144.485C89.7539 144.14 89.6654 143.802 89.5065 143.496C89.4614 143.373 89.3866 143.262 89.2887 143.174C89.1908 143.086 89.0727 143.024 88.9449 142.992C88.8637 142.976 88.7795 142.989 88.7068 143.028C88.634 143.068 88.5773 143.131 88.5465 143.208C88.4985 143.323 88.5465 143.405 88.5081 143.41C88.4697 143.415 88.4169 143.347 88.4409 143.179C88.4568 143.079 88.5078 142.987 88.5849 142.92C88.6363 142.875 88.6964 142.84 88.7616 142.819C88.8268 142.797 88.8957 142.789 88.9641 142.795C89.1314 142.816 89.2904 142.879 89.4253 142.981C89.5601 143.082 89.6659 143.216 89.7321 143.371C89.9238 143.709 90.0309 144.088 90.0441 144.475C90.0681 145.287 89.6985 146.069 89.1321 146.271C89.0262 146.309 88.9131 146.323 88.8011 146.313C88.689 146.302 88.5807 146.266 88.4841 146.208C88.3401 146.098 88.3401 146.007 88.3401 145.997Z" fill="#FF9A6C"/>
<path d="M87.9129 141.552L86.9001 142.598C82.4937 138.379 73.8825 127.819 74.3673 128.448C76.3758 127.701 78.5397 127.472 80.6601 127.781C83.9385 128.338 90.1497 129.979 90.0537 133.843C89.9577 137.707 87.9129 141.552 87.9129 141.552Z" fill="#263238"/>
<path d="M93.7498 140.678C93.7368 140.6 93.7159 140.522 93.6874 140.448C93.6143 140.229 93.5227 140.017 93.4138 139.814C92.9978 139.071 92.4245 138.427 91.7338 137.928C90.7156 137.197 89.5789 136.646 88.3738 136.301C87.0298 135.864 85.5178 135.523 84.0298 134.861C82.6265 134.276 81.296 133.53 80.065 132.638C79.0582 131.909 78.1199 131.09 77.2618 130.19C76.6862 129.582 76.1461 128.941 75.6442 128.27L75.241 127.714C75.196 127.646 75.1446 127.584 75.0874 127.526C75.1211 127.6 75.1612 127.671 75.2074 127.738C75.289 127.872 75.409 128.069 75.577 128.314C76.0575 129.008 76.5852 129.669 77.1562 130.291C79.0509 132.351 81.3698 133.976 83.953 135.053C85.3828 135.595 86.8391 136.064 88.3162 136.459C89.5161 136.786 90.6521 137.314 91.6762 138.019C92.3595 138.499 92.9364 139.115 93.3706 139.829C93.6202 140.352 93.7258 140.678 93.7498 140.678Z" fill="#455A64"/>
<path d="M92.5785 141.297C92.5916 140.997 92.5392 140.697 92.4249 140.419C92.1218 139.651 91.595 138.993 90.9129 138.528C89.892 137.87 88.7494 137.425 87.5529 137.217C86.1211 136.931 84.7254 136.486 83.3913 135.893C82.0627 135.287 80.8147 134.517 79.6761 133.603C78.7498 132.853 77.8978 132.016 77.1321 131.102C76.6105 130.483 76.1295 129.83 75.6921 129.149L75.3513 128.587C75.3161 128.52 75.2725 128.457 75.2217 128.4C75.2484 128.471 75.2805 128.54 75.3177 128.606L75.6249 129.192C76.0334 129.891 76.4922 130.56 76.9977 131.193C77.7543 132.131 78.6051 132.988 79.5369 133.752C80.6822 134.684 81.942 135.467 83.2857 136.08C84.6317 136.681 86.0427 137.123 87.4905 137.4C88.6654 137.596 89.7906 138.02 90.8025 138.648C91.4717 139.088 91.9986 139.714 92.3193 140.448C92.4316 140.723 92.5183 141.007 92.5785 141.297Z" fill="#455A64"/>
<path d="M87.7786 148.359C87.7786 148.33 88.1194 148.287 88.7146 148.128C89.5491 147.887 90.3174 147.459 90.961 146.875C91.9037 145.993 92.6199 144.897 93.049 143.679C93.5972 142.194 93.8925 140.629 93.9226 139.047C93.9407 138.229 93.8748 137.412 93.7258 136.608C93.323 134.586 92.3734 132.714 90.9802 131.194C90.161 130.324 89.2573 129.538 88.2826 128.847C88.2826 128.847 88.3642 128.875 88.5082 128.962C88.6522 129.048 88.8586 129.163 89.113 129.346C89.8421 129.846 90.5148 130.424 91.1194 131.069C92.0247 132.025 92.7572 133.131 93.2842 134.338C93.5897 135.054 93.8229 135.798 93.9802 136.56C94.1346 137.381 94.2037 138.216 94.1866 139.051C94.1577 140.663 93.8508 142.258 93.2794 143.765C92.825 145.011 92.0718 146.127 91.0858 147.015C90.4127 147.6 89.6097 148.016 88.7434 148.229C88.5076 148.283 88.2688 148.321 88.0282 148.344C87.9455 148.356 87.862 148.36 87.7786 148.359Z" fill="#455A64"/>
<path d="M92.8905 197.755L69.1401 201.207C60.2169 203.731 50.8185 204.471 40.9929 203.607L76.7385 220.282L91.0905 220.503C91.0905 220.503 95.4585 220.503 96.2217 216.691C96.9849 212.88 97.8345 201.274 97.8345 201.274C97.8345 201.274 94.9977 198.816 92.8905 197.755Z" fill="#263238"/>
<g opacity="0.3">
<path d="M92.8184 207.754C93.2112 210.132 93.3528 212.546 93.2409 214.954C93.9704 214.153 94.5077 213.196 94.8122 212.157C95.1166 211.117 95.18 210.022 94.9976 208.954C94.7912 207.783 94.3016 206.491 94.916 205.469C95.3288 204.783 96.4184 203.995 96.26 203.213C96.26 203.213 95.3001 203.213 94.4409 203.179C93.7449 203.151 92.3 203.107 92.3 203.107C92.9217 204.601 93.0561 206.252 92.6841 207.826" fill="black"/>
</g>
<path d="M75.9609 158.966L87.5001 157.718L89.6121 159.638L81.3753 164.486L77.7417 166.368L74.1513 165.278L73.0137 163.137L75.9609 158.966Z" fill="#FFBF9D"/>
<path d="M60.4041 173.016C60.4041 173.016 64.0232 166.075 64.916 164.559C66.4424 161.971 69.2937 160.507 69.2937 160.507L75.9609 158.967C75.9609 158.967 75.2697 162.327 79.4169 162.538C84.6969 162.831 87.9753 157.771 87.9753 157.771C87.9753 157.771 93.9945 158.391 95.6553 159.087C97.3161 159.783 102.02 161.755 102.711 168.005L104.324 178.215L91.6041 179.175L91.7769 192.768L86.372 197.189C86.372 197.189 70.8537 202.531 69.8601 202.882C69.3801 203.05 69.5048 196.455 68.396 190.8L66.3032 185.717C65.4561 183.687 64.9548 181.529 64.8201 179.333C64.7385 177.893 64.7769 176.789 64.7769 176.789C64.7769 176.789 61.5129 175.671 60.4041 173.016Z" fill="#455A64"/>
<path d="M70.4265 197.554L91.7529 191.155L91.6041 179.184L102.462 178.358C102.462 178.358 101.598 184.56 101.468 187.738C101.286 192.312 99.0681 198.706 97.6281 200.059C96.1881 201.413 69.8745 202.891 69.8745 202.891L70.4265 197.554Z" fill="#FFBF9D"/>
<path d="M58.3306 201.317C58.4335 201.493 58.5968 201.625 58.7902 201.69C58.9837 201.754 59.1939 201.746 59.3818 201.667C59.8618 201.475 59.7322 200.506 59.7322 200.506L62.0026 199.949C62.0026 199.949 65.137 201.648 66.3226 202.829C67.5082 204.01 70.1146 202.776 70.1146 202.776L70.657 197.798L66.1306 194.299C66.1306 194.299 66.409 194.51 66.0586 193.819C65.7082 193.128 64.4026 193.502 64.4026 193.502C64.1722 193.162 63.2938 193.104 63.2938 193.104L59.6122 193.819C59.2386 193.892 58.8861 194.047 58.5804 194.274C58.2747 194.501 58.0237 194.793 57.8458 195.13L56.4682 197.736C56.4682 197.736 55.777 199.589 55.945 199.997C56.0174 200.166 56.1494 200.302 56.3158 200.38C56.4822 200.458 56.6714 200.472 56.8474 200.419C56.8474 200.419 57.121 201.581 57.433 201.595C57.7483 201.556 58.053 201.457 58.3306 201.302V201.317Z" fill="#FFBF9D"/>
<path d="M65.9577 197.189C65.9577 197.227 65.4777 197.218 64.6713 197.314C63.6444 197.444 62.6401 197.714 61.6857 198.115C61.1617 198.339 60.6562 198.604 60.1737 198.907C59.7465 199.19 59.2953 199.435 59.1753 199.776C59.1494 199.849 59.1429 199.928 59.1564 200.004C59.1698 200.081 59.2028 200.153 59.2521 200.213C59.328 200.312 59.4315 200.388 59.5497 200.429C59.7513 200.491 59.8713 200.429 59.8809 200.429C59.8905 200.429 59.7705 200.539 59.5257 200.496C59.3808 200.464 59.2498 200.386 59.1513 200.275C59.0807 200.199 59.0311 200.106 59.0075 200.005C58.9839 199.904 58.9872 199.799 59.0169 199.699C59.0988 199.476 59.246 199.282 59.4393 199.142C59.6313 198.994 59.8329 198.845 60.0585 198.696C61.4336 197.795 63.0134 197.256 64.6521 197.126C65.0878 197.077 65.5287 197.098 65.9577 197.189Z" fill="#FF9A6C"/>
<path d="M66.4041 199.536C66.4041 199.603 64.8873 199.661 63.0441 199.91C61.2009 200.16 59.7225 200.506 59.6841 200.438C59.9887 200.292 60.3116 200.187 60.6441 200.126C61.422 199.931 62.2105 199.78 63.0057 199.675C63.8015 199.567 64.6028 199.505 65.4057 199.488C65.7391 199.458 66.075 199.475 66.4041 199.536Z" fill="#FF9A6C"/>
<path d="M58.345 201.221C58.3061 201.094 58.2803 200.964 58.2682 200.832C58.2187 200.471 58.1899 200.107 58.1818 199.743C58.1776 199.489 58.1936 199.235 58.2298 198.984C58.2743 198.689 58.3771 198.405 58.5322 198.149C58.8515 197.557 59.2856 197.035 59.809 196.613C60.3268 196.19 60.9022 195.842 61.5178 195.581C62.0281 195.392 62.5603 195.267 63.1018 195.211C63.5818 195.159 63.9274 195.144 64.1866 195.13C64.3187 195.11 64.4529 195.11 64.585 195.13C64.1102 195.238 63.6294 195.319 63.145 195.37C62.6227 195.446 62.1106 195.582 61.6186 195.773C61.028 196.037 60.4758 196.379 59.977 196.791C59.4795 197.191 59.0597 197.679 58.7386 198.231C58.4824 198.686 58.3546 199.202 58.369 199.723C58.3306 200.65 58.3978 201.221 58.345 201.221Z" fill="#FF9A6C"/>
<path d="M63.1881 194.074C63.1881 194.112 62.6361 194.17 61.7481 194.338C60.8601 194.506 59.5401 194.702 58.8681 195.941C58.1822 196.88 57.6282 197.909 57.2217 198.998C57.095 199.461 57.013 199.936 56.9769 200.414C56.932 200.288 56.9141 200.154 56.9241 200.021C56.9154 199.659 56.9607 199.299 57.0585 198.95C57.4238 197.823 57.9684 196.761 58.6713 195.806C58.8581 195.517 59.0824 195.254 59.3385 195.024C59.5855 194.812 59.8706 194.649 60.1785 194.544C60.6832 194.369 61.2042 194.245 61.7337 194.174C62.2124 194.08 62.701 194.046 63.1881 194.074Z" fill="#FF9A6C"/>
<path d="M65.4297 202.118C65.3466 202.075 65.2678 202.023 65.1945 201.965L64.5369 201.518C63.7082 200.973 62.8492 200.474 61.9641 200.026H62.0169L59.7513 200.597L59.8233 200.491C59.8449 200.679 59.8449 200.869 59.8233 201.058C59.8091 201.265 59.734 201.464 59.6073 201.629C59.5286 201.712 59.4264 201.769 59.3145 201.792C59.2113 201.828 59.1019 201.843 58.9929 201.835C58.7675 201.819 58.555 201.724 58.3929 201.566C58.3536 201.525 58.3167 201.482 58.2825 201.437V201.403L58.4169 201.442L58.3449 201.475C58.2516 201.524 58.1554 201.568 58.0569 201.605C57.9565 201.644 57.8539 201.678 57.7497 201.706C57.6948 201.722 57.6386 201.733 57.5817 201.739C57.5088 201.751 57.4341 201.743 57.3657 201.715C57.2561 201.646 57.1693 201.546 57.1161 201.427C57.0629 201.328 57.0164 201.225 56.9769 201.12C56.8962 200.912 56.8304 200.699 56.7801 200.482L56.9193 200.563C56.7663 200.61 56.6033 200.614 56.4483 200.574C56.2933 200.534 56.1523 200.453 56.0409 200.338C55.925 200.215 55.8569 200.055 55.8489 199.886C55.8485 199.735 55.863 199.584 55.8921 199.435C56.0205 198.857 56.1905 198.289 56.4009 197.736L57.1353 196.344L57.6153 195.466C57.7576 195.162 57.9313 194.874 58.1337 194.606C58.3537 194.349 58.623 194.139 58.9257 193.987C59.2209 193.852 59.5348 193.761 59.8569 193.718L63.3225 193.051H63.3513C63.5644 193.067 63.7751 193.106 63.9801 193.166C64.1977 193.215 64.3943 193.331 64.5417 193.498L64.4073 193.469C64.5902 193.368 64.7948 193.312 65.0037 193.307C65.2127 193.302 65.4198 193.348 65.6073 193.44C65.9315 193.645 66.1677 193.963 66.2697 194.333L66.2361 194.29L69.3561 196.69L70.1961 197.352C70.2973 197.425 70.392 197.507 70.4793 197.597C70.369 197.54 70.2645 197.472 70.1673 197.395L69.2985 196.766L66.1305 194.434H66.1065V194.4C66.0171 194.079 65.8097 193.803 65.5257 193.627C65.3674 193.551 65.1931 193.515 65.0176 193.52C64.8421 193.526 64.6706 193.574 64.5177 193.661L64.4361 193.699L64.3833 193.632C64.2612 193.506 64.1041 193.419 63.9321 193.382C63.7407 193.33 63.5445 193.296 63.3465 193.282H63.3753L59.9097 193.963C59.6071 194.003 59.3124 194.088 59.0361 194.218C58.7636 194.353 58.5218 194.542 58.3257 194.774C58.1366 195.03 57.9757 195.305 57.8457 195.595L57.3657 196.474C57.1113 196.954 56.8857 197.434 56.6313 197.866C56.4333 198.408 56.2729 198.963 56.1513 199.526C56.1237 199.658 56.1092 199.791 56.1081 199.925C56.1145 200.04 56.1622 200.149 56.2425 200.232C56.325 200.315 56.4284 200.374 56.5416 200.402C56.6548 200.431 56.7737 200.429 56.8857 200.395L57.0009 200.366V200.477C57.0537 200.683 57.1161 200.894 57.1881 201.091C57.2407 201.271 57.3363 201.436 57.4665 201.571C57.4978 201.581 57.5312 201.581 57.5625 201.571L57.7017 201.542C57.7987 201.521 57.8935 201.49 57.9849 201.451C58.0761 201.418 58.1673 201.374 58.2585 201.331L58.3257 201.302L58.4649 201.341V201.365C58.491 201.402 58.5199 201.437 58.5513 201.47C58.6407 201.566 58.7556 201.634 58.8823 201.666C59.009 201.698 59.1423 201.694 59.2665 201.653C59.3431 201.64 59.4137 201.603 59.4681 201.547C59.6373 201.258 59.7001 200.918 59.6457 200.587V200.501H59.7225L61.9977 199.963H62.0265C62.9111 200.424 63.7627 200.945 64.5753 201.523C64.8585 201.73 65.0553 201.893 65.2137 202.003C65.2883 202.036 65.3605 202.075 65.4297 202.118Z" fill="#FF9A6C"/>
<path d="M54.3417 205.2C54.3417 205.2 39.2937 200.472 34.5705 198.96C26.4105 196.32 21.1017 198.989 19.4217 201.898C17.2425 205.675 22.4697 213.043 24.4857 214.738C30.4521 219.754 40.6809 220.43 40.6809 220.43L77.4585 220.363L66.7401 205.781L54.3417 205.2Z" fill="#263238"/>
<path d="M56.5977 212.025C50.4691 212.739 44.2597 211.893 38.5449 209.568C37.5699 209.127 36.566 208.754 35.5401 208.449C34.5259 208.194 33.4746 208.119 32.4345 208.229C32.0217 208.239 31.6152 208.333 31.2392 208.503C30.8632 208.674 30.5253 208.918 30.2457 209.222C29.5113 210.182 29.8857 211.565 30.2937 212.707C30.7737 214.051 31.2537 215.424 32.2137 216.499C33.3033 217.752 34.8873 218.472 36.4761 218.971C39.5817 219.931 42.8601 220.233 46.1145 220.358L57.2889 219.749L56.5977 212.025Z" fill="#E0E0E0"/>
<path d="M35.017 208.455C35.0904 208.545 35.1473 208.647 35.185 208.757C35.3148 209.043 35.4145 209.343 35.4826 209.65C35.7239 210.671 35.6815 211.739 35.36 212.738C35.0386 213.737 34.4503 214.63 33.6586 215.319C33.423 215.525 33.1691 215.71 32.9002 215.871C32.7034 215.981 32.593 216.029 32.5834 216.015C32.5738 216 32.9866 215.736 33.5434 215.194C34.2739 214.495 34.8186 213.625 35.1278 212.663C35.4371 211.701 35.5013 210.677 35.3146 209.683C35.1802 208.915 34.9786 208.469 35.017 208.455Z" fill="#263238"/>
<path d="M92.7513 204.279C91.8777 201.802 91.7337 198.163 86.3433 196.416C80.9529 194.669 76.8825 198.019 74.1129 199.181C71.3433 200.343 56.2089 208.647 56.2089 208.647C56.2089 208.647 53.3577 213.73 54.1689 215.976C54.9801 218.223 58.6665 220.44 58.6665 220.44H75.5961C79.9641 220.44 88.0761 220.291 88.0761 220.291C89.1622 218.511 90.1354 216.664 90.9897 214.762L91.1337 214.032C91.1481 213.451 93.6201 206.755 92.7513 204.279Z" fill="#263238"/>
<path d="M83.372 217.138C83.3501 217.224 83.3072 217.303 83.2472 217.368C83.0831 217.559 82.8961 217.728 82.6904 217.872C81.9345 218.393 81.1309 218.842 80.2904 219.211C79.7163 219.479 79.1264 219.712 78.524 219.907C77.8267 220.127 77.1122 220.287 76.388 220.387C74.7358 220.552 73.0752 220.616 71.4152 220.579C67.8968 220.637 64.6952 220.771 62.3912 220.743C61.2344 220.743 60.2984 220.69 59.6552 220.623C59.4071 220.601 59.1603 220.566 58.916 220.517C58.8295 220.507 58.7442 220.487 58.6616 220.459C58.6616 220.435 59.0168 220.498 59.66 220.531C60.3032 220.565 61.2392 220.589 62.3912 220.579C64.7 220.579 67.8872 220.402 71.4152 220.344C73.0668 220.38 74.719 220.322 76.364 220.171C77.0753 220.084 77.7784 219.94 78.4664 219.739C79.065 219.555 79.6517 219.333 80.2232 219.077C81.058 218.726 81.8609 218.304 82.6232 217.815C82.8305 217.676 83.0221 217.515 83.1944 217.335C83.3288 217.219 83.3576 217.133 83.372 217.138Z" fill="#263238"/>
<path d="M58.6666 220.44L58.441 220.32C58.297 220.238 58.0858 220.104 57.8122 219.926C57.0162 219.407 56.2705 218.814 55.585 218.155C55.0885 217.679 54.6647 217.132 54.3274 216.533C53.9827 215.782 53.895 214.938 54.0778 214.133C54.4894 212.203 55.1799 210.343 56.1274 208.613V208.589C58.9018 207.062 62.0842 205.329 65.5594 203.462C67.297 202.531 69.1066 201.566 70.9882 200.582C71.9482 200.102 72.9082 199.622 73.8682 199.142C74.8282 198.662 75.8122 198.182 76.8058 197.664C78.1786 196.912 79.6507 196.357 81.1786 196.017C81.9291 195.868 82.6934 195.798 83.4586 195.811C84.2073 195.834 84.9511 195.94 85.6762 196.128C87.082 196.474 88.4019 197.105 89.5546 197.981C90.0906 198.425 90.5651 198.938 90.9658 199.507C91.3342 200.068 91.6385 200.669 91.873 201.297C92.113 201.912 92.281 202.531 92.4538 203.136C92.6518 203.723 92.8122 204.323 92.9338 204.931C93.0093 206.093 92.9122 207.259 92.6458 208.392C92.4298 209.472 92.1658 210.48 91.8922 211.416C91.7578 211.896 91.6234 212.342 91.4986 212.779C91.3738 213.216 91.2298 213.648 91.1626 214.032C91.105 214.305 91.0618 214.512 91.0138 214.757C90.5515 216.24 89.898 217.657 89.0698 218.971C88.7764 219.441 88.4302 219.876 88.0378 220.267L88.1002 220.181C88.153 220.118 88.2202 220.041 88.3018 219.936C88.5562 219.616 88.7933 219.283 89.0122 218.937C89.8119 217.615 90.4424 216.198 90.889 214.718C91.1626 214.488 91.1098 214.262 91.0282 213.989C91.1121 213.551 91.2211 213.118 91.3546 212.693L91.7434 211.334C92.0026 210.374 92.2618 209.385 92.473 208.315C92.7287 207.2 92.8193 206.053 92.7418 204.912C92.6156 204.316 92.4553 203.728 92.2618 203.15C92.0842 202.545 91.9114 201.931 91.6762 201.331C91.4471 200.717 91.1493 200.131 90.7882 199.584C90.3988 199.033 89.9371 198.538 89.4154 198.11C87.6892 196.816 85.6095 196.08 83.4538 195.998C82.7061 195.986 81.9593 196.055 81.2266 196.205C79.7168 196.54 78.2622 197.087 76.9066 197.832C75.9466 198.312 74.9866 198.888 73.9546 199.315C72.9226 199.742 72.0346 200.251 71.0746 200.755C69.1978 201.715 67.3834 202.675 65.6458 203.635L56.1994 208.728L56.233 208.689C55.2882 210.4 54.5947 212.238 54.1738 214.147C53.9844 214.925 54.0605 215.745 54.3898 216.475C54.713 217.069 55.124 217.611 55.609 218.083C56.2822 218.747 57.013 219.349 57.793 219.883L58.4074 220.296C58.5802 220.387 58.6666 220.44 58.6666 220.44Z" fill="#263238"/>
<path d="M86.2185 214.157C86.2185 214.157 91.2633 214.762 90.8169 217.229C90.3705 219.696 88.7193 220.526 88.7193 220.526L75.0105 220.555C75.0105 220.555 83.1945 219.989 86.2185 214.157Z" fill="#E0E0E0"/>
<path d="M86.7082 212.961C86.7071 213.202 86.6547 213.439 86.5546 213.657C86.3689 214.209 86.0932 214.727 85.7386 215.189C85.2605 215.862 84.5918 216.377 83.8186 216.667C84.4552 216.189 85.0393 215.646 85.561 215.045C86.0011 214.384 86.3848 213.687 86.7082 212.961Z" fill="#263238"/>
<path d="M84.9801 213.926C84.9881 214.545 84.8218 215.154 84.5001 215.683C84.2537 216.244 83.8769 216.738 83.4009 217.123C83.3481 217.08 83.8425 216.442 84.2889 215.563C84.7353 214.685 84.8937 213.917 84.9801 213.926Z" fill="#263238"/>
<path d="M91.393 219.84C91.3546 219.84 91.681 219.197 92.0746 218.136C93.108 215.366 93.449 212.385 93.0682 209.453C92.9194 208.335 92.7466 207.648 92.785 207.639C92.8609 207.791 92.9158 207.952 92.9482 208.119C93.0668 208.553 93.1613 208.994 93.2314 209.439C93.7117 212.396 93.3662 215.429 92.233 218.203C92.0619 218.612 91.8679 219.011 91.6522 219.399C91.5836 219.556 91.4966 219.704 91.393 219.84Z" fill="#455A64"/>
<g opacity="0.3">
<path d="M88.5417 212.827C88.5033 212.496 88.3737 212.103 88.0617 212.035C87.6585 211.954 87.3849 212.415 87.2265 212.789C85.4601 216.807 79.7529 219.941 75.3801 220.359C77.5009 220.354 79.618 220.181 81.7113 219.84C83.4965 219.573 85.1701 218.808 86.5401 217.632C87.2213 217.04 87.7564 216.298 88.1036 215.464C88.4508 214.631 88.6007 213.728 88.5417 212.827Z" fill="black"/>
</g>
<path d="M55.1432 207.36C54.3073 207.125 53.4943 206.815 52.7144 206.433C51.9037 206.126 51.1228 205.746 50.3816 205.296C51.2164 205.532 52.0291 205.84 52.8104 206.218C53.6213 206.526 54.4022 206.909 55.1432 207.36Z" fill="#263238"/>
<g opacity="0.2">
<path d="M60.02 205.239C53.492 203.991 46.94 202.882 40.364 201.912L35.468 203.458C36.8408 206.011 39.5528 207.639 42.3704 208.311C45.188 208.983 48.1304 208.824 51.0104 208.56C54.188 208.267 57.452 207.821 60.2168 206.227C60.428 206.107 60.668 205.925 60.6392 205.68C60.6104 205.435 60.3032 205.291 60.02 205.239Z" fill="black"/>
</g>
<path d="M27.8888 185.798L36.116 203.99C36.2824 204.361 36.5519 204.676 36.8922 204.898C37.2326 205.121 37.6296 205.24 38.036 205.243L62.036 205.555L65.06 203.928L60.3224 203.582L52.9496 185.89C52.8349 185.614 52.6417 185.379 52.3942 185.212C52.1468 185.046 51.8558 184.956 51.5576 184.954L28.5704 184.781C28.4478 184.776 28.3261 184.803 28.2168 184.859C28.1075 184.915 28.0143 184.998 27.946 185.1C27.8777 185.202 27.8366 185.319 27.8266 185.442C27.8166 185.564 27.838 185.687 27.8888 185.798Z" fill="#E0E0E0"/>
<path d="M27.8888 185.798C27.8496 185.731 27.825 185.655 27.8168 185.577C27.8016 185.462 27.8142 185.345 27.8534 185.236C27.8926 185.126 27.9574 185.028 28.0424 184.949C28.1736 184.827 28.3436 184.756 28.5224 184.747H30.6296L40.2536 184.781L46.9448 184.814L50.684 184.838H51.644C51.9995 184.864 52.3368 185.006 52.604 185.241C52.8615 185.483 53.0517 185.787 53.156 186.125L53.5496 187.085C55.6472 192.11 57.9656 197.669 60.4232 203.544L60.308 203.462L64.8824 203.798H65.0456L65.5256 203.832L65.1176 204.053L62.0936 205.68H62.06H62.0264L43.8344 205.43L39.7736 205.373C39.1112 205.373 38.4776 205.373 37.82 205.334C37.4916 205.296 37.1756 205.185 36.8945 205.011C36.6133 204.837 36.3738 204.603 36.1928 204.326C35.1224 202.075 34.2296 200.006 33.3608 198.086L29.3384 189.091C28.8584 188.04 28.5128 187.219 28.2632 186.648C28.1432 186.379 28.0568 186.168 27.9896 186.014C27.9224 185.861 27.9032 185.793 27.9032 185.793C27.9442 185.862 27.9811 185.932 28.0136 186.005L28.3112 186.629C28.5704 187.19 28.9448 188.006 29.4296 189.029L33.5288 197.995C34.3976 199.881 35.3288 202.003 36.3752 204.192C36.5381 204.442 36.7543 204.652 37.0083 204.808C37.2623 204.964 37.5477 205.062 37.844 205.094C38.4584 205.123 39.1256 205.118 39.764 205.128L43.8248 205.176L62.0168 205.397H61.9496L64.9736 203.765L65.0312 204.019H64.868L60.2936 203.688H60.212L60.1784 203.616C57.7352 197.731 55.4216 192.173 53.3288 187.142L52.94 186.206C52.8544 185.901 52.6887 185.624 52.46 185.405C52.2318 185.199 51.9411 185.075 51.6344 185.054H50.6744L46.9352 185.021L40.2488 184.953L30.6152 184.838H29.108H28.5128C28.4177 184.842 28.3244 184.865 28.2384 184.905C28.1524 184.946 28.0757 185.004 28.0128 185.075C27.9499 185.147 27.9023 185.23 27.8727 185.321C27.8431 185.411 27.8323 185.507 27.8408 185.601C27.8532 185.668 27.8692 185.734 27.8888 185.798Z" fill="#263238"/>
<path d="M59.5978 205.521C59.5531 205.459 59.516 205.391 59.4874 205.32L59.2138 204.734C58.9738 204.187 58.6474 203.448 58.2538 202.555C57.4522 200.707 56.3626 198.153 55.1914 195.312C54.0202 192.47 52.9834 189.893 52.2682 188.016C51.9082 187.056 51.625 186.312 51.4426 185.779C51.3562 185.534 51.289 185.333 51.2314 185.165C51.2046 185.093 51.1852 185.019 51.1738 184.944C51.2178 185.006 51.2533 185.074 51.2794 185.145L51.529 185.745C51.7546 186.302 52.057 187.046 52.4218 187.953C53.1994 189.845 54.2506 192.398 55.4074 195.225C56.5642 198.053 57.6298 200.597 58.4074 202.488L59.305 204.696C59.3962 204.941 59.473 205.137 59.5354 205.301C59.5687 205.37 59.5898 205.445 59.5978 205.521Z" fill="#263238"/>
<path d="M44.7178 194.616C44.7187 194.85 44.6502 195.079 44.5208 195.274C44.3914 195.469 44.207 195.621 43.9911 195.711C43.7751 195.801 43.5373 195.824 43.3078 195.779C43.0783 195.734 42.8675 195.621 42.7021 195.456C42.5366 195.29 42.4241 195.079 42.3787 194.85C42.3332 194.62 42.357 194.383 42.447 194.167C42.537 193.951 42.6891 193.766 42.884 193.637C43.0789 193.508 43.3078 193.439 43.5418 193.44C43.8537 193.44 44.1528 193.564 44.3733 193.784C44.5939 194.005 44.7178 194.304 44.7178 194.616Z" fill="white"/>
<path d="M68.0697 165.351C68.1081 165.351 67.7625 166.018 67.2777 167.093C66.0087 169.9 65.1798 172.885 64.8201 175.944C64.6761 177.12 64.6377 177.864 64.5945 177.864C64.5688 177.692 64.5688 177.518 64.5945 177.346C64.5945 177.015 64.5945 176.535 64.6617 175.939C64.933 172.842 65.776 169.821 67.1481 167.031C67.4121 166.498 67.6281 166.071 67.8153 165.792C67.8819 165.635 67.9674 165.487 68.0697 165.351Z" fill="#263238"/>
<path d="M104.324 178.215C104.238 178.241 104.15 178.255 104.06 178.258L103.297 178.33L100.446 178.57L90.6969 179.304H90.5721V179.179C90.4905 177.883 90.4041 176.515 90.3177 175.114C90.1785 172.666 90.0585 170.314 90.0201 168.207C89.896 166.308 90.328 164.415 91.2633 162.759C91.9054 161.641 92.8529 160.731 93.9945 160.133C94.3027 159.979 94.624 159.852 94.9545 159.754C95.0694 159.718 95.1865 159.689 95.3049 159.667C95.3049 159.706 94.8249 159.807 94.0329 160.219C92.9322 160.838 92.0236 161.748 91.4073 162.85C90.5178 164.49 90.1195 166.351 90.2601 168.211C90.3081 170.328 90.4329 172.661 90.5721 175.109C90.6585 176.511 90.7401 177.879 90.8217 179.17L90.6873 179.055L100.446 178.411L103.326 178.243L104.089 178.215H104.324Z" fill="#263238"/>
<path d="M80.4057 186.528C80.2577 186.499 80.1152 186.448 79.9833 186.375C79.8181 186.305 79.6578 186.225 79.5033 186.135C79.2962 186.023 79.0959 185.9 78.9033 185.765C78.3926 185.42 77.921 185.021 77.4969 184.575C76.9837 184.021 76.533 183.412 76.1529 182.76C75.7862 182.1 75.4948 181.402 75.2841 180.677C75.1169 180.085 75.0139 179.477 74.9769 178.863C74.9628 178.628 74.9628 178.392 74.9769 178.157C74.9776 177.979 74.9904 177.801 75.0153 177.624C75.0197 177.472 75.0488 177.321 75.1017 177.178C75.1497 177.178 75.0681 177.826 75.1689 178.848C75.2292 179.445 75.3465 180.035 75.5193 180.61C75.74 181.312 76.0311 181.991 76.3881 182.635C76.7556 183.271 77.1883 183.866 77.6793 184.411C78.0875 184.853 78.5359 185.257 79.0185 185.616C79.8345 186.226 80.4297 186.485 80.4057 186.528Z" fill="#263238"/>
</svg>
