<svg width="51" height="50" viewBox="0 0 51 50" fill="none" xmlns="http://www.w3.org/2000/svg">
<path d="M24.4577 8.33317C22.5238 8.33317 20.6691 9.1014 19.3017 10.4689C17.9342 11.8363 17.166 13.691 17.166 15.6248C17.166 17.5587 17.9342 19.4134 19.3017 20.7808C20.6691 22.1483 22.5238 22.9165 24.4577 22.9165C26.3916 22.9165 28.2462 22.1483 29.6137 20.7808C30.9811 19.4134 31.7494 17.5587 31.7494 15.6248C31.7494 13.691 30.9811 11.8363 29.6137 10.4689C28.2462 9.1014 26.3916 8.33317 24.4577 8.33317ZM12.9993 15.6248C12.9993 12.5859 14.2066 9.67143 16.3554 7.52257C18.5043 5.37372 21.4187 4.1665 24.4577 4.1665C27.4966 4.1665 30.4111 5.37372 32.5599 7.52257C34.7088 9.67143 35.916 12.5859 35.916 15.6248C35.916 18.6638 34.7088 21.5783 32.5599 23.7271C30.4111 25.876 27.4966 27.0832 24.4577 27.0832C21.4187 27.0832 18.5043 25.876 16.3554 23.7271C14.2066 21.5783 12.9993 18.6638 12.9993 15.6248ZM37.9994 30.2082C36.0655 30.2082 34.2108 30.9764 32.8434 32.3439C31.4759 33.7113 30.7077 35.566 30.7077 37.4998C30.7077 39.4337 31.4759 41.2884 32.8434 42.6558C34.2108 44.0233 36.0655 44.7915 37.9994 44.7915C39.9332 44.7915 41.7879 44.0233 43.1553 42.6558C44.5228 41.2884 45.291 39.4337 45.291 37.4998C45.291 35.566 44.5228 33.7113 43.1553 32.3439C41.7879 30.9764 39.9332 30.2082 37.9994 30.2082ZM26.541 37.4998C26.541 35.9951 26.8374 34.5051 27.4132 33.1149C27.9891 31.7247 28.8331 30.4616 29.8971 29.3976C30.9611 28.3336 32.2242 27.4896 33.6144 26.9137C35.0046 26.3379 36.4946 26.0415 37.9994 26.0415C39.5041 26.0415 40.9941 26.3379 42.3843 26.9137C43.7745 27.4896 45.0376 28.3336 46.1016 29.3976C47.1656 30.4616 48.0096 31.7247 48.5855 33.1149C49.1613 34.5051 49.4577 35.9951 49.4577 37.4998C49.4577 40.5388 48.2505 43.4533 46.1016 45.6021C43.9528 47.751 41.0383 48.9582 37.9994 48.9582C34.9604 48.9582 32.0459 47.751 29.8971 45.6021C27.7482 43.4533 26.541 40.5388 26.541 37.4998ZM17.166 33.3332C14.9559 33.3332 12.8363 34.2111 11.2735 35.774C9.71066 37.3368 8.83268 39.4564 8.83268 41.6665H23.5202V45.8332H4.66602V41.6665C4.66602 38.3513 5.98298 35.1719 8.32718 32.8277C10.6714 30.4835 13.8508 29.1665 17.166 29.1665H23.416V33.3332H17.166ZM40.0827 32.8165V36.6373L43.0285 39.5832L40.0827 42.529L35.916 38.3623V32.8165H40.0827Z" fill="#7B6DDB"/>
</svg>
