<svg width="105" height="83" viewBox="0 0 105 83" fill="none" xmlns="http://www.w3.org/2000/svg">
<path d="M49.7271 78.2226V82.3348H30.8643V78.2226H31.937C34.0826 78.2226 35.1553 77.7756 35.1553 76.6134C35.1553 75.0043 34.7083 70.892 33.9038 66.0646H16.5607L15.1304 75.0043C15.041 75.7194 15.041 76.1664 15.041 76.7028C15.041 77.9544 16.0243 78.2226 18.0805 78.2226H19.2426V82.3348H6.72705V78.2226H7.79982C9.40896 78.2226 10.2135 77.418 10.6605 75.6301C12.3591 69.9086 21.12 19.7568 24.0701 0H32.831C35.0659 18.7734 39.7146 46.4866 43.8268 65.7964C45.9724 76.2558 46.33 76.971 46.7769 77.5074C47.2239 78.0438 47.6709 78.2226 48.8331 78.2226H49.7271ZM17.1865 62.0417H33.3674L26.1262 14.0354C25.411 17.4325 17.9017 57.393 17.1865 62.0417Z" fill="#C98B9E"/>
<path d="M57.0488 30.9507C58.4763 30.9507 59.863 31.3993 60.6787 32.8676V30.9507H62.3101V36.7015H60.6787V36.3344C60.6787 34.4175 59.5775 32.7045 57.4974 32.7045C55.9884 32.7045 55.2135 33.561 55.2135 35.0293C55.2135 36.1305 55.7029 36.8238 56.7225 37.5172C57.4567 38.0066 58.4355 38.4552 59.7407 39.1078C62.0654 40.1682 63.3298 42.126 63.3298 44.6955C63.3298 49.1003 60.2709 51.3843 56.6002 51.3843C53.7044 51.3843 50.9718 49.4674 50.7271 45.8782L51.9506 45.552C52.2769 48.0399 54.3162 49.5897 56.4778 49.5897C58.3132 49.5897 59.6591 48.4477 59.6591 46.3269C59.6591 45.1033 59.4144 44.5323 58.5987 43.7166C57.4974 42.5746 54.5201 41.4326 53.1742 40.0867C52.0322 38.9447 51.5428 37.5987 51.5428 36.212C51.5428 33.0308 53.8675 30.9507 57.0488 30.9507Z" fill="#C98B9E"/>
<path d="M81.3386 54.5148V56.3259H73.7398V54.5148H74.291C75.5903 54.5148 75.6297 54.2392 75.6297 50.1051V42.3094C75.6297 40.7345 74.5666 39.0809 72.8342 39.0809C71.0625 39.0809 69.9601 40.6558 69.9601 42.3881V50.4595C69.9601 53.5305 70.1175 54.5148 71.8893 54.5148V56.3259H64.3298V54.5148H64.9204C65.6291 54.5148 66.0228 54.1211 66.0622 53.2943C66.2984 48.4908 66.3378 44.0024 66.3378 39.2384C66.3378 36.3248 66.2984 33.2144 66.0622 29.0016C65.9441 27.8598 65.4323 27.8204 64.3298 27.8204V26.0093H70.1569C70.1569 28.6472 70.1175 32.5057 69.9994 38.5297C70.7081 37.506 71.7318 36.9941 73.4248 36.9941C76.7715 36.9941 79.4881 39.3171 79.4881 42.7819V48.0971C79.4881 54.3967 79.8819 54.5148 81.3386 54.5148Z" fill="#C98B9E"/>
<path d="M82.3386 22.9146H91.4948C96.9251 22.9146 98.2728 26.5612 98.2728 31.3573C98.2728 34.449 97.8367 35.9552 96.6873 37.4218C95.4585 38.928 93.5559 39.6415 91.1777 39.6415H87.8878C87.8878 55.2982 88.1257 55.972 88.6013 56.844C88.9184 57.4386 89.394 57.5971 89.9886 57.5971H90.821V59.4204H82.3386V57.5971H82.735C83.3296 57.5971 83.6467 57.4782 83.9241 57.0026C84.3205 56.3287 84.3601 55.5756 84.3601 48.322C84.3601 42.0593 84.3998 37.5407 84.3998 34.2112C84.3998 25.0153 84.1223 24.6982 82.3386 24.6982V22.9146ZM90.3057 24.6982H89.5922C89.0769 24.6982 88.6409 25.055 88.4031 25.6099C88.0067 26.4423 87.8878 27.4332 87.8878 37.8182H90.3057C93.9127 37.8182 94.1505 34.7264 94.1505 31.8726C94.1505 28.3449 93.873 26.8386 93.1992 25.9666C92.565 25.055 91.4948 24.6982 90.3057 24.6982Z" fill="#C98B9E"/>
</svg>
