<svg width="106" height="50" viewBox="0 0 106 50" fill="none" xmlns="http://www.w3.org/2000/svg">
<path d="M41.7271 47.2974V49.7839H30.3216V47.2974H30.9703C32.2676 47.2974 32.9162 47.0271 32.9162 46.3244C32.9162 45.3514 32.646 42.8649 32.1595 39.946H21.673L20.8081 45.3514C20.7541 45.7838 20.7541 46.0541 20.7541 46.3784C20.7541 47.1352 21.3487 47.2974 22.5919 47.2974H23.2946V49.7839H15.7271V47.2974H16.3757C17.3487 47.2974 17.8352 46.8109 18.1054 45.7298C19.1325 42.2703 24.4298 11.946 26.2135 0H31.5108C32.8622 11.3514 35.673 28.1082 38.1595 39.7838C39.4568 46.1082 39.673 46.5406 39.9433 46.8649C40.2135 47.1893 40.4838 47.2974 41.1865 47.2974H41.7271ZM22.0514 37.5136H31.8352L27.4568 8.4865C27.0243 10.5406 22.4838 34.7028 22.0514 37.5136Z" fill="#C98B9E"/>
<path d="M49.0488 14.6753C50.4763 14.6753 51.863 15.1239 52.6787 16.5922V14.6753H54.3101V20.4261H52.6787V20.059C52.6787 18.1421 51.5775 16.4291 49.4974 16.4291C47.9884 16.4291 47.2135 17.2856 47.2135 18.7539C47.2135 19.8551 47.7029 20.5484 48.7225 21.2418C49.4567 21.7312 50.4355 22.1799 51.7407 22.8324C54.0654 23.8929 55.3298 25.8506 55.3298 28.4201C55.3298 32.8249 52.2709 35.1089 48.6002 35.1089C45.7044 35.1089 42.9718 33.192 42.7271 29.6028L43.9506 29.2766C44.2769 31.7645 46.3162 33.3143 48.4778 33.3143C50.3132 33.3143 51.6591 32.1723 51.6591 30.0515C51.6591 28.8279 51.4144 28.2569 50.5987 27.4412C49.4974 26.2992 46.5201 25.1572 45.1742 23.8113C44.0322 22.6693 43.5428 21.3234 43.5428 19.9366C43.5428 16.7554 45.8675 14.6753 49.0488 14.6753Z" fill="#C98B9E"/>
<path d="M73.3386 38.2389V40.05H65.7398V38.2389H66.291C67.5903 38.2389 67.6297 37.9633 67.6297 33.8292V26.0335C67.6297 24.4586 66.5666 22.805 64.8342 22.805C63.0625 22.805 61.9601 24.3799 61.9601 26.1123V34.1836C61.9601 37.2546 62.1175 38.2389 63.8893 38.2389V40.05H56.3298V38.2389H56.9204C57.6291 38.2389 58.0228 37.8452 58.0622 37.0184C58.2984 32.215 58.3378 27.7265 58.3378 22.9625C58.3378 20.0489 58.2984 16.9385 58.0622 12.7257C57.9441 11.5839 57.4323 11.5445 56.3298 11.5445V9.7334H62.1569C62.1569 12.3713 62.1175 16.2298 61.9994 22.2538C62.7081 21.2301 63.7318 20.7183 65.4248 20.7183C68.7715 20.7183 71.4881 23.0412 71.4881 26.506V31.8212C71.4881 38.1208 71.8819 38.2389 73.3386 38.2389Z" fill="#C98B9E"/>
<path d="M74.3386 6.63916H83.4948C88.9251 6.63916 90.2728 10.2858 90.2728 15.0819C90.2728 18.1736 89.8367 19.6798 88.6873 21.1464C87.4585 22.6526 85.5559 23.3661 83.1777 23.3661H79.8878C79.8878 39.0228 80.1257 39.6966 80.6013 40.5686C80.9184 41.1632 81.394 41.3217 81.9886 41.3217H82.821V43.1451H74.3386V41.3217H74.735C75.3296 41.3217 75.6467 41.2028 75.9241 40.7272C76.3205 40.0533 76.3601 39.3002 76.3601 32.0466C76.3601 25.7839 76.3998 21.2653 76.3998 17.9358C76.3998 8.73993 76.1223 8.42284 74.3386 8.42284V6.63916ZM82.3057 8.42284H81.5922C81.0769 8.42284 80.6409 8.77957 80.4031 9.33449C80.0067 10.1669 79.8878 11.1578 79.8878 21.5428H82.3057C85.9127 21.5428 86.1505 18.4511 86.1505 15.5972C86.1505 12.0695 85.873 10.5632 85.1992 9.69123C84.565 8.77957 83.4948 8.42284 82.3057 8.42284Z" fill="#C98B9E"/>
</svg>
