<svg width="215" height="226" viewBox="0 0 215 226" fill="none" xmlns="http://www.w3.org/2000/svg">
<rect width="215" height="220" rx="107.5" fill="url(#paint0_linear_4001_736)"/>
<g filter="url(#filter0_dd_4001_736)">
<path d="M129.727 190.142V199.036H88.9308V190.142H91.251C95.8913 190.142 98.2115 189.176 98.2115 186.662C98.2115 183.182 97.2447 174.288 95.5046 163.847H57.9952L54.9017 183.182C54.7083 184.729 54.7083 185.695 54.7083 186.856C54.7083 189.562 56.8352 190.142 61.2821 190.142H63.7957V199.036H36.7271V190.142H39.0472C42.5275 190.142 44.2676 188.402 45.2343 184.535C48.9079 172.161 67.856 63.6932 74.2364 20.9634H93.1844C98.0181 61.5664 108.072 121.504 116.966 163.267C121.606 185.889 122.38 187.436 123.347 188.596C124.313 189.756 125.28 190.142 127.794 190.142H129.727ZM59.3487 155.147H94.3445L78.6834 51.3189C77.1366 58.6661 60.8955 145.092 59.3487 155.147Z" fill="#C98B9E"/>
</g>
<path d="M137.049 99.7832C138.476 99.7832 139.863 100.232 140.679 101.7V99.7832H142.31V105.534H140.679V105.167C140.679 103.25 139.578 101.537 137.497 101.537C135.988 101.537 135.213 102.393 135.213 103.862C135.213 104.963 135.703 105.656 136.723 106.35C137.457 106.839 138.436 107.288 139.741 107.94C142.065 109.001 143.33 110.958 143.33 113.528C143.33 117.933 140.271 120.217 136.6 120.217C133.704 120.217 130.972 118.3 130.727 114.711L131.951 114.384C132.277 116.872 134.316 118.422 136.478 118.422C138.313 118.422 139.659 117.28 139.659 115.159C139.659 113.936 139.414 113.365 138.599 112.549C137.497 111.407 134.52 110.265 133.174 108.919C132.032 107.777 131.543 106.431 131.543 105.045C131.543 101.863 133.868 99.7832 137.049 99.7832Z" fill="#C98B9E"/>
<path d="M161.339 123.347V125.158H153.74V123.347H154.291C155.59 123.347 155.63 123.072 155.63 118.938V111.142C155.63 109.567 154.567 107.913 152.834 107.913C151.062 107.913 149.96 109.488 149.96 111.221V119.292C149.96 122.363 150.118 123.347 151.889 123.347V125.158H144.33V123.347H144.92C145.629 123.347 146.023 122.954 146.062 122.127C146.298 117.323 146.338 112.835 146.338 108.071C146.338 105.157 146.298 102.047 146.062 97.8341C145.944 96.6923 145.432 96.6529 144.33 96.6529V94.8418H150.157C150.157 97.4797 150.118 101.338 149.999 107.362C150.708 106.338 151.732 105.827 153.425 105.827C156.771 105.827 159.488 108.15 159.488 111.614V116.93C159.488 123.229 159.882 123.347 161.339 123.347Z" fill="#C98B9E"/>
<path d="M162.339 91.7471H171.495C176.925 91.7471 178.273 95.3937 178.273 100.19C178.273 103.282 177.837 104.788 176.687 106.254C175.459 107.761 173.556 108.474 171.178 108.474H167.888C167.888 124.131 168.126 124.805 168.601 125.677C168.918 126.271 169.394 126.43 169.989 126.43H170.821V128.253H162.339V126.43H162.735C163.33 126.43 163.647 126.311 163.924 125.835C164.32 125.161 164.36 124.408 164.36 117.155C164.36 110.892 164.4 106.373 164.4 103.044C164.4 93.8478 164.122 93.5307 162.339 93.5307V91.7471ZM170.306 93.5307H169.592C169.077 93.5307 168.641 93.8875 168.403 94.4424C168.007 95.2748 167.888 96.2657 167.888 106.651H170.306C173.913 106.651 174.15 103.559 174.15 100.705C174.15 97.1774 173.873 95.6712 173.199 94.7991C172.565 93.8875 171.495 93.5307 170.306 93.5307Z" fill="#C98B9E"/>
<defs>
<filter id="filter0_dd_4001_736" x="18.7271" y="10.9634" width="129" height="214.073" filterUnits="userSpaceOnUse" color-interpolation-filters="sRGB">
<feFlood flood-opacity="0" result="BackgroundImageFix"/>
<feColorMatrix in="SourceAlpha" type="matrix" values="0 0 0 0 0 0 0 0 0 0 0 0 0 0 0 0 0 0 127 0" result="hardAlpha"/>
<feOffset dy="4"/>
<feGaussianBlur stdDeviation="2"/>
<feColorMatrix type="matrix" values="0 0 0 0 0 0 0 0 0 0 0 0 0 0 0 0 0 0 0.3 0"/>
<feBlend mode="normal" in2="BackgroundImageFix" result="effect1_dropShadow_4001_736"/>
<feColorMatrix in="SourceAlpha" type="matrix" values="0 0 0 0 0 0 0 0 0 0 0 0 0 0 0 0 0 0 127 0" result="hardAlpha"/>
<feMorphology radius="6" operator="dilate" in="SourceAlpha" result="effect2_dropShadow_4001_736"/>
<feOffset dy="8"/>
<feGaussianBlur stdDeviation="6"/>
<feColorMatrix type="matrix" values="0 0 0 0 0 0 0 0 0 0 0 0 0 0 0 0 0 0 0.15 0"/>
<feBlend mode="normal" in2="effect1_dropShadow_4001_736" result="effect2_dropShadow_4001_736"/>
<feBlend mode="normal" in="SourceGraphic" in2="effect2_dropShadow_4001_736" result="shape"/>
</filter>
<linearGradient id="paint0_linear_4001_736" x1="107.5" y1="0" x2="107.5" y2="220" gradientUnits="userSpaceOnUse">
<stop offset="0.795" stop-color="#D0E3DD"/>
<stop offset="1" stop-color="#FC909F"/>
</linearGradient>
</defs>
</svg>
