<svg width="105" height="108" viewBox="0 0 105 108" fill="none" xmlns="http://www.w3.org/2000/svg">
<rect width="105" height="107.227" rx="52.5" fill="#D0E3DD"/>
<path d="M56.2271 101.871V107.227H31.6616V101.871H33.0587C35.8528 101.871 37.2499 101.289 37.2499 99.7756C37.2499 97.68 36.6678 92.3245 35.62 86.0376H13.0337L11.1709 97.68C11.0545 98.6114 11.0545 99.1935 11.0545 99.8921C11.0545 101.522 12.3352 101.871 15.0129 101.871H16.5264V107.227H0.227051V101.871H1.62414C3.71977 101.871 4.76759 100.823 5.34971 98.495C7.56177 91.0438 18.9713 25.7298 22.8133 0H34.2229C37.1335 24.4491 43.1875 60.5406 48.5431 85.6883C51.3372 99.3099 51.8029 100.241 52.3851 100.94C52.9672 101.638 53.5493 101.871 55.0628 101.871H56.2271ZM13.8487 80.7985H34.9214L25.4911 18.2786C24.5597 22.7027 14.7801 74.7444 13.8487 80.7985Z" fill="#C98B9E"/>
<path d="M63.5488 43.3965C64.9763 43.3965 66.363 43.8451 67.1787 45.3134V43.3965H68.8101V49.1473H67.1787V48.7802C67.1787 46.8633 66.0775 45.1503 63.9974 45.1503C62.4884 45.1503 61.7135 46.0068 61.7135 47.4751C61.7135 48.5763 62.2029 49.2696 63.2225 49.963C63.9567 50.4524 64.9355 50.901 66.2407 51.5536C68.5654 52.614 69.8298 54.5718 69.8298 57.1413C69.8298 61.5461 66.7709 63.8301 63.1002 63.8301C60.2044 63.8301 57.4718 61.9132 57.2271 58.324L58.4506 57.9978C58.7769 60.4857 60.8162 62.0355 62.9778 62.0355C64.8132 62.0355 66.1591 60.8935 66.1591 58.7727C66.1591 57.5491 65.9144 56.9781 65.0987 56.1624C63.9974 55.0204 61.0201 53.8784 59.6742 52.5325C58.5322 51.3905 58.0428 50.0445 58.0428 48.6578C58.0428 45.4766 60.3675 43.3965 63.5488 43.3965Z" fill="#C98B9E"/>
<path d="M87.8386 66.9606V68.7717H80.2398V66.9606H80.791C82.0903 66.9606 82.1297 66.685 82.1297 62.5509V54.7552C82.1297 53.1803 81.0666 51.5267 79.3342 51.5267C77.5625 51.5267 76.4601 53.1016 76.4601 54.8339V62.9053C76.4601 65.9763 76.6175 66.9606 78.3893 66.9606V68.7717H70.8298V66.9606H71.4204C72.1291 66.9606 72.5228 66.5669 72.5622 65.7401C72.7984 60.9366 72.8378 56.4482 72.8378 51.6842C72.8378 48.7706 72.7984 45.6602 72.5622 41.4474C72.4441 40.3056 71.9323 40.2662 70.8298 40.2662V38.4551H76.6569C76.6569 41.093 76.6175 44.9515 76.4994 50.9755C77.2081 49.9518 78.2318 49.4399 79.9248 49.4399C83.2715 49.4399 85.9881 51.7629 85.9881 55.2277V60.5429C85.9881 66.8425 86.3819 66.9606 87.8386 66.9606Z" fill="#C98B9E"/>
<path d="M88.8386 35.3604H97.9948C103.425 35.3604 104.773 39.007 104.773 43.8031C104.773 46.8948 104.337 48.401 103.187 49.8676C101.959 51.3738 100.056 52.0873 97.6777 52.0873H94.3878C94.3878 67.744 94.6257 68.4178 95.1013 69.2898C95.4184 69.8844 95.894 70.0429 96.4886 70.0429H97.321V71.8662H88.8386V70.0429H89.235C89.8296 70.0429 90.1467 69.924 90.4241 69.4484C90.8205 68.7745 90.8601 68.0214 90.8601 60.7678C90.8601 54.5051 90.8998 49.9865 90.8998 46.657C90.8998 37.4611 90.6223 37.144 88.8386 37.144V35.3604ZM96.8057 37.144H96.0922C95.5769 37.144 95.1409 37.5008 94.9031 38.0557C94.5067 38.8881 94.3878 39.879 94.3878 50.264H96.8057C100.413 50.264 100.65 47.1722 100.65 44.3184C100.65 40.7907 100.373 39.2844 99.6992 38.4124C99.065 37.5008 97.9948 37.144 96.8057 37.144Z" fill="#C98B9E"/>
</svg>
