<svg width="363" height="226" viewBox="0 0 363 226" fill="none" xmlns="http://www.w3.org/2000/svg">
<rect width="363" height="220" fill="#D0E3DD"/>
<g filter="url(#filter0_dd_4001_736)">
<path d="M128.5 190.142V199.036H87.7037V190.142H90.0239C94.6642 190.142 96.9844 189.176 96.9844 186.662C96.9844 183.182 96.0177 174.288 94.2775 163.847H56.7682L53.6746 183.182C53.4813 184.729 53.4813 185.695 53.4813 186.856C53.4813 189.562 55.6081 190.142 60.0551 190.142H62.5686V199.036H35.5V190.142H37.8202C41.3004 190.142 43.0405 188.402 44.0073 184.535C47.6809 172.161 66.6289 63.6932 73.0094 20.9634H91.9574C96.7911 61.5664 106.845 121.504 115.739 163.267C120.379 185.889 121.153 187.436 122.12 188.596C123.086 189.756 124.053 190.142 126.567 190.142H128.5ZM58.1216 155.147H93.1175L77.4563 51.3189C75.9096 58.6661 59.6684 145.092 58.1216 155.147Z" fill="#C98B9E"/>
</g>
<path d="M160.604 58.1162C167.853 58.1162 174.895 60.3945 179.037 67.8509V58.1162H187.322V87.3202H179.037V85.4561C179.037 75.7215 173.445 67.0224 162.882 67.0224C155.218 67.0224 151.283 71.3719 151.283 78.8283C151.283 84.4205 153.769 87.9416 158.947 91.4626C162.675 93.9481 167.646 96.2264 174.273 99.5403C186.079 104.925 192.5 114.867 192.5 127.916C192.5 150.285 176.966 161.884 158.325 161.884C143.62 161.884 129.743 152.149 128.5 133.922L134.714 132.265C136.371 144.9 146.727 152.77 157.704 152.77C167.024 152.77 173.859 146.971 173.859 136.201C173.859 129.987 172.617 127.087 168.474 122.945C162.882 117.146 147.762 111.346 140.927 104.511C135.128 98.7119 132.642 91.8769 132.642 84.8348C132.642 68.6794 144.448 58.1162 160.604 58.1162Z" fill="#C98B9E"/>
<path d="M260.5 163.361V170.602H230.12V163.361H232.324C237.519 163.361 237.676 162.259 237.676 145.731V114.565C237.676 108.268 233.426 101.657 226.5 101.657C219.417 101.657 215.009 107.954 215.009 114.88V147.148C215.009 159.426 215.639 163.361 222.722 163.361V170.602H192.5V163.361H194.861C197.694 163.361 199.269 161.787 199.426 158.481C200.37 139.278 200.528 121.333 200.528 102.287C200.528 90.6387 200.37 78.2035 199.426 61.3609C198.954 56.7961 196.907 56.6387 192.5 56.6387V49.3979H215.796C215.796 59.9443 215.639 75.3702 215.167 99.4536C218 95.361 222.093 93.3147 228.861 93.3147C242.241 93.3147 253.102 102.602 253.102 116.454V137.704C253.102 162.889 254.676 163.361 260.5 163.361Z" fill="#C98B9E"/>
<path d="M260.5 33.25H299C321.833 33.25 327.5 48.5834 327.5 68.7501C327.5 81.7501 325.667 88.0834 320.833 94.2501C315.667 100.583 307.667 103.583 297.667 103.583H283.833C283.833 169.417 284.833 172.25 286.833 175.917C288.167 178.417 290.167 179.084 292.667 179.084H296.167V186.75H260.5V179.084H262.167C264.667 179.084 266 178.584 267.167 176.584C268.833 173.75 269 170.584 269 140.083C269 113.75 269.167 94.7501 269.167 80.7501C269.167 42.0834 268 40.75 260.5 40.75V33.25ZM294 40.75H291C288.833 40.75 287 42.25 286 44.5834C284.333 48.0834 283.833 52.25 283.833 95.9168H294C309.167 95.9168 310.167 82.9167 310.167 70.9167C310.167 56.0834 309 49.75 306.167 46.0834C303.5 42.25 299 40.75 294 40.75Z" fill="#C98B9E"/>
<defs>
<filter id="filter0_dd_4001_736" x="17.5" y="10.9634" width="129" height="214.073" filterUnits="userSpaceOnUse" color-interpolation-filters="sRGB">
<feFlood flood-opacity="0" result="BackgroundImageFix"/>
<feColorMatrix in="SourceAlpha" type="matrix" values="0 0 0 0 0 0 0 0 0 0 0 0 0 0 0 0 0 0 127 0" result="hardAlpha"/>
<feOffset dy="4"/>
<feGaussianBlur stdDeviation="2"/>
<feColorMatrix type="matrix" values="0 0 0 0 0 0 0 0 0 0 0 0 0 0 0 0 0 0 0.3 0"/>
<feBlend mode="normal" in2="BackgroundImageFix" result="effect1_dropShadow_4001_736"/>
<feColorMatrix in="SourceAlpha" type="matrix" values="0 0 0 0 0 0 0 0 0 0 0 0 0 0 0 0 0 0 127 0" result="hardAlpha"/>
<feMorphology radius="6" operator="dilate" in="SourceAlpha" result="effect2_dropShadow_4001_736"/>
<feOffset dy="8"/>
<feGaussianBlur stdDeviation="6"/>
<feColorMatrix type="matrix" values="0 0 0 0 0 0 0 0 0 0 0 0 0 0 0 0 0 0 0.15 0"/>
<feBlend mode="normal" in2="effect1_dropShadow_4001_736" result="effect2_dropShadow_4001_736"/>
<feBlend mode="normal" in="SourceGraphic" in2="effect2_dropShadow_4001_736" result="shape"/>
</filter>
</defs>
</svg>
