<svg width="173" height="81" viewBox="0 0 173 81" fill="none" xmlns="http://www.w3.org/2000/svg">
<g filter="url(#filter0_d_12_75)">
<path d="M53.6475 10.3857L24.2322 3L15 39.7692L44.4154 47.1549L53.6475 10.3857ZM26.9859 7.60013L36.1782 9.90817L32.4853 24.6158L28.5816 20.7041L23.293 22.3078L26.9859 7.60013Z" fill="url(#paint0_linear_12_75)" fill-opacity="0.7" shape-rendering="crispEdges"/>
</g>
<rect x="110" y="54" width="58" height="14" fill="#D9D9D9"/>
<g filter="url(#filter1_d_12_75)">
<path d="M70.522 74L81.6319 54.7571C88.9951 42.0036 84.6254 25.6957 71.8719 18.3324L69.9472 17.2211C58.2566 10.4716 43.3079 14.4771 36.5584 26.1676C29.8089 37.8582 33.8143 52.8068 45.5049 59.5564L70.522 74Z" fill="#D54974"/>
<path d="M70.4305 73.6585L81.4154 54.6321C88.7096 41.9981 84.3809 25.8431 71.7469 18.5489L69.8222 17.4377C58.2512 10.7571 43.4554 14.7216 36.7749 26.2926C30.0944 37.8636 34.0589 52.6594 45.6299 59.3399L70.4305 73.6585Z" stroke="#201D06" stroke-width="0.5"/>
</g>
<path d="M74.4574 59.3164C76.0964 59.3164 77.425 57.9878 77.425 56.3488V39.547C77.425 29.24 69.0695 20.8844 58.7624 20.8844C48.4553 20.8844 40.0998 29.24 40.0998 39.547V40.1004C40.0998 50.7131 48.7031 59.3164 59.3158 59.3164H74.4574Z" fill="#1E1E1E"/>
<circle cx="58.8954" cy="41.0595" r="17.1571" fill="#E1A793"/>
<g filter="url(#filter2_d_12_75)">
<rect x="51.4346" y="34.5103" width="12.6963" height="0.686285" fill="black"/>
</g>
<g filter="url(#filter3_d_12_75)">
<circle cx="52.0032" cy="36.9124" r="3.43143" fill="#F9EFCC"/>
<circle cx="52.0032" cy="36.9124" r="3.25986" stroke="black" stroke-width="0.343143"/>
</g>
<g filter="url(#filter4_d_12_75)">
<circle cx="63.5623" cy="36.9124" r="3.43143" fill="#F9EFCC"/>
<circle cx="63.5623" cy="36.9124" r="3.25986" stroke="black" stroke-width="0.343143"/>
</g>
<path d="M109.53 36.5474H105.31L111.09 23.1474H116.47L122.27 36.5474H117.95L114.77 28.8074L113.89 26.5474H113.63L112.77 28.8074L109.53 36.5474ZM118.61 34.0674H108.73V30.6874H118.61V34.0674ZM130.292 36.7474C128.519 36.7474 127.165 36.4207 126.232 35.7674C125.299 35.114 124.832 34.2074 124.832 33.0474V32.9674H128.592V33.1674C128.592 33.4474 128.705 33.6207 128.932 33.6874C129.172 33.754 129.632 33.7874 130.312 33.7874C130.965 33.7874 131.379 33.754 131.552 33.6874C131.725 33.6074 131.812 33.4807 131.812 33.3074C131.812 33.1474 131.745 33.0407 131.612 32.9874C131.479 32.9207 131.179 32.8607 130.712 32.8074L127.792 32.4874C126.752 32.3807 125.959 32.0874 125.412 31.6074C124.865 31.114 124.592 30.4407 124.592 29.5874C124.592 28.9874 124.759 28.4407 125.092 27.9474C125.439 27.4407 125.992 27.034 126.752 26.7274C127.525 26.4207 128.539 26.2674 129.792 26.2674C130.965 26.2674 131.945 26.4074 132.732 26.6874C133.532 26.9674 134.132 27.3874 134.532 27.9474C134.945 28.494 135.152 29.1807 135.152 30.0074V30.0874H131.392V29.9674C131.392 29.794 131.352 29.654 131.272 29.5474C131.205 29.4274 131.045 29.3407 130.792 29.2874C130.552 29.234 130.179 29.2074 129.672 29.2074C129.059 29.2074 128.672 29.254 128.512 29.3474C128.365 29.4274 128.292 29.5607 128.292 29.7474C128.292 29.8807 128.365 29.9874 128.512 30.0674C128.672 30.1474 129.045 30.2207 129.632 30.2874L131.632 30.5074C133.099 30.6674 134.112 30.994 134.672 31.4874C135.232 31.9807 135.512 32.654 135.512 33.5074C135.512 34.134 135.305 34.694 134.892 35.1874C134.492 35.6674 133.905 36.0474 133.132 36.3274C132.359 36.6074 131.412 36.7474 130.292 36.7474ZM150.555 36.5474H146.795V31.4674C146.795 30.7607 146.635 30.2807 146.315 30.0274C145.995 29.7607 145.402 29.6274 144.535 29.6274C143.962 29.6274 143.515 29.6807 143.195 29.7874C142.888 29.894 142.675 30.074 142.555 30.3274C142.435 30.5674 142.375 30.9074 142.375 31.3474H141.915V29.5274H142.575C142.682 28.954 142.882 28.4207 143.175 27.9274C143.482 27.434 143.915 27.034 144.475 26.7274C145.035 26.4207 145.742 26.2674 146.595 26.2674C147.488 26.2674 148.228 26.4407 148.815 26.7874C149.402 27.134 149.835 27.6074 150.115 28.2074C150.408 28.794 150.555 29.4607 150.555 30.2074V36.5474ZM142.375 36.5474H138.615V23.1474H142.375V36.5474ZM161.301 33.1674H155.141V29.7874H160.881C161.548 29.7874 162.021 29.6874 162.301 29.4874C162.595 29.2874 162.741 28.8407 162.741 28.1474C162.741 27.4674 162.595 27.0274 162.301 26.8274C162.021 26.6274 161.548 26.5274 160.881 26.5274H155.141V23.1474H161.301C162.368 23.1474 163.288 23.3474 164.061 23.7474C164.835 24.134 165.428 24.7007 165.841 25.4474C166.268 26.1807 166.481 27.0807 166.481 28.1474C166.481 29.2007 166.268 30.1074 165.841 30.8674C165.428 31.614 164.835 32.1874 164.061 32.5874C163.288 32.974 162.368 33.1674 161.301 33.1674ZM157.641 36.5474H153.881V23.1474H157.641V36.5474ZM108.67 61.5474H106.51V48.1474H113.47C114.483 48.1474 115.356 48.3007 116.09 48.6074C116.836 48.914 117.403 49.3607 117.79 49.9474C118.19 50.534 118.39 51.2474 118.39 52.0874C118.39 52.834 118.23 53.474 117.91 54.0074C117.603 54.5407 117.15 54.9607 116.55 55.2674C115.963 55.574 115.25 55.754 114.41 55.8074V55.9474C114.93 56.0807 115.33 56.3007 115.61 56.6074C115.903 56.9007 116.17 57.2607 116.41 57.6874L118.65 61.5474H116.17L114.03 57.8474C113.83 57.4874 113.61 57.2007 113.37 56.9874C113.143 56.7607 112.856 56.6007 112.51 56.5074C112.163 56.4007 111.703 56.3474 111.13 56.3474H108.67V61.5474ZM108.67 50.0874V54.6874H113.45C114.343 54.6874 115.016 54.514 115.47 54.1674C115.923 53.8207 116.15 53.2274 116.15 52.3874C116.15 51.574 115.923 50.9874 115.47 50.6274C115.016 50.2674 114.343 50.0874 113.45 50.0874H108.67ZM124.947 61.7474C123.867 61.7474 122.92 61.5474 122.107 61.1474C121.294 60.7474 120.66 60.1607 120.207 59.3874C119.767 58.614 119.547 57.6807 119.547 56.5874C119.547 55.5474 119.767 54.6407 120.207 53.8674C120.66 53.094 121.287 52.494 122.087 52.0674C122.887 51.6274 123.827 51.4074 124.907 51.4074C125.934 51.4074 126.834 51.594 127.607 51.9674C128.394 52.3274 129 52.8607 129.427 53.5674C129.867 54.2607 130.087 55.114 130.087 56.1274C130.087 56.3007 130.08 56.4674 130.067 56.6274C130.054 56.774 130.034 56.9207 130.007 57.0674H120.927V55.8674H128.587L128.027 56.6074C128.04 56.474 128.047 56.3474 128.047 56.2274C128.047 56.094 128.047 55.9607 128.047 55.8274C128.047 54.9074 127.78 54.2274 127.247 53.7874C126.727 53.334 125.934 53.1074 124.867 53.1074C123.68 53.1074 122.834 53.3807 122.327 53.9274C121.82 54.474 121.567 55.2607 121.567 56.2874V56.8074C121.567 57.8474 121.82 58.6407 122.327 59.1874C122.834 59.734 123.687 60.0074 124.887 60.0074C125.927 60.0074 126.674 59.8474 127.127 59.5274C127.594 59.194 127.827 58.734 127.827 58.1474V57.9874H129.987V58.1674C129.987 58.874 129.767 59.5007 129.327 60.0474C128.9 60.5807 128.307 61.0007 127.547 61.3074C126.8 61.6007 125.934 61.7474 124.947 61.7474ZM141.105 61.5474H139.125V58.9874L138.985 58.9274V55.5274C138.985 54.7007 138.785 54.1274 138.385 53.8074C137.998 53.474 137.325 53.3074 136.365 53.3074C135.445 53.3074 134.758 53.4674 134.305 53.7874C133.852 54.1074 133.625 54.634 133.625 55.3674V55.4474H131.485V55.3674C131.485 54.6074 131.685 53.934 132.085 53.3474C132.485 52.7474 133.058 52.274 133.805 51.9274C134.565 51.5807 135.472 51.4074 136.525 51.4074C137.578 51.4074 138.438 51.5874 139.105 51.9474C139.785 52.294 140.285 52.774 140.605 53.3874C140.938 54.0007 141.105 54.7074 141.105 55.5074V61.5474ZM134.625 61.7474C133.598 61.7474 132.778 61.5207 132.165 61.0674C131.565 60.6007 131.265 59.9607 131.265 59.1474C131.265 58.6274 131.392 58.194 131.645 57.8474C131.912 57.4874 132.285 57.2074 132.765 57.0074C133.245 56.8074 133.812 56.6674 134.465 56.5874L139.185 56.0874V57.3674L135.085 57.8274C134.525 57.894 134.105 58.014 133.825 58.1874C133.558 58.3474 133.425 58.6207 133.425 59.0074C133.425 59.4074 133.565 59.7074 133.845 59.9074C134.138 60.094 134.592 60.1874 135.205 60.1874C135.965 60.1874 136.625 60.094 137.185 59.9074C137.745 59.7074 138.185 59.4007 138.505 58.9874C138.825 58.574 138.985 58.0407 138.985 57.3874L139.265 57.4274V59.0674H138.985C138.718 59.9074 138.205 60.5674 137.445 61.0474C136.698 61.514 135.758 61.7474 134.625 61.7474ZM147.413 61.7474C146.36 61.7474 145.466 61.534 144.733 61.1074C144.013 60.6674 143.466 60.0607 143.093 59.2874C142.72 58.5007 142.533 57.6007 142.533 56.5874C142.533 55.5474 142.72 54.6407 143.093 53.8674C143.466 53.094 144.006 52.494 144.713 52.0674C145.42 51.6274 146.273 51.4074 147.273 51.4074C148.446 51.4074 149.373 51.6807 150.053 52.2274C150.733 52.774 151.173 53.4674 151.373 54.3074H151.873V56.5274H151.493C151.493 55.474 151.193 54.6874 150.593 54.1674C149.993 53.634 149.14 53.3674 148.033 53.3674C147.353 53.3674 146.76 53.474 146.253 53.6874C145.746 53.8874 145.36 54.2207 145.093 54.6874C144.84 55.154 144.713 55.7874 144.713 56.5874C144.713 57.374 144.84 58.0007 145.093 58.4674C145.36 58.934 145.746 59.2674 146.253 59.4674C146.76 59.6674 147.366 59.7674 148.073 59.7674C148.78 59.7674 149.386 59.6607 149.893 59.4474C150.413 59.2207 150.806 58.874 151.073 58.4074C151.353 57.9407 151.493 57.3674 151.493 56.6874H151.873L152.013 58.6874H151.533C151.333 59.674 150.873 60.434 150.153 60.9674C149.446 61.4874 148.533 61.7474 147.413 61.7474ZM153.653 61.5474H151.673V58.4274L151.493 58.1674V48.1474H153.653V61.5474ZM160.35 61.7474C158.75 61.7474 157.51 61.4407 156.63 60.8274C155.763 60.214 155.33 59.334 155.33 58.1874V58.1274H157.49V58.2874C157.49 58.9407 157.703 59.394 158.13 59.6474C158.57 59.8874 159.31 60.0074 160.35 60.0074C161.323 60.0074 161.983 59.9074 162.33 59.7074C162.69 59.494 162.87 59.1674 162.87 58.7274C162.87 58.314 162.73 58.0207 162.45 57.8474C162.183 57.674 161.69 57.5407 160.97 57.4474L158.25 57.0874C157.303 56.9674 156.563 56.7007 156.03 56.2874C155.497 55.8607 155.23 55.2274 155.23 54.3874C155.23 53.8007 155.403 53.2874 155.75 52.8474C156.097 52.394 156.617 52.0407 157.31 51.7874C158.003 51.534 158.857 51.4074 159.87 51.4074C160.883 51.4074 161.75 51.5407 162.47 51.8074C163.203 52.074 163.763 52.474 164.15 53.0074C164.55 53.5407 164.75 54.2007 164.75 54.9874V55.0474H162.61V54.9274C162.61 54.5407 162.53 54.214 162.37 53.9474C162.21 53.6807 161.923 53.4807 161.51 53.3474C161.11 53.2007 160.543 53.1274 159.81 53.1274C158.89 53.1274 158.25 53.234 157.89 53.4474C157.53 53.6607 157.35 54.0007 157.35 54.4674C157.35 54.854 157.483 55.134 157.75 55.3074C158.017 55.4807 158.517 55.6207 159.25 55.7274L161.55 56.0474C162.723 56.194 163.59 56.4807 164.15 56.9074C164.71 57.334 164.99 57.9607 164.99 58.7874C164.99 59.4007 164.797 59.934 164.41 60.3874C164.023 60.8274 163.483 61.1674 162.79 61.4074C162.097 61.634 161.283 61.7474 160.35 61.7474Z" fill="#201D06"/>
<path d="M166 43V68" stroke="#646464" stroke-width="0.2"/>
<defs>
<filter id="filter0_d_12_75" x="15" y="3" width="39.6475" height="46.1548" filterUnits="userSpaceOnUse" color-interpolation-filters="sRGB">
<feFlood flood-opacity="0" result="BackgroundImageFix"/>
<feColorMatrix in="SourceAlpha" type="matrix" values="0 0 0 0 0 0 0 0 0 0 0 0 0 0 0 0 0 0 127 0" result="hardAlpha"/>
<feOffset dx="1" dy="2"/>
<feComposite in2="hardAlpha" operator="out"/>
<feColorMatrix type="matrix" values="0 0 0 0 0 0 0 0 0 0 0 0 0 0 0 0 0 0 1 0"/>
<feBlend mode="normal" in2="BackgroundImageFix" result="effect1_dropShadow_12_75"/>
<feBlend mode="normal" in="SourceGraphic" in2="effect1_dropShadow_12_75" result="shape"/>
</filter>
<filter id="filter1_d_12_75" x="33.2798" y="13.9424" width="51.929" height="64.0576" filterUnits="userSpaceOnUse" color-interpolation-filters="sRGB">
<feFlood flood-opacity="0" result="BackgroundImageFix"/>
<feColorMatrix in="SourceAlpha" type="matrix" values="0 0 0 0 0 0 0 0 0 0 0 0 0 0 0 0 0 0 127 0" result="hardAlpha"/>
<feOffset dy="4"/>
<feComposite in2="hardAlpha" operator="out"/>
<feColorMatrix type="matrix" values="0 0 0 0 0.12549 0 0 0 0 0.113725 0 0 0 0 0.0235294 0 0 0 1 0"/>
<feBlend mode="normal" in2="BackgroundImageFix" result="effect1_dropShadow_12_75"/>
<feBlend mode="normal" in="SourceGraphic" in2="effect1_dropShadow_12_75" result="shape"/>
</filter>
<filter id="filter2_d_12_75" x="51.4346" y="34.5103" width="12.6963" height="1.68652" filterUnits="userSpaceOnUse" color-interpolation-filters="sRGB">
<feFlood flood-opacity="0" result="BackgroundImageFix"/>
<feColorMatrix in="SourceAlpha" type="matrix" values="0 0 0 0 0 0 0 0 0 0 0 0 0 0 0 0 0 0 127 0" result="hardAlpha"/>
<feOffset dy="1"/>
<feComposite in2="hardAlpha" operator="out"/>
<feColorMatrix type="matrix" values="0 0 0 0 0.12549 0 0 0 0 0.113725 0 0 0 0 0.0235294 0 0 0 0.24 0"/>
<feBlend mode="normal" in2="BackgroundImageFix" result="effect1_dropShadow_12_75"/>
<feBlend mode="normal" in="SourceGraphic" in2="effect1_dropShadow_12_75" result="shape"/>
</filter>
<filter id="filter3_d_12_75" x="48.5718" y="33.481" width="6.86279" height="7.86279" filterUnits="userSpaceOnUse" color-interpolation-filters="sRGB">
<feFlood flood-opacity="0" result="BackgroundImageFix"/>
<feColorMatrix in="SourceAlpha" type="matrix" values="0 0 0 0 0 0 0 0 0 0 0 0 0 0 0 0 0 0 127 0" result="hardAlpha"/>
<feOffset dy="1"/>
<feComposite in2="hardAlpha" operator="out"/>
<feColorMatrix type="matrix" values="0 0 0 0 0.12549 0 0 0 0 0.113725 0 0 0 0 0.0235294 0 0 0 0.24 0"/>
<feBlend mode="normal" in2="BackgroundImageFix" result="effect1_dropShadow_12_75"/>
<feBlend mode="normal" in="SourceGraphic" in2="effect1_dropShadow_12_75" result="shape"/>
</filter>
<filter id="filter4_d_12_75" x="60.1309" y="33.481" width="6.86279" height="7.86279" filterUnits="userSpaceOnUse" color-interpolation-filters="sRGB">
<feFlood flood-opacity="0" result="BackgroundImageFix"/>
<feColorMatrix in="SourceAlpha" type="matrix" values="0 0 0 0 0 0 0 0 0 0 0 0 0 0 0 0 0 0 127 0" result="hardAlpha"/>
<feOffset dy="1"/>
<feComposite in2="hardAlpha" operator="out"/>
<feColorMatrix type="matrix" values="0 0 0 0 0.12549 0 0 0 0 0.113725 0 0 0 0 0.0235294 0 0 0 0.24 0"/>
<feBlend mode="normal" in2="BackgroundImageFix" result="effect1_dropShadow_12_75"/>
<feBlend mode="normal" in="SourceGraphic" in2="effect1_dropShadow_12_75" result="shape"/>
</filter>
<linearGradient id="paint0_linear_12_75" x1="38.9398" y1="6.69286" x2="29.7077" y2="43.462" gradientUnits="userSpaceOnUse">
<stop stop-color="#AE79BF"/>
<stop offset="0.525" stop-color="#FF725E"/>
<stop offset="1" stop-color="#FADF0B"/>
</linearGradient>
</defs>
</svg>
