<svg width="353" height="352" viewBox="0 0 353 352" fill="none" xmlns="http://www.w3.org/2000/svg">
<path d="M35.7246 0.5C46.8303 0.475183 60.1115 3.38637 74.9541 8.94922C104.637 20.0742 140.466 41.766 177.441 71.5459L177.753 71.7969L178.066 71.5479C214.391 42.6678 249.469 21.7265 278.515 11.0762C293.038 5.75063 306.029 3.00765 316.898 3.11621C327.426 3.22138 335.925 5.9987 341.928 11.6533L342.501 12.21C348.555 18.2637 351.512 27.0139 351.599 37.9355C351.685 48.8599 348.899 61.9156 343.511 76.5078C332.736 105.691 311.594 140.919 282.464 177.344L282.218 177.652L282.461 177.964C310.342 213.639 330.483 247.968 340.634 276.375C345.709 290.58 348.278 303.279 348.083 313.913C347.888 324.544 344.932 333.072 339.001 339.003C333.07 344.934 324.542 347.889 313.911 348.083C303.277 348.277 290.578 345.705 276.373 340.623C247.966 330.46 213.638 310.293 177.963 282.362L177.652 282.119L177.344 282.365C141.019 311.245 105.941 332.187 76.8955 342.837C62.372 348.162 49.3816 350.905 38.5117 350.797C27.9842 350.692 19.4839 347.914 13.4814 342.259L12.9082 341.703C6.90381 335.699 3.954 327.035 3.83301 316.225C3.71205 305.411 6.42361 292.489 11.6992 278.04C22.2497 249.145 43.0162 214.242 71.6465 178.066L71.8945 177.753L71.6436 177.442C41.8139 140.518 20.0984 104.689 8.96094 74.9932C3.39179 60.1442 0.476734 46.8539 0.5 35.7402C0.523267 24.6292 3.48127 15.7376 9.6084 9.61035C15.7357 3.48303 24.6214 0.524826 35.7246 0.5Z" fill="#FFDAF1" stroke="#7B6DDB"/>
</svg>
