<svg width="308" height="308" viewBox="0 0 308 308" fill="none" xmlns="http://www.w3.org/2000/svg">
<path d="M124.002 4.78693C130.727 8.28649 137.849 14.2559 145.084 22.3373C159.553 38.4983 174.402 63.0244 187.383 92.8305L187.543 93.1973L187.935 93.1215C219.143 87.1296 247.065 85.5608 268.053 88.3168C278.548 89.6949 287.283 92.1516 293.823 95.6569C300.361 99.1608 304.67 103.692 306.399 109.214C308.135 114.759 307.165 120.965 303.762 127.598C300.357 134.233 294.535 141.257 286.639 148.395C270.85 162.671 246.848 177.331 217.611 190.185L217.249 190.344L217.32 190.732C222.912 221.228 224.234 248.441 221.377 268.883C219.949 279.105 217.48 287.608 213.997 293.978C210.515 300.345 206.042 304.546 200.609 306.247C195.177 307.948 189.106 307.047 182.616 303.801C176.123 300.553 169.246 294.974 162.246 287.388C148.248 272.215 133.825 249.091 121.045 220.82L120.883 220.461L120.496 220.535C89.2882 226.527 61.3662 228.096 40.3781 225.34C29.8831 223.962 21.1479 221.506 14.6078 218.001C8.07027 214.497 3.761 209.965 2.03228 204.443C0.310693 198.943 1.25766 192.792 4.60495 186.216C7.95361 179.637 13.6881 172.67 21.47 165.583C37.0321 151.411 60.7026 136.83 89.5569 123.969L89.9225 123.806L89.844 123.414C83.4664 91.5413 81.6654 62.918 84.3324 41.3804C85.6661 30.6105 88.1138 21.6389 91.6449 14.9238C95.1749 8.2111 99.766 3.79128 105.378 2.03443C110.99 0.277577 117.278 1.28871 124.002 4.78693Z" fill="#FFDAF1" stroke="#7B6DDB"/>
</svg>
