<svg width="595" height="573" viewBox="0 0 595 573" fill="none" xmlns="http://www.w3.org/2000/svg">
<path d="M413.04 9.58151C458.88 -14.3787 512.425 24.2906 504.507 75.058L504.309 76.2595L487.804 170.996L487.805 170.995C484.174 191.627 491.045 212.985 506.079 227.645L506.079 227.646L574.799 295.075C612.093 331.568 591.305 394.99 539.595 402.451L444.374 415.97L444.373 415.971C423.693 418.954 405.881 431.557 396.431 449.999L395.987 450.882L353.184 536.941C329.907 583.67 263.195 583.584 240.188 536.619L240.187 536.618L197.906 450.206L197.905 450.204L197.463 449.324C188.18 431.234 170.848 418.571 150.913 415.318L149.947 415.168L54.769 401.159C3.43593 393.579 -17.0114 330.98 19.2423 294.466L20.1089 293.609L89.0832 226.667L89.0851 226.666C103.904 212.162 110.874 191.331 107.784 170.931L107.63 169.959L107.63 169.958L91.5605 75.1346C83.015 24.0069 136.206 -14.8699 182.069 8.39127L183.152 8.95233L268.281 53.9203L268.281 53.9189C286.529 63.631 308.332 63.868 326.922 54.5574L327.804 54.1071L327.805 54.1069L413.04 9.58151Z" fill="#FFDAF1" stroke="#7B6DDB"/>
</svg>
