<svg width="502" height="501" viewBox="0 0 502 501" fill="none" xmlns="http://www.w3.org/2000/svg">
<path d="M201.846 6.92564C212.849 12.6512 224.482 22.4069 236.284 35.59C259.887 61.9546 284.098 101.947 305.256 150.529L305.416 150.895L305.809 150.82C356.675 141.054 402.204 138.492 436.444 142.988C453.566 145.237 467.838 149.246 478.54 154.981C489.238 160.715 496.332 168.155 499.181 177.255C502.041 186.392 500.433 196.591 494.864 207.445C489.294 218.301 479.778 229.775 466.897 241.42C441.138 264.71 401.999 288.612 354.345 309.562L353.983 309.721L354.055 310.11C363.169 359.817 365.328 404.19 360.668 437.541C358.338 454.218 354.305 468.112 348.606 478.536C342.908 488.956 335.563 495.874 326.611 498.676C317.659 501.478 307.68 499.983 297.059 494.671C286.434 489.356 275.201 480.237 263.781 467.86C240.942 443.107 217.426 405.398 196.597 359.318L196.434 358.958L196.047 359.033C145.181 368.8 99.6514 371.361 65.4108 366.865C48.2895 364.617 34.0167 360.607 23.3156 354.872C12.617 349.138 5.5235 341.699 2.67474 332.599C-0.16231 323.536 1.40773 313.426 6.88565 302.664C12.3649 291.9 21.7373 280.52 34.4323 268.959C59.821 245.838 98.4198 222.063 145.451 201.101L145.816 200.939L145.738 200.546C135.343 148.596 132.404 101.924 136.755 66.788C138.93 49.2191 142.925 34.5611 148.702 23.5747C154.478 12.5906 162.014 5.31446 171.262 2.41932C180.511 -0.475836 190.844 1.20126 201.846 6.92564Z" fill="#FFDAF1" stroke="#7B6DDB"/>
</svg>
