<svg width="16" height="16" viewBox="0 0 16 16" fill="none" xmlns="http://www.w3.org/2000/svg">
<path d="M10.0787 0.468679C9.82003 0.168589 9.46916 -6.32392e-09 9.1033 0C8.73744 6.32392e-09 8.38657 0.168589 8.12787 0.468679C7.86917 0.768769 7.72383 1.17578 7.72383 1.60017C7.72383 2.02456 7.86917 2.43157 8.12787 2.73166L11.2903 6.40004H1.37929C1.01348 6.40004 0.662651 6.56861 0.403984 6.86866C0.145317 7.16871 0 7.57567 0 8C0 8.42434 0.145317 8.83129 0.403984 9.13134C0.662651 9.43139 1.01348 9.59996 1.37929 9.59996H11.2903L8.12787 13.2683C7.86917 13.5684 7.72383 13.9754 7.72383 14.3998C7.72383 14.8242 7.86917 15.2312 8.12787 15.5313C8.38657 15.8314 8.73744 16 9.1033 16C9.46916 16 9.82003 15.8314 10.0787 15.5313L15.5959 9.13149C15.724 8.98292 15.8256 8.80652 15.895 8.61238C15.9643 8.41823 16 8.21015 16 8C16 7.78986 15.9643 7.58177 15.895 7.38763C15.8256 7.19348 15.724 7.01709 15.5959 6.86851L10.0787 0.468679Z" fill="#F3E8FF"/>
</svg>
