<svg width="103" height="36" viewBox="0 0 103 36" fill="none" xmlns="http://www.w3.org/2000/svg">
<path d="M14.0986 22.7H9.63463V21.668H9.92263C10.4666 21.668 10.7386 21.516 10.7386 21.212C10.7386 21.004 10.6986 20.652 10.6186 20.156C10.5386 19.676 10.4506 19.124 10.3546 18.5H5.45863L5.09863 20.924C5.08263 20.972 5.07463 21.02 5.07463 21.068C5.07463 21.132 5.07463 21.188 5.07463 21.236C5.07463 21.428 5.16263 21.548 5.33863 21.596C5.51463 21.644 5.78663 21.668 6.15463 21.668V22.7H3.05863V21.668H3.34663C3.66663 21.668 3.91463 21.436 4.09063 20.972C4.76263 17.58 5.39463 14.276 5.98663 11.06C6.57863 7.844 7.13863 4.644 7.66663 1.46H9.32263C9.61063 3.812 10.0266 6.38 10.5706 9.164C11.1306 11.948 11.7706 15.036 12.4906 18.428C12.5546 18.716 12.6266 19.068 12.7066 19.484C12.8026 19.916 12.9306 20.412 13.0906 20.972C13.1706 21.308 13.2746 21.508 13.4026 21.572C13.5306 21.636 13.7626 21.668 14.0986 21.668V22.7ZM10.2106 17.468L8.02663 4.748C7.99463 4.892 7.91463 5.284 7.78663 5.924C7.67463 6.548 7.53063 7.3 7.35463 8.18C7.19463 9.044 7.01863 9.98 6.82663 10.988C6.63463 11.98 6.45063 12.924 6.27463 13.82C6.11463 14.716 5.97063 15.5 5.84263 16.172C5.73063 16.844 5.65863 17.276 5.62663 17.468H10.2106ZM16.7351 7.172C17.1351 7.172 17.5111 7.244 17.8631 7.388C18.2311 7.532 18.5351 7.82 18.7751 8.252V7.22H19.7111V10.412H18.7751C18.7751 9.82 18.6071 9.308 18.2711 8.876C17.9351 8.428 17.5031 8.204 16.9751 8.204C16.1431 8.204 15.7271 8.628 15.7271 9.476C15.7271 9.732 15.7671 9.956 15.8471 10.148C15.9431 10.34 16.0871 10.524 16.2791 10.7C16.4871 10.86 16.7511 11.028 17.0711 11.204C17.3911 11.38 17.7831 11.572 18.2471 11.78C19.0151 12.148 19.5431 12.612 19.8311 13.172C20.1351 13.732 20.2871 14.444 20.2871 15.308C20.2871 15.804 20.1831 16.26 19.9751 16.676C19.7831 17.092 19.5111 17.452 19.1591 17.756C18.8071 18.06 18.3991 18.3 17.9351 18.476C17.4871 18.652 16.9991 18.74 16.4711 18.74C16.0551 18.74 15.6551 18.668 15.2711 18.524C14.8871 18.396 14.5431 18.204 14.2391 17.948C13.9351 17.676 13.6871 17.348 13.4951 16.964C13.3031 16.58 13.1911 16.132 13.1591 15.62L13.9271 15.38C14.0231 16.1 14.3031 16.668 14.7671 17.084C15.2471 17.5 15.7911 17.708 16.3991 17.708C16.8631 17.708 17.2631 17.532 17.5991 17.18C17.9351 16.828 18.1031 16.404 18.1031 15.908C18.1031 15.332 17.9911 14.9 17.7671 14.612C17.5591 14.324 17.2791 14.084 16.9271 13.892C16.5911 13.7 16.2071 13.508 15.7751 13.316C15.3431 13.108 14.9191 12.804 14.5031 12.404C14.1671 12.084 13.9351 11.708 13.8071 11.276C13.6791 10.828 13.6151 10.372 13.6151 9.908C13.6151 9.524 13.6951 9.164 13.8551 8.828C14.0151 8.492 14.2311 8.204 14.5031 7.964C14.7751 7.708 15.1031 7.516 15.4871 7.388C15.8711 7.244 16.2871 7.172 16.7351 7.172ZM30.9065 18.5H26.4425V17.444H26.7785C26.9705 17.444 27.1145 17.428 27.2105 17.396C27.3225 17.348 27.4025 17.236 27.4505 17.06C27.4985 16.884 27.5225 16.628 27.5225 16.292C27.5385 15.94 27.5465 15.46 27.5465 14.852V10.052C27.4985 9.556 27.3305 9.116 27.0425 8.732C26.7705 8.348 26.3945 8.156 25.9145 8.156C25.4025 8.156 24.9945 8.356 24.6905 8.756C24.3865 9.14 24.2345 9.588 24.2345 10.1V15.068C24.2345 15.964 24.2905 16.588 24.4025 16.94C24.5305 17.276 24.8505 17.444 25.3625 17.444V18.5H20.9225V17.444H21.2825C21.6985 17.444 21.9225 17.204 21.9545 16.724C22.0185 15.316 22.0585 13.948 22.0745 12.62C22.0905 11.276 22.0985 9.9 22.0985 8.492C22.0985 7.628 22.0905 6.724 22.0745 5.78C22.0585 4.836 22.0185 3.74 21.9545 2.492C21.9225 2.156 21.8185 1.956 21.6425 1.892C21.4825 1.828 21.2425 1.796 20.9225 1.796V0.74H24.3545C24.3545 1.508 24.3465 2.476 24.3305 3.644C24.3145 4.812 24.2905 6.284 24.2585 8.06C24.6745 7.452 25.2745 7.148 26.0585 7.148C26.6505 7.148 27.1785 7.236 27.6425 7.412C28.1065 7.588 28.4985 7.836 28.8185 8.156C29.1385 8.46 29.3785 8.82 29.5385 9.236C29.7145 9.636 29.8025 10.076 29.8025 10.556V13.676C29.8025 14.604 29.8185 15.324 29.8505 15.836C29.8825 16.332 29.9385 16.7 30.0185 16.94C30.1145 17.18 30.2265 17.324 30.3545 17.372C30.4985 17.42 30.6825 17.444 30.9065 17.444V18.5ZM42.4698 1.484C43.7658 1.484 44.7498 1.916 45.4218 2.78C46.0938 3.644 46.4298 4.852 46.4298 6.404C46.4298 7.844 46.0778 9.012 45.3738 9.908C44.6698 10.788 43.6458 11.228 42.3018 11.228H40.3818C40.3818 12.94 40.3898 14.388 40.4058 15.572C40.4218 16.756 40.4458 17.732 40.4778 18.5C40.5258 19.284 40.5738 19.892 40.6218 20.324C40.6858 20.756 40.7578 21.076 40.8378 21.284C40.9338 21.492 41.0378 21.612 41.1498 21.644C41.2778 21.692 41.4218 21.716 41.5818 21.716V22.748H37.1418V21.716H37.3818C37.5898 21.716 37.7578 21.676 37.8858 21.596C38.0138 21.516 38.1098 21.3 38.1738 20.948C38.2378 20.596 38.2778 20.052 38.2938 19.316C38.3098 18.596 38.3178 17.588 38.3178 16.292C38.3178 14.452 38.3178 12.868 38.3178 11.54C38.3338 10.196 38.3418 9.036 38.3418 8.06C38.3418 6.716 38.3258 5.676 38.2938 4.94C38.2778 4.204 38.2218 3.66 38.1258 3.308C38.0458 2.94 37.9258 2.724 37.7658 2.66C37.6058 2.58 37.3978 2.54 37.1418 2.54V1.484H42.4698ZM41.3178 2.54C41.0458 2.54 40.8458 2.7 40.7178 3.02C40.6058 3.34 40.5258 3.82 40.4778 4.46C40.4298 5.1 40.4058 5.9 40.4058 6.86C40.4058 7.804 40.3978 8.908 40.3818 10.172H41.7978C42.5338 10.172 43.0858 9.924 43.4538 9.428C43.8378 8.932 44.0298 8.252 44.0298 7.388V5.54C44.0298 4.628 43.8298 3.9 43.4298 3.356C43.0298 2.812 42.4858 2.54 41.7978 2.54H41.3178ZM58.4542 1.484C59.7502 1.484 60.7342 1.916 61.4062 2.78C62.0782 3.644 62.4142 4.852 62.4142 6.404C62.4142 9.188 61.2382 10.684 58.8862 10.892C59.5582 11.212 60.1502 11.684 60.6622 12.308C61.1902 12.916 61.6222 13.7 61.9582 14.66C62.2142 15.396 62.4542 16.18 62.6782 17.012C62.9182 17.828 63.1742 18.58 63.4462 19.268C63.7182 19.972 64.0302 20.556 64.3822 21.02C64.7342 21.484 65.1502 21.716 65.6302 21.716H66.5662V22.748H64.9582C63.4702 22.748 62.2862 21.788 61.4062 19.868C61.0702 18.908 60.7422 17.932 60.4222 16.94C60.1022 15.932 59.7502 15.012 59.3662 14.18C58.9982 13.332 58.5742 12.628 58.0942 12.068C57.6142 11.508 57.0382 11.188 56.3662 11.108C56.3662 11.332 56.3662 11.716 56.3662 12.26C56.3662 12.788 56.3662 13.388 56.3662 14.06C56.3822 14.732 56.3982 15.444 56.4142 16.196C56.4302 16.932 56.4462 17.628 56.4622 18.284C56.4782 18.94 56.4942 19.516 56.5102 20.012C56.5262 20.508 56.5422 20.844 56.5582 21.02C56.5902 21.324 56.6622 21.516 56.7742 21.596C56.9022 21.692 57.0862 21.74 57.3262 21.74C57.4542 21.74 57.5342 21.732 57.5662 21.716V22.748H53.1262V21.716H53.3422C53.6302 21.716 53.8382 21.668 53.9662 21.572C54.0942 21.476 54.1582 21.292 54.1582 21.02C54.1902 19.612 54.2222 18.036 54.2542 16.292C54.2862 14.532 54.3022 12.556 54.3022 10.364C54.3022 9.068 54.2942 7.98 54.2782 7.1C54.2782 6.204 54.2702 5.468 54.2542 4.892C54.2382 4.3 54.2062 3.844 54.1582 3.524C54.1262 3.204 54.0782 2.972 54.0142 2.828C53.9502 2.668 53.8622 2.58 53.7502 2.564C53.6542 2.532 53.5422 2.516 53.4142 2.516C53.3822 2.516 53.3342 2.516 53.2702 2.516C53.2222 2.516 53.1742 2.524 53.1262 2.54V1.484H58.4542ZM57.3022 2.54C57.0302 2.54 56.8302 2.684 56.7022 2.972C56.5902 3.26 56.5102 3.708 56.4622 4.316C56.4142 4.908 56.3902 5.668 56.3902 6.596C56.3902 7.524 56.3822 8.62 56.3662 9.884H57.7822C58.5182 9.884 59.0702 9.636 59.4382 9.14C59.8222 8.644 60.0142 7.964 60.0142 7.1V5.54C60.0142 4.628 59.8142 3.9 59.4142 3.356C59.0142 2.812 58.4702 2.54 57.7822 2.54H57.3022ZM72.7336 15.86C72.1576 17.732 70.9976 18.668 69.2536 18.668C68.6616 18.668 68.1176 18.532 67.6216 18.26C67.1416 17.972 66.7256 17.596 66.3736 17.132C66.0376 16.652 65.7736 16.1 65.5816 15.476C65.3896 14.852 65.2936 14.188 65.2936 13.484V12.092C65.2936 11.452 65.3896 10.836 65.5816 10.244C65.7896 9.636 66.0696 9.108 66.4216 8.66C66.7736 8.212 67.1896 7.852 67.6696 7.58C68.1656 7.308 68.6936 7.172 69.2536 7.172C70.3096 7.172 71.1416 7.468 71.7496 8.06C72.3576 8.636 72.6616 9.46 72.6616 10.532C72.6616 10.74 72.6296 10.924 72.5656 11.084C72.5176 11.244 72.4216 11.396 72.2776 11.54C72.1496 11.684 71.9656 11.828 71.7256 11.972C71.4856 12.116 71.1816 12.268 70.8136 12.428L67.6696 13.82V15.692C67.6696 16.22 67.8216 16.676 68.1256 17.06C68.4456 17.444 68.8216 17.636 69.2536 17.636C69.5416 17.636 69.8376 17.596 70.1416 17.516C70.4456 17.42 70.7256 17.292 70.9816 17.132C71.2536 16.972 71.4856 16.788 71.6776 16.58C71.8856 16.356 72.0296 16.116 72.1096 15.86H72.7336ZM71.2216 10.292C71.2216 8.9 70.5656 8.204 69.2536 8.204C69.0136 8.204 68.7976 8.26 68.6056 8.372C68.4136 8.484 68.2456 8.636 68.1016 8.828C67.9736 9.004 67.8696 9.212 67.7896 9.452C67.7096 9.676 67.6696 9.908 67.6696 10.148V12.572L70.5016 11.42C70.9816 11.228 71.2216 10.852 71.2216 10.292ZM83.5828 16.916C83.5828 17.412 83.4148 17.836 83.0788 18.188C82.7588 18.524 82.3348 18.692 81.8068 18.692C80.9748 18.692 80.3828 18.324 80.0308 17.588C79.5668 17.94 79.1028 18.22 78.6388 18.428C78.1748 18.62 77.7188 18.716 77.2708 18.716C75.0788 18.716 73.9828 17.748 73.9828 15.812C73.9828 14.836 74.3828 14.14 75.1828 13.724C75.5828 13.516 75.9908 13.324 76.4068 13.148C76.8388 12.956 77.2468 12.764 77.6308 12.572C78.0148 12.38 78.3748 12.172 78.7108 11.948C79.0468 11.708 79.3348 11.444 79.5748 11.156C79.5588 10.564 79.5188 10.084 79.4548 9.716C79.4068 9.332 79.3268 9.036 79.2148 8.828C79.1188 8.604 78.9828 8.452 78.8068 8.372C78.6308 8.276 78.4068 8.228 78.1348 8.228C77.1428 8.228 76.6468 8.452 76.6468 8.9C77.3348 9.156 77.6788 9.692 77.6788 10.508C77.6788 10.94 77.5348 11.324 77.2467 11.66C76.9748 11.98 76.6308 12.14 76.2148 12.14C75.7828 12.14 75.4228 11.988 75.1348 11.684C74.8628 11.364 74.7268 10.988 74.7268 10.556C74.7268 10.012 74.8148 9.532 74.9908 9.116C75.1828 8.7 75.4388 8.348 75.7588 8.06C76.0788 7.772 76.4548 7.556 76.8867 7.412C77.3188 7.268 77.7908 7.196 78.3028 7.196C78.8948 7.196 79.4068 7.268 79.8388 7.412C80.2868 7.556 80.6468 7.852 80.9188 8.3C81.2068 8.748 81.4148 9.388 81.5428 10.22C81.6868 11.036 81.7588 12.116 81.7588 13.46C81.7588 14.708 81.7908 15.676 81.8548 16.364C81.9188 17.052 82.0548 17.396 82.2628 17.396C82.3588 17.396 82.4468 17.348 82.5268 17.252C82.6068 17.156 82.6468 17.012 82.6468 16.82V16.052H83.5828V16.916ZM79.6708 15.404C79.6708 14.844 79.6628 14.284 79.6468 13.724C79.6468 13.148 79.6388 12.58 79.6228 12.02C79.3668 12.388 79.0628 12.7 78.7108 12.956C78.3588 13.196 78.0148 13.436 77.6788 13.676C77.3588 13.916 77.0788 14.188 76.8388 14.492C76.6148 14.796 76.5028 15.18 76.5028 15.644C76.5028 16.62 77.0548 17.108 78.1588 17.108C78.5908 17.108 78.9508 16.932 79.2388 16.58C79.5268 16.228 79.6708 15.836 79.6708 15.404ZM88.9492 2.492C88.9172 2.22 88.8292 2.028 88.6852 1.916C88.5412 1.804 88.3332 1.748 88.0612 1.748C87.9972 1.748 87.9412 1.764 87.8932 1.796V0.74H91.3492V1.724C91.3492 1.9 91.3412 2.292 91.3252 2.9C91.3252 3.492 91.3172 4.204 91.3012 5.036C91.2852 5.868 91.2692 6.772 91.2532 7.748C91.2532 8.708 91.2532 9.644 91.2532 10.556C91.2532 11.804 91.2612 12.98 91.2772 14.084C91.2932 15.172 91.3412 16.06 91.4212 16.748C91.4532 17.036 91.5172 17.228 91.6132 17.324C91.7092 17.42 91.9012 17.468 92.1892 17.468C92.2212 17.468 92.2612 17.468 92.3092 17.468C92.3732 17.468 92.4212 17.46 92.4532 17.444V18.5C92.0052 18.484 91.6452 18.46 91.3732 18.428C91.1012 18.396 90.8772 18.34 90.7012 18.26C90.5412 18.18 90.3972 18.076 90.2692 17.948C90.1572 17.804 90.0292 17.62 89.8852 17.396C89.5972 17.764 89.2372 18.068 88.8052 18.308C88.3732 18.548 87.9332 18.668 87.4852 18.668C86.9092 18.668 86.3812 18.532 85.9012 18.26C85.4212 17.988 85.0052 17.628 84.6532 17.18C84.3172 16.716 84.0532 16.188 83.8612 15.596C83.6692 15.004 83.5732 14.388 83.5732 13.748V12.092C83.5732 11.452 83.6692 10.836 83.8612 10.244C84.0532 9.652 84.3252 9.132 84.6772 8.684C85.0292 8.22 85.4452 7.852 85.9252 7.58C86.4052 7.308 86.9252 7.172 87.4852 7.172C88.1412 7.172 88.7092 7.516 89.1892 8.204C89.1732 7.964 89.1652 7.644 89.1652 7.244C89.1652 6.844 89.1572 6.396 89.1412 5.9C89.1252 5.404 89.1012 4.868 89.0692 4.292C89.0532 3.7 89.0132 3.1 88.9492 2.492ZM89.0212 10.148C89.0212 9.908 88.9812 9.676 88.9012 9.452C88.8372 9.212 88.7332 9.004 88.5892 8.828C88.4612 8.636 88.3012 8.484 88.1092 8.372C87.9172 8.26 87.7092 8.204 87.4852 8.204C87.2612 8.204 87.0532 8.26 86.8612 8.372C86.6692 8.484 86.5012 8.636 86.3572 8.828C86.2292 9.004 86.1252 9.212 86.0452 9.452C85.9812 9.676 85.9492 9.908 85.9492 10.148V15.692C85.9492 16.22 86.0932 16.676 86.3812 17.06C86.6692 17.444 87.0372 17.636 87.4852 17.636C87.6932 17.636 87.8932 17.58 88.0852 17.468C88.2772 17.356 88.4372 17.212 88.5652 17.036C88.7092 16.86 88.8212 16.652 88.9012 16.412C88.9812 16.172 89.0212 15.932 89.0212 15.692V10.148ZM96.2819 7.172C96.6819 7.172 97.0579 7.244 97.4099 7.388C97.7779 7.532 98.0819 7.82 98.3219 8.252V7.22H99.2579V10.412H98.3219C98.3219 9.82 98.1539 9.308 97.8179 8.876C97.4819 8.428 97.0499 8.204 96.5219 8.204C95.6899 8.204 95.2739 8.628 95.2739 9.476C95.2739 9.732 95.3139 9.956 95.3939 10.148C95.4899 10.34 95.6339 10.524 95.8259 10.7C96.0339 10.86 96.2979 11.028 96.6179 11.204C96.9379 11.38 97.3299 11.572 97.7939 11.78C98.5619 12.148 99.0899 12.612 99.3779 13.172C99.6819 13.732 99.8339 14.444 99.8339 15.308C99.8339 15.804 99.7299 16.26 99.5219 16.676C99.3299 17.092 99.0579 17.452 98.7059 17.756C98.3539 18.06 97.9459 18.3 97.4819 18.476C97.0339 18.652 96.5459 18.74 96.0179 18.74C95.6019 18.74 95.2019 18.668 94.8179 18.524C94.4339 18.396 94.0899 18.204 93.7859 17.948C93.4819 17.676 93.2339 17.348 93.0419 16.964C92.8499 16.58 92.7379 16.132 92.7059 15.62L93.4739 15.38C93.5699 16.1 93.8499 16.668 94.3139 17.084C94.7939 17.5 95.3379 17.708 95.9459 17.708C96.4099 17.708 96.8099 17.532 97.1459 17.18C97.4819 16.828 97.6499 16.404 97.6499 15.908C97.6499 15.332 97.5379 14.9 97.3139 14.612C97.1059 14.324 96.8259 14.084 96.4739 13.892C96.1379 13.7 95.7539 13.508 95.3219 13.316C94.8899 13.108 94.4659 12.804 94.0499 12.404C93.7139 12.084 93.4819 11.708 93.3539 11.276C93.2259 10.828 93.1619 10.372 93.1619 9.908C93.1619 9.524 93.2419 9.164 93.4019 8.828C93.5619 8.492 93.7779 8.204 94.0499 7.964C94.3219 7.708 94.6499 7.516 95.0339 7.388C95.4179 7.244 95.8339 7.172 96.2819 7.172Z" fill="#DD8DA1"/>
<path d="M25.9845 34.624H20.6445V34.108H20.8005C20.9365 34.108 21.0325 34.08 21.0885 34.024C21.1525 33.968 21.1925 33.848 21.2085 33.664C21.2325 32.96 21.2445 32.028 21.2445 30.868C21.2445 30.124 21.2405 29.444 21.2325 28.828C21.2325 28.204 21.2325 27.66 21.2325 27.196C21.2325 26.732 21.2285 26.36 21.2205 26.08C21.2205 25.792 21.2205 25.612 21.2205 25.54C21.2125 25.324 21.1965 25.152 21.1725 25.024C21.1485 24.888 21.1125 24.784 21.0645 24.712C21.0245 24.632 20.9685 24.58 20.8965 24.556C20.8325 24.532 20.7485 24.52 20.6445 24.52V23.992H24.4605V25.192H23.9685C23.9685 24.744 23.8605 24.52 23.6445 24.52H22.8285C22.6525 24.52 22.5325 24.54 22.4685 24.58C22.4125 24.612 22.3765 24.708 22.3605 24.868C22.3445 25.06 22.3285 25.428 22.3125 25.972C22.2965 26.508 22.2845 27.248 22.2765 28.192H23.0805C23.3445 28.192 23.4765 27.968 23.4765 27.52H23.9685V29.404H23.4765C23.4765 28.94 23.3445 28.708 23.0805 28.708H22.2645V29.776C22.2645 30.832 22.2725 31.684 22.2885 32.332C22.3045 32.98 22.3285 33.452 22.3605 33.748C22.3765 33.908 22.4125 34.008 22.4685 34.048C22.5245 34.088 22.6325 34.108 22.7925 34.108H25.1805C25.3965 34.108 25.5045 33.88 25.5045 33.424H25.9845V34.624ZM27.2051 24.496C27.1891 24.36 27.1451 24.264 27.0731 24.208C27.0011 24.152 26.8971 24.124 26.7611 24.124C26.7291 24.124 26.7011 24.132 26.6771 24.148V23.62H28.4051V24.112C28.4051 24.2 28.4011 24.396 28.3931 24.7C28.3931 24.996 28.3891 25.352 28.3811 25.768C28.3731 26.184 28.3651 26.636 28.3571 27.124C28.3571 27.604 28.3571 28.072 28.3571 28.528C28.3571 29.152 28.3611 29.74 28.3691 30.292C28.3771 30.836 28.4011 31.28 28.4411 31.624C28.4571 31.768 28.4891 31.864 28.5371 31.912C28.5851 31.96 28.6811 31.984 28.8251 31.984C28.8411 31.984 28.8611 31.984 28.8851 31.984C28.9171 31.984 28.9411 31.98 28.9571 31.972V32.5C28.7331 32.492 28.5531 32.48 28.4171 32.464C28.2811 32.448 28.1691 32.42 28.0811 32.38C28.0011 32.34 27.9291 32.288 27.8651 32.224C27.8091 32.152 27.7451 32.06 27.6731 31.948C27.5291 32.132 27.3491 32.284 27.1331 32.404C26.9171 32.524 26.6971 32.584 26.4731 32.584C26.1851 32.584 25.9211 32.516 25.6811 32.38C25.4411 32.244 25.2331 32.064 25.0571 31.84C24.8891 31.608 24.7571 31.344 24.6611 31.048C24.5651 30.752 24.5171 30.444 24.5171 30.124V29.296C24.5171 28.976 24.5651 28.668 24.6611 28.372C24.7571 28.076 24.8931 27.816 25.0691 27.592C25.2451 27.36 25.4531 27.176 25.6931 27.04C25.9331 26.904 26.1931 26.836 26.4731 26.836C26.8011 26.836 27.0851 27.008 27.3251 27.352C27.3171 27.232 27.3131 27.072 27.3131 26.872C27.3131 26.672 27.3091 26.448 27.3011 26.2C27.2931 25.952 27.2811 25.684 27.2651 25.396C27.2571 25.1 27.2371 24.8 27.2051 24.496ZM27.2411 28.324C27.2411 28.204 27.2211 28.088 27.1811 27.976C27.1491 27.856 27.0971 27.752 27.0251 27.664C26.9611 27.568 26.8811 27.492 26.7851 27.436C26.6891 27.38 26.5851 27.352 26.4731 27.352C26.3611 27.352 26.2571 27.38 26.1611 27.436C26.0651 27.492 25.9811 27.568 25.9091 27.664C25.8451 27.752 25.7931 27.856 25.7531 27.976C25.7211 28.088 25.7051 28.204 25.7051 28.324V31.096C25.7051 31.36 25.7771 31.588 25.9211 31.78C26.0651 31.972 26.2491 32.068 26.4731 32.068C26.5771 32.068 26.6771 32.04 26.7731 31.984C26.8691 31.928 26.9491 31.856 27.0131 31.768C27.0851 31.68 27.1411 31.576 27.1811 31.456C27.2211 31.336 27.2411 31.216 27.2411 31.096V28.324ZM30.2594 23.944C30.4674 23.944 30.6394 24.028 30.7754 24.196C30.9194 24.356 30.9914 24.544 30.9914 24.76C30.9914 24.984 30.9194 25.18 30.7754 25.348C30.6394 25.516 30.4674 25.6 30.2594 25.6C30.0434 25.6 29.8634 25.516 29.7194 25.348C29.5754 25.18 29.5034 24.984 29.5034 24.76C29.5034 24.544 29.5754 24.356 29.7194 24.196C29.8634 24.028 30.0434 23.944 30.2594 23.944ZM31.3994 32.5H29.1794V31.972H29.3594C29.4554 31.972 29.5314 31.936 29.5874 31.864C29.6434 31.792 29.6834 31.644 29.7074 31.42C29.7394 31.196 29.7594 30.872 29.7674 30.448C29.7754 30.024 29.7794 29.464 29.7794 28.768C29.7794 28.376 29.7474 28.072 29.6834 27.856C29.6194 27.64 29.4514 27.516 29.1794 27.484V26.956H30.9074C30.9074 27.364 30.9034 27.744 30.8954 28.096C30.8874 28.448 30.8794 28.752 30.8714 29.008C30.8634 29.264 30.8554 29.468 30.8474 29.62C30.8394 29.764 30.8354 29.84 30.8354 29.848C30.8354 30.272 30.8394 30.62 30.8474 30.892C30.8634 31.164 30.8914 31.38 30.9314 31.54C30.9714 31.7 31.0274 31.812 31.0994 31.876C31.1714 31.94 31.2714 31.972 31.3994 31.972V32.5ZM35.1667 32.776C35.1587 32.888 35.1187 33.008 35.0467 33.136C34.9827 33.264 34.8987 33.38 34.7947 33.484C34.6987 33.588 34.5907 33.672 34.4707 33.736C34.3507 33.808 34.2347 33.844 34.1227 33.844C33.8667 33.844 33.6307 33.816 33.4147 33.76C33.2067 33.712 33.0267 33.608 32.8747 33.448C32.7227 33.288 32.6027 33.06 32.5147 32.764C32.4347 32.476 32.3947 32.096 32.3947 31.624V28.984C32.3947 28.736 32.3907 28.488 32.3827 28.24C32.3747 27.992 32.3627 27.74 32.3467 27.484H31.7347V26.956C31.9187 26.956 32.0907 26.888 32.2507 26.752C32.4187 26.608 32.5627 26.428 32.6827 26.212C32.8027 25.996 32.8987 25.756 32.9707 25.492C33.0427 25.228 33.0787 24.968 33.0787 24.712H33.5107V26.956H34.4587V27.484H33.5107C33.4787 27.892 33.4507 28.4 33.4267 29.008C33.4027 29.616 33.3907 30.344 33.3907 31.192C33.3907 31.608 33.4027 31.952 33.4267 32.224C33.4587 32.496 33.5027 32.712 33.5587 32.872C33.6227 33.04 33.6987 33.156 33.7867 33.22C33.8827 33.292 33.9947 33.328 34.1227 33.328C34.1787 33.328 34.2427 33.312 34.3147 33.28C34.3947 33.248 34.4667 33.204 34.5307 33.148C34.6027 33.092 34.6587 33.032 34.6987 32.968C34.7467 32.904 34.7707 32.84 34.7707 32.776H35.1667ZM35.8024 23.944C36.0104 23.944 36.1824 24.028 36.3184 24.196C36.4624 24.356 36.5344 24.544 36.5344 24.76C36.5344 24.984 36.4624 25.18 36.3184 25.348C36.1824 25.516 36.0104 25.6 35.8024 25.6C35.5864 25.6 35.4064 25.516 35.2624 25.348C35.1184 25.18 35.0464 24.984 35.0464 24.76C35.0464 24.544 35.1184 24.356 35.2624 24.196C35.4064 24.028 35.5864 23.944 35.8024 23.944ZM36.9424 32.5H34.7224V31.972H34.9024C34.9984 31.972 35.0744 31.936 35.1304 31.864C35.1864 31.792 35.2264 31.644 35.2504 31.42C35.2824 31.196 35.3024 30.872 35.3104 30.448C35.3184 30.024 35.3224 29.464 35.3224 28.768C35.3224 28.376 35.2904 28.072 35.2264 27.856C35.1624 27.64 34.9944 27.516 34.7224 27.484V26.956H36.4504C36.4504 27.364 36.4464 27.744 36.4384 28.096C36.4304 28.448 36.4224 28.752 36.4144 29.008C36.4064 29.264 36.3984 29.468 36.3904 29.62C36.3824 29.764 36.3784 29.84 36.3784 29.848C36.3784 30.272 36.3824 30.62 36.3904 30.892C36.4064 31.164 36.4344 31.38 36.4744 31.54C36.5144 31.7 36.5704 31.812 36.6424 31.876C36.7144 31.94 36.8144 31.972 36.9424 31.972V32.5ZM42.1137 32.5H39.8937V31.972H40.0617C40.2377 31.972 40.3417 31.908 40.3737 31.78C40.4057 31.652 40.4217 31.412 40.4217 31.06C40.4217 30.676 40.4257 30.332 40.4337 30.028C40.4417 29.724 40.4457 29.44 40.4457 29.176C40.4457 28.584 40.3977 28.136 40.3017 27.832C40.2057 27.528 39.9817 27.376 39.6297 27.376C39.2777 27.376 39.0497 27.504 38.9457 27.76C38.8497 28.008 38.8017 28.364 38.8017 28.828V31.144C38.8017 31.32 38.8017 31.464 38.8017 31.576C38.8097 31.68 38.8297 31.764 38.8617 31.828C38.9017 31.884 38.9577 31.924 39.0297 31.948C39.1097 31.964 39.2177 31.972 39.3537 31.972V32.5H37.1217V31.972H37.3017C37.4697 31.972 37.5737 31.888 37.6137 31.72C37.6617 31.552 37.6857 31.288 37.6857 30.928C37.6857 30.4 37.6857 29.936 37.6857 29.536C37.6937 29.128 37.6977 28.804 37.6977 28.564C37.6977 28.324 37.6897 28.136 37.6737 28C37.6657 27.856 37.6377 27.748 37.5897 27.676C37.5497 27.596 37.4897 27.544 37.4097 27.52C37.3377 27.496 37.2417 27.484 37.1217 27.484V26.956C37.3457 26.964 37.5257 26.976 37.6617 26.992C37.7977 27.008 37.9097 27.036 37.9977 27.076C38.0937 27.116 38.1697 27.172 38.2257 27.244C38.2817 27.308 38.3417 27.396 38.4057 27.508C38.5257 27.3 38.6897 27.144 38.8977 27.04C39.1137 26.928 39.3537 26.872 39.6177 26.872C40.0737 26.872 40.4297 26.94 40.6857 27.076C40.9497 27.212 41.1457 27.396 41.2737 27.628C41.4097 27.86 41.4937 28.128 41.5257 28.432C41.5657 28.728 41.5857 29.036 41.5857 29.356C41.5857 29.708 41.5857 30.004 41.5857 30.244C41.5937 30.484 41.5977 30.688 41.5977 30.856C41.5977 31.024 41.5977 31.168 41.5977 31.288C41.6057 31.408 41.6097 31.52 41.6097 31.624C41.6097 31.776 41.6377 31.872 41.6937 31.912C41.7577 31.952 41.8977 31.972 42.1137 31.972V32.5ZM47.2708 27.268C47.2708 27.452 47.2228 27.612 47.1268 27.748C47.0388 27.884 46.9028 27.952 46.7188 27.952C46.6308 27.952 46.5468 27.932 46.4668 27.892C46.3948 27.852 46.3268 27.808 46.2628 27.76C46.2068 27.712 46.1588 27.668 46.1188 27.628C46.0788 27.588 46.0508 27.568 46.0348 27.568C45.9868 27.568 45.9308 27.588 45.8668 27.628C46.0348 27.788 46.1628 27.988 46.2508 28.228C46.3388 28.468 46.3828 28.7 46.3828 28.924C46.3828 29.22 46.3508 29.496 46.2868 29.752C46.2228 30.008 46.1228 30.236 45.9868 30.436C45.8588 30.628 45.6948 30.788 45.4948 30.916C45.2948 31.044 45.0588 31.124 44.7868 31.156C45.1068 31.532 45.3748 32.116 45.5908 32.908C45.2148 32.596 44.7548 32.44 44.2108 32.44C43.5948 32.44 43.2868 32.78 43.2868 33.46C43.2868 33.868 43.4188 34.18 43.6828 34.396C43.9468 34.612 44.2828 34.72 44.6908 34.72C45.0908 34.72 45.4388 34.6 45.7348 34.36C46.0308 34.12 46.2188 33.808 46.2988 33.424L46.5388 33.556C46.4588 34.036 46.2468 34.412 45.9028 34.684C45.5668 34.964 45.1468 35.104 44.6428 35.104C44.2668 35.104 43.9188 35.064 43.5988 34.984C43.2868 34.904 43.0188 34.784 42.7948 34.624C42.5708 34.472 42.3948 34.284 42.2668 34.06C42.1467 33.836 42.0867 33.584 42.0867 33.304C42.0867 32.248 42.5588 31.72 43.5028 31.72C43.6308 31.72 43.7708 31.736 43.9228 31.768C44.0748 31.792 44.2188 31.828 44.3548 31.876C44.4908 31.924 44.6108 31.98 44.7148 32.044C44.8268 32.1 44.9068 32.16 44.9548 32.224C44.9308 32.056 44.8588 31.888 44.7388 31.72C44.6268 31.552 44.4508 31.436 44.2108 31.372C43.5468 31.188 43.0828 30.888 42.8188 30.472C42.5628 30.056 42.4348 29.524 42.4348 28.876C42.4348 28.252 42.6108 27.756 42.9628 27.388C43.3148 27.02 43.7948 26.836 44.4028 26.836C44.6188 26.836 44.8268 26.868 45.0268 26.932C45.2268 26.996 45.4028 27.116 45.5548 27.292C45.6828 26.788 46.0388 26.536 46.6228 26.536C47.0548 26.536 47.2708 26.78 47.2708 27.268ZM45.1828 28.324C45.1828 28.084 45.1108 27.864 44.9668 27.664C44.8308 27.456 44.6428 27.352 44.4028 27.352C44.1628 27.352 43.9708 27.456 43.8268 27.664C43.6908 27.864 43.6228 28.084 43.6228 28.324V29.68C43.6228 29.952 43.6948 30.184 43.8388 30.376C43.9908 30.568 44.1788 30.664 44.4028 30.664C44.6268 30.664 44.8108 30.568 44.9548 30.376C45.1068 30.184 45.1828 29.952 45.1828 29.68V28.324ZM53.9608 32.572C53.9608 32.916 53.8968 33.224 53.7688 33.496C53.6408 33.768 53.4728 33.996 53.2648 34.18C53.0648 34.372 52.8368 34.516 52.5808 34.612C52.3248 34.716 52.0648 34.768 51.8008 34.768C51.4088 34.768 51.0608 34.644 50.7568 34.396C50.4608 34.156 50.2488 33.808 50.1208 33.352L50.5168 33.244C50.5968 33.532 50.7408 33.768 50.9488 33.952C51.1648 34.144 51.4128 34.24 51.6928 34.24C52.1248 34.24 52.4248 34.108 52.5928 33.844C52.7688 33.588 52.8568 33.22 52.8568 32.74C52.8568 32.236 52.7488 31.728 52.5328 31.216C52.3168 30.696 51.9808 30.124 51.5248 29.5C51.0688 28.876 50.7328 28.26 50.5168 27.652C50.3088 27.036 50.2048 26.476 50.2048 25.972C50.2048 25.652 50.2488 25.36 50.3368 25.096C50.4328 24.832 50.5608 24.612 50.7208 24.436C50.8888 24.252 51.0848 24.112 51.3088 24.016C51.5328 23.912 51.7728 23.86 52.0288 23.86C52.3008 23.86 52.6008 24 52.9288 24.28V23.752H53.3968V25.348H52.9288C52.9288 25.06 52.8488 24.828 52.6888 24.652C52.5368 24.468 52.3168 24.376 52.0288 24.376C51.5328 24.376 51.2848 24.784 51.2848 25.6C51.2848 26.584 51.7288 27.728 52.6168 29.032C53.0728 29.696 53.4088 30.308 53.6248 30.868C53.8488 31.428 53.9608 31.996 53.9608 32.572ZM58.2379 31.18C57.9499 32.116 57.3699 32.584 56.4979 32.584C56.2019 32.584 55.9299 32.516 55.6819 32.38C55.4419 32.236 55.2339 32.048 55.0579 31.816C54.8899 31.576 54.7579 31.3 54.6619 30.988C54.5659 30.676 54.5179 30.344 54.5179 29.992V29.296C54.5179 28.976 54.5659 28.668 54.6619 28.372C54.7659 28.068 54.9059 27.804 55.0819 27.58C55.2579 27.356 55.4659 27.176 55.7059 27.04C55.9539 26.904 56.2179 26.836 56.4979 26.836C57.0259 26.836 57.4419 26.984 57.7459 27.28C58.0499 27.568 58.2019 27.98 58.2019 28.516C58.2019 28.62 58.1859 28.712 58.1539 28.792C58.1299 28.872 58.0819 28.948 58.0099 29.02C57.9459 29.092 57.8539 29.164 57.7339 29.236C57.6139 29.308 57.4619 29.384 57.2779 29.464L55.7059 30.16V31.096C55.7059 31.36 55.7819 31.588 55.9339 31.78C56.0939 31.972 56.2819 32.068 56.4979 32.068C56.6419 32.068 56.7899 32.048 56.9419 32.008C57.0939 31.96 57.2339 31.896 57.3619 31.816C57.4979 31.736 57.6139 31.644 57.7099 31.54C57.8139 31.428 57.8859 31.308 57.9259 31.18H58.2379ZM57.4819 28.396C57.4819 27.7 57.1539 27.352 56.4979 27.352C56.3779 27.352 56.2699 27.38 56.1739 27.436C56.0779 27.492 55.9939 27.568 55.9219 27.664C55.8579 27.752 55.8059 27.856 55.7659 27.976C55.7259 28.088 55.7059 28.204 55.7059 28.324V29.536L57.1219 28.96C57.3619 28.864 57.4819 28.676 57.4819 28.396ZM62.7865 28.444C62.7865 28.708 62.7105 28.92 62.5585 29.08C62.4145 29.24 62.2385 29.32 62.0305 29.32C61.8065 29.32 61.6265 29.24 61.4905 29.08C61.3625 28.912 61.2985 28.708 61.2985 28.468C61.2985 28.268 61.3505 28.092 61.4545 27.94C61.5585 27.78 61.7065 27.7 61.8985 27.7C61.8985 27.476 61.7345 27.364 61.4065 27.364C61.1025 27.364 60.8625 27.576 60.6865 28C60.5185 28.424 60.4345 29.024 60.4345 29.8C60.4345 30.208 60.4385 30.564 60.4465 30.868C60.4545 31.164 60.4785 31.416 60.5185 31.624C60.5425 31.776 60.5785 31.872 60.6265 31.912C60.6825 31.952 60.8185 31.972 61.0345 31.972V32.5H58.8025V31.972H58.9825C59.0785 31.972 59.1545 31.936 59.2105 31.864C59.2665 31.784 59.3065 31.676 59.3305 31.54C59.3625 31.396 59.3825 31.232 59.3905 31.048C59.3985 30.856 59.4025 30.652 59.4025 30.436C59.4025 29.9 59.3945 29.412 59.3785 28.972C59.3705 28.532 59.3545 28.156 59.3305 27.844C59.3225 27.764 59.3105 27.7 59.2945 27.652C59.2865 27.604 59.2665 27.568 59.2345 27.544C59.2025 27.52 59.1505 27.504 59.0785 27.496C59.0145 27.488 58.9225 27.484 58.8025 27.484V26.956H60.3625V27.604C60.4905 27.1 60.8385 26.848 61.4065 26.848C61.8625 26.848 62.2065 26.972 62.4385 27.22C62.6705 27.46 62.7865 27.868 62.7865 28.444ZM67.1534 27.484H67.0454C66.9574 27.484 66.8854 27.508 66.8294 27.556C66.7814 27.596 66.7334 27.688 66.6854 27.832C66.5174 28.336 66.3334 28.972 66.1334 29.74C65.9334 30.5 65.7254 31.42 65.5094 32.5H64.6934C64.5254 31.724 64.3414 30.952 64.1414 30.184C63.9494 29.416 63.7054 28.632 63.4094 27.832C63.3454 27.664 63.2774 27.564 63.2054 27.532C63.1414 27.5 63.0654 27.484 62.9774 27.484V26.956H65.1254V27.484H64.9934C64.7214 27.484 64.5854 27.556 64.5854 27.7C64.8174 29.06 65.0974 30.184 65.4254 31.072C65.5614 30.64 65.6894 30.156 65.8094 29.62C65.9374 29.076 66.0574 28.48 66.1694 27.832C66.1774 27.816 66.1814 27.776 66.1814 27.712C66.1814 27.56 66.0054 27.484 65.6534 27.484V26.956H67.1534V27.484ZM68.5094 23.944C68.7174 23.944 68.8894 24.028 69.0254 24.196C69.1694 24.356 69.2414 24.544 69.2414 24.76C69.2414 24.984 69.1694 25.18 69.0254 25.348C68.8894 25.516 68.7174 25.6 68.5094 25.6C68.2934 25.6 68.1134 25.516 67.9694 25.348C67.8254 25.18 67.7534 24.984 67.7534 24.76C67.7534 24.544 67.8254 24.356 67.9694 24.196C68.1134 24.028 68.2934 23.944 68.5094 23.944ZM69.6494 32.5H67.4294V31.972H67.6094C67.7054 31.972 67.7814 31.936 67.8374 31.864C67.8934 31.792 67.9334 31.644 67.9574 31.42C67.9894 31.196 68.0094 30.872 68.0174 30.448C68.0254 30.024 68.0294 29.464 68.0294 28.768C68.0294 28.376 67.9974 28.072 67.9334 27.856C67.8694 27.64 67.7014 27.516 67.4294 27.484V26.956H69.1574C69.1574 27.364 69.1534 27.744 69.1454 28.096C69.1374 28.448 69.1294 28.752 69.1214 29.008C69.1134 29.264 69.1054 29.468 69.0974 29.62C69.0894 29.764 69.0854 29.84 69.0854 29.848C69.0854 30.272 69.0894 30.62 69.0974 30.892C69.1134 31.164 69.1414 31.38 69.1814 31.54C69.2214 31.7 69.2774 31.812 69.3494 31.876C69.4214 31.94 69.5214 31.972 69.6494 31.972V32.5ZM73.7647 31.18C73.4767 32.116 72.8967 32.584 72.0247 32.584C71.7367 32.584 71.4727 32.516 71.2327 32.38C70.9927 32.244 70.7847 32.064 70.6087 31.84C70.4327 31.616 70.2927 31.356 70.1887 31.06C70.0927 30.764 70.0447 30.452 70.0447 30.124V29.296C70.0447 28.976 70.0927 28.668 70.1887 28.372C70.2927 28.068 70.4327 27.804 70.6087 27.58C70.7847 27.356 70.9927 27.176 71.2327 27.04C71.4727 26.904 71.7367 26.836 72.0247 26.836C72.2727 26.836 72.5007 26.876 72.7087 26.956C72.9167 27.036 73.0967 27.152 73.2487 27.304C73.4007 27.448 73.5167 27.624 73.5967 27.832C73.6847 28.04 73.7287 28.268 73.7287 28.516C73.7287 28.724 73.6567 28.908 73.5127 29.068C73.3687 29.22 73.1927 29.296 72.9847 29.296C72.7687 29.296 72.5887 29.216 72.4447 29.056C72.3007 28.888 72.2287 28.696 72.2287 28.48C72.2287 28.088 72.4047 27.824 72.7567 27.688C72.7487 27.464 72.5047 27.352 72.0247 27.352C71.9047 27.352 71.7967 27.38 71.7007 27.436C71.6047 27.492 71.5207 27.568 71.4487 27.664C71.3847 27.752 71.3327 27.856 71.2927 27.976C71.2527 28.088 71.2327 28.204 71.2327 28.324V31.096C71.2327 31.36 71.3087 31.588 71.4607 31.78C71.6207 31.972 71.8087 32.068 72.0247 32.068C72.1607 32.068 72.3047 32.048 72.4567 32.008C72.6167 31.96 72.7647 31.896 72.9007 31.816C73.0367 31.736 73.1527 31.644 73.2487 31.54C73.3527 31.428 73.4207 31.308 73.4527 31.18H73.7647ZM78.1012 31.18C77.8132 32.116 77.2332 32.584 76.3612 32.584C76.0652 32.584 75.7932 32.516 75.5452 32.38C75.3052 32.236 75.0972 32.048 74.9212 31.816C74.7532 31.576 74.6212 31.3 74.5252 30.988C74.4292 30.676 74.3812 30.344 74.3812 29.992V29.296C74.3812 28.976 74.4292 28.668 74.5252 28.372C74.6292 28.068 74.7692 27.804 74.9452 27.58C75.1212 27.356 75.3292 27.176 75.5692 27.04C75.8172 26.904 76.0812 26.836 76.3612 26.836C76.8892 26.836 77.3052 26.984 77.6092 27.28C77.9132 27.568 78.0652 27.98 78.0652 28.516C78.0652 28.62 78.0492 28.712 78.0172 28.792C77.9932 28.872 77.9452 28.948 77.8732 29.02C77.8092 29.092 77.7172 29.164 77.5972 29.236C77.4772 29.308 77.3252 29.384 77.1412 29.464L75.5692 30.16V31.096C75.5692 31.36 75.6452 31.588 75.7972 31.78C75.9572 31.972 76.1452 32.068 76.3612 32.068C76.5052 32.068 76.6532 32.048 76.8052 32.008C76.9572 31.96 77.0972 31.896 77.2252 31.816C77.3612 31.736 77.4772 31.644 77.5732 31.54C77.6772 31.428 77.7492 31.308 77.7892 31.18H78.1012ZM77.3452 28.396C77.3452 27.7 77.0172 27.352 76.3612 27.352C76.2412 27.352 76.1332 27.38 76.0372 27.436C75.9412 27.492 75.8572 27.568 75.7852 27.664C75.7212 27.752 75.6692 27.856 75.6292 27.976C75.5892 28.088 75.5692 28.204 75.5692 28.324V29.536L76.9852 28.96C77.2252 28.864 77.3452 28.676 77.3452 28.396ZM80.4418 26.836C80.6418 26.836 80.8298 26.872 81.0058 26.944C81.1898 27.016 81.3418 27.16 81.4618 27.376V26.86H81.9298V28.456H81.4618C81.4618 28.16 81.3778 27.904 81.2098 27.688C81.0418 27.464 80.8258 27.352 80.5618 27.352C80.1458 27.352 79.9378 27.564 79.9378 27.988C79.9378 28.116 79.9578 28.228 79.9978 28.324C80.0458 28.42 80.1178 28.512 80.2138 28.6C80.3178 28.68 80.4498 28.764 80.6098 28.852C80.7698 28.94 80.9658 29.036 81.1978 29.14C81.5818 29.324 81.8458 29.556 81.9898 29.836C82.1418 30.116 82.2178 30.472 82.2178 30.904C82.2178 31.152 82.1658 31.38 82.0618 31.588C81.9658 31.796 81.8298 31.976 81.6538 32.128C81.4778 32.28 81.2738 32.4 81.0418 32.488C80.8178 32.576 80.5738 32.62 80.3098 32.62C80.1018 32.62 79.9018 32.584 79.7098 32.512C79.5178 32.448 79.3458 32.352 79.1938 32.224C79.0418 32.088 78.9178 31.924 78.8218 31.732C78.7258 31.54 78.6698 31.316 78.6538 31.06L79.0378 30.94C79.0858 31.3 79.2258 31.584 79.4578 31.792C79.6978 32 79.9698 32.104 80.2738 32.104C80.5058 32.104 80.7058 32.016 80.8738 31.84C81.0418 31.664 81.1258 31.452 81.1258 31.204C81.1258 30.916 81.0698 30.7 80.9578 30.556C80.8538 30.412 80.7138 30.292 80.5378 30.196C80.3698 30.1 80.1778 30.004 79.9618 29.908C79.7458 29.804 79.5338 29.652 79.3258 29.452C79.1578 29.292 79.0418 29.104 78.9778 28.888C78.9138 28.664 78.8818 28.436 78.8818 28.204C78.8818 28.012 78.9218 27.832 79.0018 27.664C79.0818 27.496 79.1898 27.352 79.3258 27.232C79.4618 27.104 79.6258 27.008 79.8178 26.944C80.0098 26.872 80.2178 26.836 80.4418 26.836Z" fill="#AA9FC3"/>
</svg>
