<svg width="242" height="50" viewBox="0 0 242 50" fill="none" xmlns="http://www.w3.org/2000/svg">
<path d="M19.0752 22.2H14.6112V21.168H14.8992C15.4432 21.168 15.7152 21.016 15.7152 20.712C15.7152 20.504 15.6752 20.152 15.5952 19.656C15.5152 19.176 15.4272 18.624 15.3312 18H10.4352L10.0752 20.424C10.0592 20.472 10.0512 20.52 10.0512 20.568C10.0512 20.632 10.0512 20.688 10.0512 20.736C10.0512 20.928 10.1392 21.048 10.3152 21.096C10.4912 21.144 10.7632 21.168 11.1312 21.168V22.2H8.03519V21.168H8.32319C8.64319 21.168 8.89119 20.936 9.06719 20.472C9.73919 17.08 10.3712 13.776 10.9632 10.56C11.5552 7.344 12.1152 4.144 12.6432 0.959999H14.2992C14.5872 3.312 15.0032 5.88 15.5472 8.664C16.1072 11.448 16.7472 14.536 17.4672 17.928C17.5312 18.216 17.6032 18.568 17.6832 18.984C17.7792 19.416 17.9072 19.912 18.0672 20.472C18.1472 20.808 18.2512 21.008 18.3792 21.072C18.5072 21.136 18.7392 21.168 19.0752 21.168V22.2ZM15.1872 16.968L13.0032 4.248C12.9712 4.392 12.8912 4.784 12.7632 5.424C12.6512 6.048 12.5072 6.8 12.3312 7.68C12.1712 8.544 11.9952 9.48 11.8032 10.488C11.6112 11.48 11.4272 12.424 11.2512 13.32C11.0912 14.216 10.9472 15 10.8192 15.672C10.7072 16.344 10.6352 16.776 10.6032 16.968H15.1872ZM21.7116 6.672C22.1116 6.672 22.4876 6.744 22.8396 6.888C23.2076 7.032 23.5116 7.32 23.7516 7.752V6.72H24.6876V9.912H23.7516C23.7516 9.32 23.5836 8.808 23.2476 8.376C22.9116 7.928 22.4796 7.704 21.9516 7.704C21.1196 7.704 20.7036 8.128 20.7036 8.976C20.7036 9.232 20.7436 9.456 20.8236 9.648C20.9196 9.84 21.0636 10.024 21.2556 10.2C21.4636 10.36 21.7276 10.528 22.0476 10.704C22.3676 10.88 22.7596 11.072 23.2236 11.28C23.9916 11.648 24.5196 12.112 24.8076 12.672C25.1116 13.232 25.2636 13.944 25.2636 14.808C25.2636 15.304 25.1596 15.76 24.9516 16.176C24.7596 16.592 24.4876 16.952 24.1356 17.256C23.7836 17.56 23.3756 17.8 22.9116 17.976C22.4636 18.152 21.9756 18.24 21.4476 18.24C21.0316 18.24 20.6316 18.168 20.2476 18.024C19.8636 17.896 19.5196 17.704 19.2156 17.448C18.9116 17.176 18.6636 16.848 18.4716 16.464C18.2796 16.08 18.1676 15.632 18.1356 15.12L18.9036 14.88C18.9996 15.6 19.2796 16.168 19.7436 16.584C20.2236 17 20.7676 17.208 21.3756 17.208C21.8396 17.208 22.2396 17.032 22.5756 16.68C22.9116 16.328 23.0796 15.904 23.0796 15.408C23.0796 14.832 22.9676 14.4 22.7436 14.112C22.5356 13.824 22.2556 13.584 21.9036 13.392C21.5676 13.2 21.1836 13.008 20.7516 12.816C20.3196 12.608 19.8956 12.304 19.4796 11.904C19.1436 11.584 18.9116 11.208 18.7836 10.776C18.6556 10.328 18.5916 9.872 18.5916 9.408C18.5916 9.024 18.6716 8.664 18.8316 8.328C18.9916 7.992 19.2076 7.704 19.4796 7.464C19.7516 7.208 20.0796 7.016 20.4636 6.888C20.8476 6.744 21.2636 6.672 21.7116 6.672ZM35.8831 18H31.4191V16.944H31.7551C31.9471 16.944 32.0911 16.928 32.1871 16.896C32.2991 16.848 32.3791 16.736 32.4271 16.56C32.4751 16.384 32.4991 16.128 32.4991 15.792C32.5151 15.44 32.5231 14.96 32.5231 14.352V9.552C32.4751 9.056 32.3071 8.616 32.0191 8.232C31.7471 7.848 31.3711 7.656 30.8911 7.656C30.3791 7.656 29.9711 7.856 29.6671 8.256C29.3631 8.64 29.2111 9.088 29.2111 9.6V14.568C29.2111 15.464 29.2671 16.088 29.3791 16.44C29.5071 16.776 29.8271 16.944 30.3391 16.944V18H25.8991V16.944H26.2591C26.6751 16.944 26.8991 16.704 26.9311 16.224C26.9951 14.816 27.0351 13.448 27.0511 12.12C27.0671 10.776 27.0751 9.4 27.0751 7.992C27.0751 7.128 27.0671 6.224 27.0511 5.28C27.0351 4.336 26.9951 3.24 26.9311 1.992C26.8991 1.656 26.7951 1.456 26.6191 1.392C26.4591 1.328 26.2191 1.296 25.8991 1.296V0.24H29.3311C29.3311 1.008 29.3231 1.976 29.3071 3.144C29.2911 4.312 29.2671 5.784 29.2351 7.56C29.6511 6.952 30.2511 6.648 31.0351 6.648C31.6271 6.648 32.1551 6.736 32.6191 6.912C33.0831 7.088 33.4751 7.336 33.7951 7.656C34.1151 7.96 34.3551 8.32 34.5151 8.736C34.6911 9.136 34.7791 9.576 34.7791 10.056V13.176C34.7791 14.104 34.7951 14.824 34.8271 15.336C34.8591 15.832 34.9151 16.2 34.9951 16.44C35.0911 16.68 35.2031 16.824 35.3311 16.872C35.4751 16.92 35.6591 16.944 35.8831 16.944V18ZM47.4464 0.983999C48.7424 0.983999 49.7264 1.416 50.3984 2.28C51.0704 3.144 51.4064 4.352 51.4064 5.904C51.4064 7.344 51.0544 8.512 50.3504 9.408C49.6464 10.288 48.6224 10.728 47.2784 10.728H45.3584C45.3584 12.44 45.3664 13.888 45.3824 15.072C45.3984 16.256 45.4224 17.232 45.4544 18C45.5024 18.784 45.5504 19.392 45.5984 19.824C45.6624 20.256 45.7344 20.576 45.8144 20.784C45.9104 20.992 46.0144 21.112 46.1264 21.144C46.2544 21.192 46.3984 21.216 46.5584 21.216V22.248H42.1184V21.216H42.3584C42.5664 21.216 42.7344 21.176 42.8624 21.096C42.9904 21.016 43.0864 20.8 43.1504 20.448C43.2144 20.096 43.2544 19.552 43.2704 18.816C43.2864 18.096 43.2944 17.088 43.2944 15.792C43.2944 13.952 43.2944 12.368 43.2944 11.04C43.3104 9.696 43.3184 8.536 43.3184 7.56C43.3184 6.216 43.3024 5.176 43.2704 4.44C43.2544 3.704 43.1984 3.16 43.1024 2.808C43.0224 2.44 42.9024 2.224 42.7424 2.16C42.5824 2.08 42.3744 2.04 42.1184 2.04V0.983999H47.4464ZM46.2944 2.04C46.0224 2.04 45.8224 2.2 45.6944 2.52C45.5824 2.84 45.5024 3.32 45.4544 3.96C45.4064 4.6 45.3824 5.4 45.3824 6.36C45.3824 7.304 45.3744 8.408 45.3584 9.672H46.7744C47.5104 9.672 48.0624 9.424 48.4304 8.928C48.8144 8.432 49.0064 7.752 49.0064 6.888V5.04C49.0064 4.128 48.8064 3.4 48.4064 2.856C48.0064 2.312 47.4624 2.04 46.7744 2.04H46.2944ZM63.4308 0.983999C64.7268 0.983999 65.7108 1.416 66.3828 2.28C67.0548 3.144 67.3908 4.352 67.3908 5.904C67.3908 8.688 66.2148 10.184 63.8628 10.392C64.5348 10.712 65.1268 11.184 65.6388 11.808C66.1668 12.416 66.5988 13.2 66.9348 14.16C67.1908 14.896 67.4308 15.68 67.6548 16.512C67.8948 17.328 68.1508 18.08 68.4228 18.768C68.6948 19.472 69.0068 20.056 69.3588 20.52C69.7108 20.984 70.1268 21.216 70.6068 21.216H71.5428V22.248H69.9348C68.4468 22.248 67.2628 21.288 66.3828 19.368C66.0468 18.408 65.7188 17.432 65.3988 16.44C65.0788 15.432 64.7268 14.512 64.3428 13.68C63.9748 12.832 63.5508 12.128 63.0708 11.568C62.5908 11.008 62.0148 10.688 61.3428 10.608C61.3428 10.832 61.3428 11.216 61.3428 11.76C61.3428 12.288 61.3428 12.888 61.3428 13.56C61.3588 14.232 61.3748 14.944 61.3908 15.696C61.4068 16.432 61.4228 17.128 61.4388 17.784C61.4548 18.44 61.4708 19.016 61.4868 19.512C61.5028 20.008 61.5188 20.344 61.5348 20.52C61.5668 20.824 61.6388 21.016 61.7508 21.096C61.8788 21.192 62.0628 21.24 62.3028 21.24C62.4308 21.24 62.5108 21.232 62.5428 21.216V22.248H58.1028V21.216H58.3188C58.6068 21.216 58.8148 21.168 58.9428 21.072C59.0708 20.976 59.1348 20.792 59.1348 20.52C59.1668 19.112 59.1988 17.536 59.2308 15.792C59.2628 14.032 59.2788 12.056 59.2788 9.864C59.2788 8.568 59.2708 7.48 59.2548 6.6C59.2548 5.704 59.2468 4.968 59.2308 4.392C59.2148 3.8 59.1828 3.344 59.1348 3.024C59.1028 2.704 59.0548 2.472 58.9908 2.328C58.9268 2.168 58.8388 2.08 58.7268 2.064C58.6308 2.032 58.5188 2.016 58.3908 2.016C58.3588 2.016 58.3108 2.016 58.2468 2.016C58.1988 2.016 58.1508 2.024 58.1028 2.04V0.983999H63.4308ZM62.2788 2.04C62.0068 2.04 61.8068 2.184 61.6788 2.472C61.5668 2.76 61.4868 3.208 61.4388 3.816C61.3908 4.408 61.3668 5.168 61.3668 6.096C61.3668 7.024 61.3588 8.12 61.3428 9.384H62.7588C63.4948 9.384 64.0468 9.136 64.4148 8.64C64.7988 8.144 64.9908 7.464 64.9908 6.6V5.04C64.9908 4.128 64.7908 3.4 64.3908 2.856C63.9908 2.312 63.4468 2.04 62.7588 2.04H62.2788ZM77.7102 15.36C77.1342 17.232 75.9742 18.168 74.2302 18.168C73.6382 18.168 73.0942 18.032 72.5982 17.76C72.1182 17.472 71.7022 17.096 71.3502 16.632C71.0142 16.152 70.7502 15.6 70.5582 14.976C70.3662 14.352 70.2702 13.688 70.2702 12.984V11.592C70.2702 10.952 70.3662 10.336 70.5582 9.744C70.7662 9.136 71.0462 8.608 71.3982 8.16C71.7502 7.712 72.1662 7.352 72.6462 7.08C73.1422 6.808 73.6702 6.672 74.2302 6.672C75.2862 6.672 76.1182 6.968 76.7262 7.56C77.3342 8.136 77.6382 8.96 77.6382 10.032C77.6382 10.24 77.6062 10.424 77.5422 10.584C77.4942 10.744 77.3982 10.896 77.2542 11.04C77.1262 11.184 76.9422 11.328 76.7022 11.472C76.4622 11.616 76.1582 11.768 75.7902 11.928L72.6462 13.32V15.192C72.6462 15.72 72.7982 16.176 73.1022 16.56C73.4222 16.944 73.7982 17.136 74.2302 17.136C74.5182 17.136 74.8142 17.096 75.1182 17.016C75.4222 16.92 75.7022 16.792 75.9582 16.632C76.2302 16.472 76.4622 16.288 76.6542 16.08C76.8622 15.856 77.0062 15.616 77.0862 15.36H77.7102ZM76.1982 9.792C76.1982 8.4 75.5422 7.704 74.2302 7.704C73.9902 7.704 73.7742 7.76 73.5822 7.872C73.3902 7.984 73.2222 8.136 73.0782 8.328C72.9502 8.504 72.8462 8.712 72.7662 8.952C72.6862 9.176 72.6462 9.408 72.6462 9.648V12.072L75.4782 10.92C75.9582 10.728 76.1982 10.352 76.1982 9.792ZM88.5593 16.416C88.5593 16.912 88.3913 17.336 88.0553 17.688C87.7353 18.024 87.3113 18.192 86.7833 18.192C85.9513 18.192 85.3593 17.824 85.0073 17.088C84.5433 17.44 84.0793 17.72 83.6153 17.928C83.1513 18.12 82.6953 18.216 82.2473 18.216C80.0553 18.216 78.9593 17.248 78.9593 15.312C78.9593 14.336 79.3593 13.64 80.1593 13.224C80.5593 13.016 80.9673 12.824 81.3833 12.648C81.8153 12.456 82.2233 12.264 82.6073 12.072C82.9913 11.88 83.3513 11.672 83.6873 11.448C84.0233 11.208 84.3113 10.944 84.5513 10.656C84.5353 10.064 84.4953 9.584 84.4313 9.216C84.3833 8.832 84.3033 8.536 84.1913 8.328C84.0953 8.104 83.9593 7.952 83.7833 7.872C83.6073 7.776 83.3833 7.728 83.1113 7.728C82.1193 7.728 81.6233 7.952 81.6233 8.4C82.3113 8.656 82.6553 9.192 82.6553 10.008C82.6553 10.44 82.5113 10.824 82.2233 11.16C81.9513 11.48 81.6073 11.64 81.1913 11.64C80.7593 11.64 80.3993 11.488 80.1113 11.184C79.8393 10.864 79.7033 10.488 79.7033 10.056C79.7033 9.512 79.7913 9.032 79.9673 8.616C80.1593 8.2 80.4153 7.848 80.7353 7.56C81.0553 7.272 81.4313 7.056 81.8633 6.912C82.2953 6.768 82.7673 6.696 83.2793 6.696C83.8713 6.696 84.3833 6.768 84.8153 6.912C85.2633 7.056 85.6233 7.352 85.8953 7.8C86.1833 8.248 86.3913 8.888 86.5193 9.72C86.6633 10.536 86.7353 11.616 86.7353 12.96C86.7353 14.208 86.7673 15.176 86.8313 15.864C86.8953 16.552 87.0313 16.896 87.2393 16.896C87.3353 16.896 87.4233 16.848 87.5033 16.752C87.5833 16.656 87.6233 16.512 87.6233 16.32V15.552H88.5593V16.416ZM84.6473 14.904C84.6473 14.344 84.6393 13.784 84.6233 13.224C84.6233 12.648 84.6153 12.08 84.5993 11.52C84.3433 11.888 84.0393 12.2 83.6873 12.456C83.3353 12.696 82.9913 12.936 82.6553 13.176C82.3353 13.416 82.0553 13.688 81.8153 13.992C81.5913 14.296 81.4793 14.68 81.4793 15.144C81.4793 16.12 82.0313 16.608 83.1353 16.608C83.5673 16.608 83.9273 16.432 84.2153 16.08C84.5033 15.728 84.6473 15.336 84.6473 14.904ZM93.9258 1.992C93.8938 1.72 93.8058 1.528 93.6618 1.416C93.5178 1.304 93.3098 1.248 93.0378 1.248C92.9738 1.248 92.9178 1.264 92.8698 1.296V0.24H96.3258V1.224C96.3258 1.4 96.3178 1.792 96.3018 2.4C96.3018 2.992 96.2938 3.704 96.2778 4.536C96.2618 5.368 96.2458 6.272 96.2298 7.248C96.2298 8.208 96.2298 9.144 96.2298 10.056C96.2298 11.304 96.2378 12.48 96.2538 13.584C96.2698 14.672 96.3178 15.56 96.3978 16.248C96.4298 16.536 96.4938 16.728 96.5898 16.824C96.6858 16.92 96.8778 16.968 97.1658 16.968C97.1978 16.968 97.2378 16.968 97.2858 16.968C97.3498 16.968 97.3978 16.96 97.4298 16.944V18C96.9818 17.984 96.6218 17.96 96.3498 17.928C96.0778 17.896 95.8538 17.84 95.6778 17.76C95.5178 17.68 95.3738 17.576 95.2458 17.448C95.1338 17.304 95.0058 17.12 94.8618 16.896C94.5738 17.264 94.2138 17.568 93.7818 17.808C93.3498 18.048 92.9098 18.168 92.4618 18.168C91.8858 18.168 91.3578 18.032 90.8778 17.76C90.3978 17.488 89.9818 17.128 89.6298 16.68C89.2938 16.216 89.0298 15.688 88.8378 15.096C88.6458 14.504 88.5498 13.888 88.5498 13.248V11.592C88.5498 10.952 88.6458 10.336 88.8378 9.744C89.0298 9.152 89.3018 8.632 89.6538 8.184C90.0058 7.72 90.4218 7.352 90.9018 7.08C91.3818 6.808 91.9018 6.672 92.4618 6.672C93.1178 6.672 93.6858 7.016 94.1658 7.704C94.1498 7.464 94.1418 7.144 94.1418 6.744C94.1418 6.344 94.1338 5.896 94.1178 5.4C94.1018 4.904 94.0778 4.368 94.0458 3.792C94.0298 3.2 93.9898 2.6 93.9258 1.992ZM93.9978 9.648C93.9978 9.408 93.9578 9.176 93.8778 8.952C93.8138 8.712 93.7098 8.504 93.5658 8.328C93.4378 8.136 93.2778 7.984 93.0858 7.872C92.8938 7.76 92.6858 7.704 92.4618 7.704C92.2378 7.704 92.0298 7.76 91.8378 7.872C91.6458 7.984 91.4778 8.136 91.3338 8.328C91.2058 8.504 91.1018 8.712 91.0218 8.952C90.9578 9.176 90.9258 9.408 90.9258 9.648V15.192C90.9258 15.72 91.0698 16.176 91.3578 16.56C91.6458 16.944 92.0138 17.136 92.4618 17.136C92.6698 17.136 92.8698 17.08 93.0618 16.968C93.2538 16.856 93.4138 16.712 93.5418 16.536C93.6858 16.36 93.7978 16.152 93.8778 15.912C93.9578 15.672 93.9978 15.432 93.9978 15.192V9.648ZM101.259 6.672C101.659 6.672 102.035 6.744 102.387 6.888C102.755 7.032 103.059 7.32 103.299 7.752V6.72H104.235V9.912H103.299C103.299 9.32 103.131 8.808 102.795 8.376C102.459 7.928 102.027 7.704 101.499 7.704C100.667 7.704 100.251 8.128 100.251 8.976C100.251 9.232 100.291 9.456 100.371 9.648C100.467 9.84 100.611 10.024 100.803 10.2C101.011 10.36 101.275 10.528 101.595 10.704C101.915 10.88 102.307 11.072 102.771 11.28C103.539 11.648 104.067 12.112 104.355 12.672C104.659 13.232 104.811 13.944 104.811 14.808C104.811 15.304 104.707 15.76 104.499 16.176C104.307 16.592 104.035 16.952 103.683 17.256C103.331 17.56 102.923 17.8 102.459 17.976C102.011 18.152 101.523 18.24 100.995 18.24C100.579 18.24 100.179 18.168 99.7945 18.024C99.4105 17.896 99.0665 17.704 98.7625 17.448C98.4585 17.176 98.2105 16.848 98.0185 16.464C97.8265 16.08 97.7145 15.632 97.6825 15.12L98.4505 14.88C98.5465 15.6 98.8265 16.168 99.2905 16.584C99.7705 17 100.315 17.208 100.923 17.208C101.387 17.208 101.787 17.032 102.123 16.68C102.459 16.328 102.627 15.904 102.627 15.408C102.627 14.832 102.515 14.4 102.291 14.112C102.083 13.824 101.803 13.584 101.451 13.392C101.115 13.2 100.731 13.008 100.299 12.816C99.8665 12.608 99.4425 12.304 99.0265 11.904C98.6905 11.584 98.4585 11.208 98.3305 10.776C98.2025 10.328 98.1385 9.872 98.1385 9.408C98.1385 9.024 98.2185 8.664 98.3785 8.328C98.5385 7.992 98.7545 7.704 99.0265 7.464C99.2985 7.208 99.6265 7.016 100.011 6.888C100.395 6.744 100.811 6.672 101.259 6.672ZM121.391 22.248H110.711V21.216H111.023C111.295 21.216 111.487 21.16 111.599 21.048C111.727 20.936 111.807 20.696 111.839 20.328C111.887 18.92 111.911 17.056 111.911 14.736C111.911 13.248 111.903 11.888 111.887 10.656C111.887 9.408 111.887 8.32 111.887 7.392C111.887 6.464 111.879 5.72 111.863 5.16C111.863 4.584 111.863 4.224 111.863 4.08C111.847 3.648 111.815 3.304 111.767 3.048C111.719 2.776 111.647 2.568 111.551 2.424C111.471 2.264 111.359 2.16 111.215 2.112C111.087 2.064 110.919 2.04 110.711 2.04V0.983999H118.343V3.384H117.359C117.359 2.488 117.143 2.04 116.711 2.04H115.079C114.727 2.04 114.487 2.08 114.359 2.16C114.247 2.224 114.175 2.416 114.143 2.736C114.111 3.12 114.079 3.856 114.047 4.944C114.015 6.016 113.991 7.496 113.975 9.384H115.583C116.111 9.384 116.375 8.936 116.375 8.04H117.359V11.808H116.375C116.375 10.88 116.111 10.416 115.583 10.416H113.951V12.552C113.951 14.664 113.967 16.368 113.999 17.664C114.031 18.96 114.079 19.904 114.143 20.496C114.175 20.816 114.247 21.016 114.359 21.096C114.471 21.176 114.687 21.216 115.007 21.216H119.783C120.215 21.216 120.431 20.76 120.431 19.848H121.391V22.248ZM123.832 1.992C123.8 1.72 123.712 1.528 123.568 1.416C123.424 1.304 123.216 1.248 122.944 1.248C122.88 1.248 122.824 1.264 122.776 1.296V0.24H126.232V1.224C126.232 1.4 126.224 1.792 126.208 2.4C126.208 2.992 126.2 3.704 126.184 4.536C126.168 5.368 126.152 6.272 126.136 7.248C126.136 8.208 126.136 9.144 126.136 10.056C126.136 11.304 126.144 12.48 126.16 13.584C126.176 14.672 126.224 15.56 126.304 16.248C126.336 16.536 126.4 16.728 126.496 16.824C126.592 16.92 126.784 16.968 127.072 16.968C127.104 16.968 127.144 16.968 127.192 16.968C127.256 16.968 127.304 16.96 127.336 16.944V18C126.888 17.984 126.528 17.96 126.256 17.928C125.984 17.896 125.76 17.84 125.584 17.76C125.424 17.68 125.28 17.576 125.152 17.448C125.04 17.304 124.912 17.12 124.768 16.896C124.48 17.264 124.12 17.568 123.688 17.808C123.256 18.048 122.816 18.168 122.368 18.168C121.792 18.168 121.264 18.032 120.784 17.76C120.304 17.488 119.888 17.128 119.536 16.68C119.2 16.216 118.936 15.688 118.744 15.096C118.552 14.504 118.456 13.888 118.456 13.248V11.592C118.456 10.952 118.552 10.336 118.744 9.744C118.936 9.152 119.208 8.632 119.56 8.184C119.912 7.72 120.328 7.352 120.808 7.08C121.288 6.808 121.808 6.672 122.368 6.672C123.024 6.672 123.592 7.016 124.072 7.704C124.056 7.464 124.048 7.144 124.048 6.744C124.048 6.344 124.04 5.896 124.024 5.4C124.008 4.904 123.984 4.368 123.952 3.792C123.936 3.2 123.896 2.6 123.832 1.992ZM123.904 9.648C123.904 9.408 123.864 9.176 123.784 8.952C123.72 8.712 123.616 8.504 123.472 8.328C123.344 8.136 123.184 7.984 122.992 7.872C122.8 7.76 122.592 7.704 122.368 7.704C122.144 7.704 121.936 7.76 121.744 7.872C121.552 7.984 121.384 8.136 121.24 8.328C121.112 8.504 121.008 8.712 120.928 8.952C120.864 9.176 120.832 9.408 120.832 9.648V15.192C120.832 15.72 120.976 16.176 121.264 16.56C121.552 16.944 121.92 17.136 122.368 17.136C122.576 17.136 122.776 17.08 122.968 16.968C123.16 16.856 123.32 16.712 123.448 16.536C123.592 16.36 123.704 16.152 123.784 15.912C123.864 15.672 123.904 15.432 123.904 15.192V9.648ZM129.941 0.887999C130.357 0.887999 130.701 1.056 130.973 1.392C131.261 1.712 131.405 2.088 131.405 2.52C131.405 2.968 131.261 3.36 130.973 3.696C130.701 4.032 130.357 4.2 129.941 4.2C129.509 4.2 129.149 4.032 128.861 3.696C128.573 3.36 128.429 2.968 128.429 2.52C128.429 2.088 128.573 1.712 128.861 1.392C129.149 1.056 129.509 0.887999 129.941 0.887999ZM132.221 18H127.781V16.944H128.141C128.333 16.944 128.485 16.872 128.597 16.728C128.709 16.584 128.789 16.288 128.837 15.84C128.901 15.392 128.941 14.744 128.957 13.896C128.973 13.048 128.981 11.928 128.981 10.536C128.981 9.752 128.917 9.144 128.789 8.712C128.661 8.28 128.325 8.032 127.781 7.968V6.912H131.237C131.237 7.728 131.229 8.488 131.213 9.192C131.197 9.896 131.181 10.504 131.165 11.016C131.149 11.528 131.133 11.936 131.117 12.24C131.101 12.528 131.093 12.68 131.093 12.696C131.093 13.544 131.101 14.24 131.117 14.784C131.149 15.328 131.205 15.76 131.285 16.08C131.365 16.4 131.477 16.624 131.621 16.752C131.765 16.88 131.965 16.944 132.221 16.944V18ZM139.755 18.552C139.739 18.776 139.659 19.016 139.515 19.272C139.387 19.528 139.219 19.76 139.011 19.968C138.819 20.176 138.603 20.344 138.363 20.472C138.123 20.616 137.891 20.688 137.667 20.688C137.155 20.688 136.683 20.632 136.251 20.52C135.835 20.424 135.475 20.216 135.171 19.896C134.867 19.576 134.627 19.12 134.451 18.528C134.291 17.952 134.211 17.192 134.211 16.248V10.968C134.211 10.472 134.203 9.976 134.187 9.48C134.171 8.984 134.147 8.48 134.115 7.968H132.891V6.912C133.259 6.912 133.603 6.776 133.923 6.504C134.259 6.216 134.547 5.856 134.787 5.424C135.027 4.992 135.219 4.512 135.363 3.984C135.507 3.456 135.579 2.936 135.579 2.424H136.443V6.912H138.339V7.968H136.443C136.379 8.784 136.323 9.8 136.275 11.016C136.227 12.232 136.203 13.688 136.203 15.384C136.203 16.216 136.227 16.904 136.275 17.448C136.339 17.992 136.427 18.424 136.539 18.744C136.667 19.08 136.819 19.312 136.995 19.44C137.187 19.584 137.411 19.656 137.667 19.656C137.779 19.656 137.907 19.624 138.051 19.56C138.211 19.496 138.355 19.408 138.483 19.296C138.627 19.184 138.739 19.064 138.819 18.936C138.915 18.808 138.963 18.68 138.963 18.552H139.755ZM141.027 0.887999C141.443 0.887999 141.787 1.056 142.059 1.392C142.347 1.712 142.491 2.088 142.491 2.52C142.491 2.968 142.347 3.36 142.059 3.696C141.787 4.032 141.443 4.2 141.027 4.2C140.595 4.2 140.235 4.032 139.947 3.696C139.659 3.36 139.515 2.968 139.515 2.52C139.515 2.088 139.659 1.712 139.947 1.392C140.235 1.056 140.595 0.887999 141.027 0.887999ZM143.307 18H138.867V16.944H139.227C139.419 16.944 139.571 16.872 139.683 16.728C139.795 16.584 139.875 16.288 139.923 15.84C139.987 15.392 140.027 14.744 140.043 13.896C140.059 13.048 140.067 11.928 140.067 10.536C140.067 9.752 140.003 9.144 139.875 8.712C139.747 8.28 139.411 8.032 138.867 7.968V6.912H142.323C142.323 7.728 142.315 8.488 142.299 9.192C142.283 9.896 142.267 10.504 142.251 11.016C142.235 11.528 142.219 11.936 142.203 12.24C142.187 12.528 142.179 12.68 142.179 12.696C142.179 13.544 142.187 14.24 142.203 14.784C142.235 15.328 142.291 15.76 142.371 16.08C142.451 16.4 142.563 16.624 142.707 16.752C142.851 16.88 143.051 16.944 143.307 16.944V18ZM153.649 18H149.209V16.944H149.545C149.897 16.944 150.105 16.816 150.169 16.56C150.233 16.304 150.265 15.824 150.265 15.12C150.265 14.352 150.273 13.664 150.289 13.056C150.305 12.448 150.313 11.88 150.313 11.352C150.313 10.168 150.217 9.272 150.025 8.664C149.833 8.056 149.385 7.752 148.681 7.752C147.977 7.752 147.521 8.008 147.313 8.52C147.121 9.016 147.025 9.728 147.025 10.656V15.288C147.025 15.64 147.025 15.928 147.025 16.152C147.041 16.36 147.081 16.528 147.145 16.656C147.225 16.768 147.337 16.848 147.481 16.896C147.641 16.928 147.857 16.944 148.129 16.944V18H143.665V16.944H144.025C144.361 16.944 144.569 16.776 144.649 16.44C144.745 16.104 144.793 15.576 144.793 14.856C144.793 13.8 144.793 12.872 144.793 12.072C144.809 11.256 144.817 10.608 144.817 10.128C144.817 9.648 144.801 9.272 144.769 9C144.753 8.712 144.697 8.496 144.601 8.352C144.521 8.192 144.401 8.088 144.241 8.04C144.097 7.992 143.905 7.968 143.665 7.968V6.912C144.113 6.928 144.473 6.952 144.745 6.984C145.017 7.016 145.241 7.072 145.417 7.152C145.609 7.232 145.761 7.344 145.873 7.488C145.985 7.616 146.105 7.792 146.233 8.016C146.473 7.6 146.801 7.288 147.217 7.08C147.649 6.856 148.129 6.744 148.657 6.744C149.569 6.744 150.281 6.88 150.793 7.152C151.321 7.424 151.713 7.792 151.969 8.256C152.241 8.72 152.409 9.256 152.473 9.864C152.553 10.456 152.593 11.072 152.593 11.712C152.593 12.416 152.593 13.008 152.593 13.488C152.609 13.968 152.617 14.376 152.617 14.712C152.617 15.048 152.617 15.336 152.617 15.576C152.633 15.816 152.641 16.04 152.641 16.248C152.641 16.552 152.697 16.744 152.809 16.824C152.937 16.904 153.217 16.944 153.649 16.944V18ZM163.963 7.536C163.963 7.904 163.867 8.224 163.675 8.496C163.499 8.768 163.227 8.904 162.859 8.904C162.683 8.904 162.515 8.864 162.355 8.784C162.211 8.704 162.075 8.616 161.947 8.52C161.835 8.424 161.739 8.336 161.659 8.256C161.579 8.176 161.523 8.136 161.491 8.136C161.395 8.136 161.283 8.176 161.155 8.256C161.491 8.576 161.747 8.976 161.923 9.456C162.099 9.936 162.187 10.4 162.187 10.848C162.187 11.44 162.123 11.992 161.995 12.504C161.867 13.016 161.667 13.472 161.395 13.872C161.139 14.256 160.811 14.576 160.411 14.832C160.011 15.088 159.539 15.248 158.995 15.312C159.635 16.064 160.171 17.232 160.603 18.816C159.851 18.192 158.931 17.88 157.843 17.88C156.611 17.88 155.995 18.56 155.995 19.92C155.995 20.736 156.259 21.36 156.787 21.792C157.315 22.224 157.987 22.44 158.803 22.44C159.603 22.44 160.299 22.2 160.891 21.72C161.483 21.24 161.859 20.616 162.019 19.848L162.499 20.112C162.339 21.072 161.915 21.824 161.227 22.368C160.555 22.928 159.715 23.208 158.707 23.208C157.955 23.208 157.259 23.128 156.619 22.968C155.995 22.808 155.459 22.568 155.011 22.248C154.563 21.944 154.211 21.568 153.955 21.12C153.715 20.672 153.595 20.168 153.595 19.608C153.595 17.496 154.539 16.44 156.427 16.44C156.683 16.44 156.963 16.472 157.267 16.536C157.571 16.584 157.859 16.656 158.131 16.752C158.403 16.848 158.643 16.96 158.851 17.088C159.075 17.2 159.235 17.32 159.331 17.448C159.283 17.112 159.139 16.776 158.899 16.44C158.675 16.104 158.323 15.872 157.843 15.744C156.515 15.376 155.587 14.776 155.059 13.944C154.547 13.112 154.291 12.048 154.291 10.752C154.291 9.504 154.643 8.512 155.347 7.776C156.051 7.04 157.011 6.672 158.227 6.672C158.659 6.672 159.075 6.736 159.475 6.864C159.875 6.992 160.227 7.232 160.531 7.584C160.787 6.576 161.499 6.072 162.667 6.072C163.531 6.072 163.963 6.56 163.963 7.536ZM159.787 9.648C159.787 9.168 159.643 8.728 159.355 8.328C159.083 7.912 158.707 7.704 158.227 7.704C157.747 7.704 157.363 7.912 157.075 8.328C156.803 8.728 156.667 9.168 156.667 9.648V12.36C156.667 12.904 156.811 13.368 157.099 13.752C157.403 14.136 157.779 14.328 158.227 14.328C158.675 14.328 159.043 14.136 159.331 13.752C159.635 13.368 159.787 12.904 159.787 12.36V9.648ZM177.344 18.144C177.344 18.832 177.216 19.448 176.96 19.992C176.704 20.536 176.368 20.992 175.952 21.36C175.552 21.744 175.096 22.032 174.584 22.224C174.072 22.432 173.552 22.536 173.024 22.536C172.24 22.536 171.544 22.288 170.936 21.792C170.344 21.312 169.92 20.616 169.664 19.704L170.456 19.488C170.616 20.064 170.904 20.536 171.32 20.904C171.752 21.288 172.248 21.48 172.808 21.48C173.672 21.48 174.272 21.216 174.608 20.688C174.96 20.176 175.136 19.44 175.136 18.48C175.136 17.472 174.92 16.456 174.488 15.432C174.056 14.392 173.384 13.248 172.472 12C171.56 10.752 170.888 9.52 170.456 8.304C170.04 7.072 169.832 5.952 169.832 4.944C169.832 4.304 169.92 3.72 170.096 3.192C170.288 2.664 170.544 2.224 170.864 1.872C171.2 1.504 171.592 1.224 172.04 1.032C172.488 0.823999 172.968 0.719999 173.48 0.719999C174.024 0.719999 174.624 0.999999 175.28 1.56V0.503999H176.216V3.696H175.28C175.28 3.12 175.12 2.656 174.8 2.304C174.496 1.936 174.056 1.752 173.48 1.752C172.488 1.752 171.992 2.568 171.992 4.2C171.992 6.168 172.88 8.456 174.656 11.064C175.568 12.392 176.24 13.616 176.672 14.736C177.12 15.856 177.344 16.992 177.344 18.144ZM185.898 15.36C185.322 17.232 184.162 18.168 182.418 18.168C181.826 18.168 181.282 18.032 180.786 17.76C180.306 17.472 179.89 17.096 179.538 16.632C179.202 16.152 178.938 15.6 178.746 14.976C178.554 14.352 178.458 13.688 178.458 12.984V11.592C178.458 10.952 178.554 10.336 178.746 9.744C178.954 9.136 179.234 8.608 179.586 8.16C179.938 7.712 180.354 7.352 180.834 7.08C181.33 6.808 181.858 6.672 182.418 6.672C183.474 6.672 184.306 6.968 184.914 7.56C185.522 8.136 185.826 8.96 185.826 10.032C185.826 10.24 185.794 10.424 185.73 10.584C185.682 10.744 185.586 10.896 185.442 11.04C185.314 11.184 185.13 11.328 184.89 11.472C184.65 11.616 184.346 11.768 183.978 11.928L180.834 13.32V15.192C180.834 15.72 180.986 16.176 181.29 16.56C181.61 16.944 181.986 17.136 182.418 17.136C182.706 17.136 183.002 17.096 183.306 17.016C183.61 16.92 183.89 16.792 184.146 16.632C184.418 16.472 184.65 16.288 184.842 16.08C185.05 15.856 185.194 15.616 185.274 15.36H185.898ZM184.386 9.792C184.386 8.4 183.73 7.704 182.418 7.704C182.178 7.704 181.962 7.76 181.77 7.872C181.578 7.984 181.41 8.136 181.266 8.328C181.138 8.504 181.034 8.712 180.954 8.952C180.874 9.176 180.834 9.408 180.834 9.648V12.072L183.666 10.92C184.146 10.728 184.386 10.352 184.386 9.792ZM194.995 9.888C194.995 10.416 194.843 10.84 194.539 11.16C194.251 11.48 193.899 11.64 193.483 11.64C193.035 11.64 192.675 11.48 192.403 11.16C192.147 10.824 192.019 10.416 192.019 9.936C192.019 9.536 192.123 9.184 192.331 8.88C192.539 8.56 192.835 8.4 193.219 8.4C193.219 7.952 192.891 7.728 192.235 7.728C191.627 7.728 191.147 8.152 190.795 9C190.459 9.848 190.291 11.048 190.291 12.6C190.291 13.416 190.299 14.128 190.315 14.736C190.331 15.328 190.379 15.832 190.459 16.248C190.507 16.552 190.579 16.744 190.675 16.824C190.787 16.904 191.059 16.944 191.491 16.944V18H187.027V16.944H187.387C187.579 16.944 187.731 16.872 187.843 16.728C187.955 16.568 188.035 16.352 188.083 16.08C188.147 15.792 188.187 15.464 188.203 15.096C188.219 14.712 188.227 14.304 188.227 13.872C188.227 12.8 188.211 11.824 188.179 10.944C188.163 10.064 188.131 9.312 188.083 8.688C188.067 8.528 188.043 8.4 188.011 8.304C187.995 8.208 187.955 8.136 187.891 8.088C187.827 8.04 187.723 8.008 187.579 7.992C187.451 7.976 187.267 7.968 187.027 7.968V6.912H190.147V8.208C190.403 7.2 191.099 6.696 192.235 6.696C193.147 6.696 193.835 6.944 194.299 7.44C194.763 7.92 194.995 8.736 194.995 9.888ZM203.729 7.968H203.513C203.337 7.968 203.193 8.016 203.081 8.112C202.985 8.192 202.889 8.376 202.793 8.664C202.457 9.672 202.089 10.944 201.689 12.48C201.289 14 200.873 15.84 200.441 18H198.809C198.473 16.448 198.105 14.904 197.705 13.368C197.321 11.832 196.833 10.264 196.241 8.664C196.113 8.328 195.977 8.128 195.833 8.064C195.705 8 195.553 7.968 195.377 7.968V6.912H199.673V7.968H199.409C198.865 7.968 198.593 8.112 198.593 8.4C199.057 11.12 199.617 13.368 200.273 15.144C200.545 14.28 200.801 13.312 201.041 12.24C201.297 11.152 201.537 9.96 201.761 8.664C201.777 8.632 201.785 8.552 201.785 8.424C201.785 8.12 201.433 7.968 200.729 7.968V6.912H203.729V7.968ZM206.441 0.887999C206.857 0.887999 207.201 1.056 207.473 1.392C207.761 1.712 207.905 2.088 207.905 2.52C207.905 2.968 207.761 3.36 207.473 3.696C207.201 4.032 206.857 4.2 206.441 4.2C206.009 4.2 205.649 4.032 205.361 3.696C205.073 3.36 204.929 2.968 204.929 2.52C204.929 2.088 205.073 1.712 205.361 1.392C205.649 1.056 206.009 0.887999 206.441 0.887999ZM208.721 18H204.281V16.944H204.641C204.833 16.944 204.985 16.872 205.097 16.728C205.209 16.584 205.289 16.288 205.337 15.84C205.401 15.392 205.441 14.744 205.457 13.896C205.473 13.048 205.481 11.928 205.481 10.536C205.481 9.752 205.417 9.144 205.289 8.712C205.161 8.28 204.825 8.032 204.281 7.968V6.912H207.737C207.737 7.728 207.729 8.488 207.713 9.192C207.697 9.896 207.681 10.504 207.665 11.016C207.649 11.528 207.633 11.936 207.617 12.24C207.601 12.528 207.593 12.68 207.593 12.696C207.593 13.544 207.601 14.24 207.617 14.784C207.649 15.328 207.705 15.76 207.785 16.08C207.865 16.4 207.977 16.624 208.121 16.752C208.265 16.88 208.465 16.944 208.721 16.944V18ZM216.951 15.36C216.375 17.232 215.215 18.168 213.471 18.168C212.895 18.168 212.367 18.032 211.887 17.76C211.407 17.488 210.991 17.128 210.639 16.68C210.287 16.232 210.007 15.712 209.799 15.12C209.607 14.528 209.511 13.904 209.511 13.248V11.592C209.511 10.952 209.607 10.336 209.799 9.744C210.007 9.136 210.287 8.608 210.639 8.16C210.991 7.712 211.407 7.352 211.887 7.08C212.367 6.808 212.895 6.672 213.471 6.672C213.967 6.672 214.423 6.752 214.839 6.912C215.255 7.072 215.615 7.304 215.919 7.608C216.223 7.896 216.455 8.248 216.615 8.664C216.791 9.08 216.879 9.536 216.879 10.032C216.879 10.448 216.735 10.816 216.447 11.136C216.159 11.44 215.807 11.592 215.391 11.592C214.959 11.592 214.599 11.432 214.311 11.112C214.023 10.776 213.879 10.392 213.879 9.96C213.879 9.176 214.231 8.648 214.935 8.376C214.919 7.928 214.431 7.704 213.471 7.704C213.231 7.704 213.015 7.76 212.823 7.872C212.631 7.984 212.463 8.136 212.319 8.328C212.191 8.504 212.087 8.712 212.007 8.952C211.927 9.176 211.887 9.408 211.887 9.648V15.192C211.887 15.72 212.039 16.176 212.343 16.56C212.663 16.944 213.039 17.136 213.471 17.136C213.743 17.136 214.031 17.096 214.335 17.016C214.655 16.92 214.951 16.792 215.223 16.632C215.495 16.472 215.727 16.288 215.919 16.08C216.127 15.856 216.263 15.616 216.327 15.36H216.951ZM225.624 15.36C225.048 17.232 223.888 18.168 222.144 18.168C221.552 18.168 221.008 18.032 220.512 17.76C220.032 17.472 219.616 17.096 219.264 16.632C218.928 16.152 218.664 15.6 218.472 14.976C218.28 14.352 218.184 13.688 218.184 12.984V11.592C218.184 10.952 218.28 10.336 218.472 9.744C218.68 9.136 218.96 8.608 219.312 8.16C219.664 7.712 220.08 7.352 220.56 7.08C221.056 6.808 221.584 6.672 222.144 6.672C223.2 6.672 224.032 6.968 224.64 7.56C225.248 8.136 225.552 8.96 225.552 10.032C225.552 10.24 225.52 10.424 225.456 10.584C225.408 10.744 225.312 10.896 225.168 11.04C225.04 11.184 224.856 11.328 224.616 11.472C224.376 11.616 224.072 11.768 223.704 11.928L220.56 13.32V15.192C220.56 15.72 220.712 16.176 221.016 16.56C221.336 16.944 221.712 17.136 222.144 17.136C222.432 17.136 222.728 17.096 223.032 17.016C223.336 16.92 223.616 16.792 223.872 16.632C224.144 16.472 224.376 16.288 224.568 16.08C224.776 15.856 224.92 15.616 225 15.36H225.624ZM224.112 9.792C224.112 8.4 223.456 7.704 222.144 7.704C221.904 7.704 221.688 7.76 221.496 7.872C221.304 7.984 221.136 8.136 220.992 8.328C220.864 8.504 220.76 8.712 220.68 8.952C220.6 9.176 220.56 9.408 220.56 9.648V12.072L223.392 10.92C223.872 10.728 224.112 10.352 224.112 9.792ZM230.305 6.672C230.705 6.672 231.081 6.744 231.433 6.888C231.801 7.032 232.105 7.32 232.345 7.752V6.72H233.281V9.912H232.345C232.345 9.32 232.177 8.808 231.841 8.376C231.505 7.928 231.073 7.704 230.545 7.704C229.713 7.704 229.297 8.128 229.297 8.976C229.297 9.232 229.337 9.456 229.417 9.648C229.513 9.84 229.657 10.024 229.849 10.2C230.057 10.36 230.321 10.528 230.641 10.704C230.961 10.88 231.353 11.072 231.817 11.28C232.585 11.648 233.113 12.112 233.401 12.672C233.705 13.232 233.857 13.944 233.857 14.808C233.857 15.304 233.753 15.76 233.545 16.176C233.353 16.592 233.081 16.952 232.729 17.256C232.377 17.56 231.969 17.8 231.505 17.976C231.057 18.152 230.569 18.24 230.041 18.24C229.625 18.24 229.225 18.168 228.841 18.024C228.457 17.896 228.113 17.704 227.809 17.448C227.505 17.176 227.257 16.848 227.065 16.464C226.873 16.08 226.761 15.632 226.729 15.12L227.497 14.88C227.593 15.6 227.873 16.168 228.337 16.584C228.817 17 229.361 17.208 229.969 17.208C230.433 17.208 230.833 17.032 231.169 16.68C231.505 16.328 231.673 15.904 231.673 15.408C231.673 14.832 231.561 14.4 231.337 14.112C231.129 13.824 230.849 13.584 230.497 13.392C230.161 13.2 229.777 13.008 229.345 12.816C228.913 12.608 228.489 12.304 228.073 11.904C227.737 11.584 227.505 11.208 227.377 10.776C227.249 10.328 227.185 9.872 227.185 9.408C227.185 9.024 227.265 8.664 227.425 8.328C227.585 7.992 227.801 7.704 228.073 7.464C228.345 7.208 228.673 7.016 229.057 6.888C229.441 6.744 229.857 6.672 230.305 6.672Z" fill="#DD8DA1"/>
<path d="M5.71191 29.458L5.43164 30.5312C4.99414 30.39 4.54069 30.3193 4.07129 30.3193C3.3877 30.3193 2.83854 30.5859 2.42383 31.1191C2.01367 31.6478 1.80859 32.2721 1.80859 32.9922C1.80859 33.653 1.95215 34.1885 2.23926 34.5986C2.53092 35.0042 2.95931 35.207 3.52441 35.207C4.12142 35.207 4.75033 34.9974 5.41113 34.5781L5.24023 35.5898C4.77083 35.9863 4.1237 36.1846 3.29883 36.1846C2.42383 36.1846 1.75391 35.8747 1.28906 35.2549C0.874349 34.7126 0.666992 34.0107 0.666992 33.1494C0.666992 32.1012 1.00651 31.2057 1.68555 30.4629C2.36914 29.7201 3.29655 29.3486 4.46777 29.3486C4.98275 29.3486 5.39746 29.3851 5.71191 29.458ZM12.6504 29.3691C12.3314 31.903 12.1719 33.5846 12.1719 34.4141C12.1719 34.8926 12.2083 35.4076 12.2812 35.959L11.126 36.1299C11.0986 35.7288 11.085 35.1979 11.085 34.5371H11.0303C10.4378 35.6445 9.62207 36.1982 8.58301 36.1982C7.39355 36.1982 6.79883 35.5215 6.79883 34.168C6.79883 33.8079 6.84896 33.0765 6.94922 31.9736C7.05404 30.8708 7.10645 30.0482 7.10645 29.5059L8.28906 29.3691C8.28906 29.5651 8.21842 30.2191 8.07715 31.3311C7.93587 32.4385 7.86523 33.2725 7.86523 33.833C7.86523 34.3662 7.96094 34.7376 8.15234 34.9473C8.34831 35.1523 8.65365 35.2549 9.06836 35.2549C9.5651 35.2549 10.0413 34.929 10.4971 34.2773C10.9574 33.6257 11.2262 32.9102 11.3037 32.1309C11.4131 31.0189 11.4678 30.1439 11.4678 29.5059L12.6504 29.3691ZM16.1572 26.3135C16.1572 26.5824 16.0889 27.193 15.9521 28.1455C15.82 29.0934 15.7083 30.0117 15.6172 30.9004C15.3939 33.0286 15.2594 34.7171 15.2139 35.9658L13.9697 36.1025C13.9697 35.9111 14.0449 35.3027 14.1953 34.2773C14.3503 33.2474 14.4915 32.1217 14.6191 30.9004C14.8151 29.0365 14.9131 27.5303 14.9131 26.3818L16.1572 26.3135ZM21.1611 34.749L20.9902 35.6582C20.5117 35.9818 20.0195 36.1436 19.5137 36.1436C18.8893 36.1436 18.4541 35.9909 18.208 35.6855C17.9619 35.3757 17.8389 34.8835 17.8389 34.209C17.8389 33.6439 17.9688 32.4248 18.2285 30.5518C17.987 30.5518 17.6156 30.5654 17.1143 30.5928L17.2578 29.6016C17.6862 29.6289 18.0599 29.6426 18.3789 29.6426C18.4062 29.4557 18.5042 28.8063 18.6729 27.6943L19.6982 27.585C19.6162 28.0498 19.5091 28.7357 19.377 29.6426C19.8008 29.6426 20.4069 29.6198 21.1953 29.5742L21.0586 30.5928C20.3066 30.5654 19.6937 30.5518 19.2197 30.5518C18.9827 32.083 18.8643 33.179 18.8643 33.8398C18.8643 34.3594 18.9303 34.7148 19.0625 34.9062C19.1947 35.0977 19.418 35.1934 19.7324 35.1934C20.1882 35.1934 20.6644 35.0452 21.1611 34.749ZM24.1895 29.376C24.194 29.7041 24.153 30.1576 24.0664 30.7363C23.9844 31.3105 23.8978 32.0238 23.8066 32.876C23.7383 33.5231 23.6631 34.5645 23.5811 36L22.3916 36.0684C22.4964 35.3483 22.6377 34.2842 22.8154 32.876C22.9111 31.9645 22.959 31.1237 22.959 30.3535C22.959 30.0299 22.9499 29.7656 22.9316 29.5605L24.1895 29.376ZM24.6816 27.3594C24.6816 27.6237 24.5951 27.8493 24.4219 28.0361C24.2487 28.223 24.0299 28.3164 23.7656 28.3164C23.3509 28.3164 23.1436 28.0954 23.1436 27.6533C23.1436 27.389 23.2301 27.1657 23.4033 26.9834C23.5765 26.8011 23.7952 26.71 24.0596 26.71C24.4743 26.71 24.6816 26.9264 24.6816 27.3594ZM31.333 29.4307C31.333 29.8818 30.7861 31.0326 29.6924 32.8828C28.6032 34.7331 28.0472 35.7721 28.0244 36H27.1494C27.1494 35.3757 26.876 34.25 26.3291 32.623C25.7822 30.9915 25.5088 29.9525 25.5088 29.5059L26.7666 29.4307C26.7666 29.859 26.958 30.7568 27.3408 32.124C27.7236 33.4867 27.915 34.3503 27.915 34.7148H27.9697C27.988 34.5599 28.3434 33.7738 29.0361 32.3564C29.7288 30.9391 30.0752 29.9889 30.0752 29.5059L31.333 29.4307ZM37.5947 29.1982C37.18 31.5133 36.9727 33.1973 36.9727 34.25C36.9727 34.7285 37.0137 35.2891 37.0957 35.9316L35.9404 36.1025C35.9131 35.6969 35.8994 35.1888 35.8994 34.5781H35.8379C35.2591 35.6309 34.4958 36.1572 33.5479 36.1572C32.9964 36.1572 32.5749 35.9385 32.2832 35.501C31.9961 35.0589 31.8525 34.4847 31.8525 33.7783C31.8525 32.639 32.2513 31.6478 33.0488 30.8047C33.8464 29.9616 34.9925 29.5309 36.4873 29.5127L36.7881 29.3008L37.5947 29.1982ZM36.3506 30.2852C35.193 30.3079 34.3477 30.6247 33.8145 31.2354C33.2858 31.8415 33.0215 32.6458 33.0215 33.6484C33.0215 34.6875 33.3678 35.207 34.0605 35.207C34.5436 35.207 34.988 34.8607 35.3936 34.168C35.7992 33.4707 36.0498 32.8418 36.1455 32.2812C36.2458 31.7161 36.3141 31.0508 36.3506 30.2852ZM42.8174 34.749L42.6465 35.6582C42.168 35.9818 41.6758 36.1436 41.1699 36.1436C40.5456 36.1436 40.1104 35.9909 39.8643 35.6855C39.6182 35.3757 39.4951 34.8835 39.4951 34.209C39.4951 33.6439 39.625 32.4248 39.8848 30.5518C39.6432 30.5518 39.2718 30.5654 38.7705 30.5928L38.9141 29.6016C39.3424 29.6289 39.7161 29.6426 40.0352 29.6426C40.0625 29.4557 40.1605 28.8063 40.3291 27.6943L41.3545 27.585C41.2725 28.0498 41.1654 28.7357 41.0332 29.6426C41.457 29.6426 42.0632 29.6198 42.8516 29.5742L42.7148 30.5928C41.9629 30.5654 41.3499 30.5518 40.876 30.5518C40.639 32.083 40.5205 33.179 40.5205 33.8398C40.5205 34.3594 40.5866 34.7148 40.7188 34.9062C40.8509 35.0977 41.0742 35.1934 41.3887 35.1934C41.8444 35.1934 42.3206 35.0452 42.8174 34.749ZM45.8457 29.376C45.8503 29.7041 45.8092 30.1576 45.7227 30.7363C45.6406 31.3105 45.554 32.0238 45.4629 32.876C45.3945 33.5231 45.3193 34.5645 45.2373 36L44.0479 36.0684C44.1527 35.3483 44.2939 34.2842 44.4717 32.876C44.5674 31.9645 44.6152 31.1237 44.6152 30.3535C44.6152 30.0299 44.6061 29.7656 44.5879 29.5605L45.8457 29.376ZM46.3379 27.3594C46.3379 27.6237 46.2513 27.8493 46.0781 28.0361C45.9049 28.223 45.6862 28.3164 45.4219 28.3164C45.0072 28.3164 44.7998 28.0954 44.7998 27.6533C44.7998 27.389 44.8864 27.1657 45.0596 26.9834C45.2327 26.8011 45.4515 26.71 45.7158 26.71C46.1305 26.71 46.3379 26.9264 46.3379 27.3594ZM53.085 31.3242C53.085 31.6842 53.0326 32.418 52.9277 33.5254C52.8275 34.6328 52.7773 35.4577 52.7773 36L51.6221 36.0684C51.6221 35.8678 51.6882 35.223 51.8203 34.1338C51.9525 33.0446 52.0186 32.2197 52.0186 31.6592C52.0186 31.126 51.9206 30.7568 51.7246 30.5518C51.5332 30.3421 51.2301 30.2373 50.8154 30.2373C50.3187 30.2373 49.8402 30.5632 49.3799 31.2148C48.9242 31.862 48.6576 32.5775 48.5801 33.3613C48.4798 34.3822 48.4023 35.2617 48.3477 36L47.2334 36.0684C47.5524 33.7077 47.7119 32.1126 47.7119 31.2832C47.7119 30.8047 47.6755 30.2214 47.6025 29.5332L48.7578 29.3623C48.7852 29.7633 48.7988 30.2943 48.7988 30.9551H48.8535C49.446 29.8477 50.2617 29.2939 51.3008 29.2939C52.4902 29.2939 53.085 29.9707 53.085 31.3242ZM61.1855 28.6445L60.9805 29.5879C60.2331 29.5879 59.7773 29.7292 59.6133 30.0117L59.6064 30.0664C59.807 30.4036 59.9072 30.7637 59.9072 31.1465C59.9072 31.9531 59.627 32.5866 59.0664 33.0469C58.5104 33.5072 57.8154 33.7373 56.9814 33.7373C56.5257 33.7373 56.1816 33.6917 55.9492 33.6006C55.6849 33.7874 55.5527 34.0495 55.5527 34.3867C55.5527 34.6237 55.6576 34.7809 55.8672 34.8584C56.0814 34.9313 56.8994 34.9678 58.3213 34.9678C59.5563 34.9678 60.1738 35.4463 60.1738 36.4033C60.1738 37.3467 59.7887 38.1032 59.0186 38.6729C58.2484 39.2471 57.362 39.5342 56.3594 39.5342C55.4023 39.5342 54.721 39.3564 54.3154 39.001C53.9144 38.6501 53.7139 38.1624 53.7139 37.5381C53.7139 36.6859 54.1628 36.0706 55.0605 35.6924L55.0674 35.6309C54.7894 35.4805 54.6504 35.2048 54.6504 34.8037C54.6504 34.3298 54.9079 33.8809 55.4229 33.457L55.4297 33.4023C55.252 33.3066 55.0742 33.1107 54.8965 32.8145C54.7188 32.5182 54.6299 32.1855 54.6299 31.8164C54.6299 31.0098 54.9033 30.3877 55.4502 29.9502C56.0016 29.5127 56.7012 29.2939 57.5488 29.2939C58.2552 29.2939 58.818 29.4443 59.2373 29.7451H59.2988C59.4264 29.2985 59.5768 28.9863 59.75 28.8086C59.9232 28.6309 60.1579 28.542 60.4541 28.542C60.7731 28.542 61.0169 28.5762 61.1855 28.6445ZM59.1348 36.8477C59.1348 36.4831 59.0026 36.2484 58.7383 36.1436C58.4785 36.0387 57.8861 35.9863 56.9609 35.9863C56.528 35.9863 56.0814 35.959 55.6211 35.9043C55.0013 36.2096 54.6914 36.679 54.6914 37.3125C54.6914 38.2741 55.2861 38.7549 56.4756 38.7549C57.2184 38.7549 57.8473 38.5749 58.3623 38.2148C58.8773 37.8594 59.1348 37.4036 59.1348 36.8477ZM58.8271 31.3447C58.8271 30.9118 58.6836 30.5768 58.3965 30.3398C58.1367 30.1211 57.7972 30.0117 57.3779 30.0117C56.8766 30.0117 56.4665 30.1712 56.1475 30.4902C55.8285 30.8047 55.6689 31.2126 55.6689 31.7139C55.6689 32.1331 55.7988 32.4567 56.0586 32.6846C56.3229 32.9079 56.6807 33.0195 57.1318 33.0195C57.6286 33.0195 58.0342 32.8646 58.3486 32.5547C58.6676 32.2448 58.8271 31.8415 58.8271 31.3447ZM70.0928 29.4307C70.0928 30.014 69.6188 31.1624 68.6709 32.876C67.7275 34.5895 67.1807 35.6582 67.0303 36.082C66.6201 37.2305 66.2396 37.987 65.8887 38.3516C65.4603 38.7982 64.7949 39.0215 63.8926 39.0215L63.9336 38.0645C64.5169 38.0645 65.0387 37.8411 65.499 37.3945C65.9639 36.9525 66.1963 36.4489 66.1963 35.8838C66.1963 35.1911 65.9115 34.0586 65.3418 32.4863C64.7721 30.9141 64.4873 29.9206 64.4873 29.5059L65.8271 29.4307C65.8271 29.9912 66.0049 30.9391 66.3604 32.2744C66.7204 33.6051 66.9004 34.4574 66.9004 34.8311H66.9756C66.9984 34.5941 67.3265 33.7852 67.96 32.4043C68.5934 31.0234 68.9102 30.0573 68.9102 29.5059L70.0928 29.4307ZM77.0723 32.1855C77.0723 33.2839 76.7396 34.2386 76.0742 35.0498C75.4134 35.861 74.5407 36.2666 73.4561 36.2666C72.7406 36.2666 72.123 35.9795 71.6035 35.4053C71.0885 34.8265 70.8311 34.0791 70.8311 33.1631C70.8311 32.083 71.1615 31.1533 71.8223 30.374C72.4831 29.5947 73.3626 29.2051 74.4609 29.2051C75.1855 29.2051 75.8008 29.474 76.3066 30.0117C76.8171 30.5495 77.0723 31.2741 77.0723 32.1855ZM75.9102 32.3838C75.9102 31.7458 75.7643 31.2012 75.4727 30.75C75.1855 30.2943 74.7686 30.0664 74.2217 30.0664C73.5426 30.0664 73.0003 30.3854 72.5947 31.0234C72.1891 31.6569 71.9863 32.3451 71.9863 33.0879C71.9863 33.7259 72.1322 34.2728 72.4238 34.7285C72.7201 35.1797 73.1439 35.4053 73.6953 35.4053C74.3652 35.4053 74.9007 35.0885 75.3018 34.4551C75.7074 33.8171 75.9102 33.1266 75.9102 32.3838ZM84.332 29.3691C84.013 31.903 83.8535 33.5846 83.8535 34.4141C83.8535 34.8926 83.89 35.4076 83.9629 35.959L82.8076 36.1299C82.7803 35.7288 82.7666 35.1979 82.7666 34.5371H82.7119C82.1195 35.6445 81.3037 36.1982 80.2646 36.1982C79.0752 36.1982 78.4805 35.5215 78.4805 34.168C78.4805 33.8079 78.5306 33.0765 78.6309 31.9736C78.7357 30.8708 78.7881 30.0482 78.7881 29.5059L79.9707 29.3691C79.9707 29.5651 79.9001 30.2191 79.7588 31.3311C79.6175 32.4385 79.5469 33.2725 79.5469 33.833C79.5469 34.3662 79.6426 34.7376 79.834 34.9473C80.0299 35.1523 80.3353 35.2549 80.75 35.2549C81.2467 35.2549 81.723 34.929 82.1787 34.2773C82.639 33.6257 82.9079 32.9102 82.9854 32.1309C83.0947 31.0189 83.1494 30.1439 83.1494 29.5059L84.332 29.3691ZM90.1973 29.4307L89.7871 30.5176C89.4681 30.4264 89.1628 30.3809 88.8711 30.3809C87.8275 30.3809 87.2464 30.9186 87.1279 31.9941C86.9593 33.5527 86.8385 34.888 86.7656 36L85.6514 36.0684C85.9704 33.7077 86.1299 32.1126 86.1299 31.2832C86.1299 30.8047 86.0934 30.2214 86.0205 29.5332L87.1758 29.3623C87.2122 29.736 87.2305 30.071 87.2305 30.3672H87.2852C87.832 29.6426 88.4176 29.2803 89.042 29.2803C89.3701 29.2803 89.7552 29.3304 90.1973 29.4307ZM98.0176 29.458L97.71 30.4492C97.2542 30.2806 96.7301 30.1963 96.1377 30.1963C95.2536 30.1963 94.8115 30.4925 94.8115 31.085C94.8115 31.2992 94.8958 31.4792 95.0645 31.625C95.2331 31.7708 95.5544 31.944 96.0283 32.1445C97.1859 32.6413 97.7646 33.2725 97.7646 34.0381C97.7646 35.4417 96.8805 36.1436 95.1123 36.1436C94.3968 36.1436 93.736 36.082 93.1299 35.959L93.4443 34.9541C93.9821 35.1546 94.57 35.2549 95.208 35.2549C96.2334 35.2549 96.7461 34.9609 96.7461 34.373C96.7461 33.9629 96.3359 33.5778 95.5156 33.2178C94.349 32.7074 93.7656 32.0762 93.7656 31.3242C93.7656 30.6725 94.0049 30.1735 94.4834 29.8271C94.9619 29.4808 95.5475 29.3076 96.2402 29.3076C96.9876 29.3076 97.5801 29.3577 98.0176 29.458ZM103.11 34.749L102.939 35.6582C102.461 35.9818 101.969 36.1436 101.463 36.1436C100.839 36.1436 100.403 35.9909 100.157 35.6855C99.9111 35.3757 99.7881 34.8835 99.7881 34.209C99.7881 33.6439 99.918 32.4248 100.178 30.5518C99.9362 30.5518 99.5648 30.5654 99.0635 30.5928L99.207 29.6016C99.6354 29.6289 100.009 29.6426 100.328 29.6426C100.355 29.4557 100.453 28.8063 100.622 27.6943L101.647 27.585C101.565 28.0498 101.458 28.7357 101.326 29.6426C101.75 29.6426 102.356 29.6198 103.145 29.5742L103.008 30.5928C102.256 30.5654 101.643 30.5518 101.169 30.5518C100.932 32.083 100.813 33.179 100.813 33.8398C100.813 34.3594 100.88 34.7148 101.012 34.9062C101.144 35.0977 101.367 35.1934 101.682 35.1934C102.137 35.1934 102.614 35.0452 103.11 34.749ZM110.514 32.1855C110.514 33.2839 110.181 34.2386 109.516 35.0498C108.855 35.861 107.982 36.2666 106.897 36.2666C106.182 36.2666 105.564 35.9795 105.045 35.4053C104.53 34.8265 104.272 34.0791 104.272 33.1631C104.272 32.083 104.603 31.1533 105.264 30.374C105.924 29.5947 106.804 29.2051 107.902 29.2051C108.627 29.2051 109.242 29.474 109.748 30.0117C110.258 30.5495 110.514 31.2741 110.514 32.1855ZM109.352 32.3838C109.352 31.7458 109.206 31.2012 108.914 30.75C108.627 30.2943 108.21 30.0664 107.663 30.0664C106.984 30.0664 106.442 30.3854 106.036 31.0234C105.631 31.6569 105.428 32.3451 105.428 33.0879C105.428 33.7259 105.574 34.2728 105.865 34.7285C106.161 35.1797 106.585 35.4053 107.137 35.4053C107.807 35.4053 108.342 35.0885 108.743 34.4551C109.149 33.8171 109.352 33.1266 109.352 32.3838ZM116.311 29.4307L115.9 30.5176C115.581 30.4264 115.276 30.3809 114.984 30.3809C113.941 30.3809 113.36 30.9186 113.241 31.9941C113.073 33.5527 112.952 34.888 112.879 36L111.765 36.0684C112.084 33.7077 112.243 32.1126 112.243 31.2832C112.243 30.8047 112.207 30.2214 112.134 29.5332L113.289 29.3623C113.326 29.736 113.344 30.071 113.344 30.3672H113.398C113.945 29.6426 114.531 29.2803 115.155 29.2803C115.483 29.2803 115.868 29.3304 116.311 29.4307ZM118.662 29.376C118.667 29.7041 118.626 30.1576 118.539 30.7363C118.457 31.3105 118.37 32.0238 118.279 32.876C118.211 33.5231 118.136 34.5645 118.054 36L116.864 36.0684C116.969 35.3483 117.11 34.2842 117.288 32.876C117.384 31.9645 117.432 31.1237 117.432 30.3535C117.432 30.0299 117.423 29.7656 117.404 29.5605L118.662 29.376ZM119.154 27.3594C119.154 27.6237 119.068 27.8493 118.895 28.0361C118.721 28.223 118.503 28.3164 118.238 28.3164C117.824 28.3164 117.616 28.0954 117.616 27.6533C117.616 27.389 117.703 27.1657 117.876 26.9834C118.049 26.8011 118.268 26.71 118.532 26.71C118.947 26.71 119.154 26.9264 119.154 27.3594ZM125.683 30.7979C125.683 31.4131 125.398 31.8802 124.828 32.1992C124.104 32.6094 122.868 32.8304 121.123 32.8623C121.123 33.6826 121.264 34.2796 121.547 34.6533C121.834 35.0225 122.315 35.207 122.989 35.207C123.65 35.207 124.37 34.9746 125.149 34.5098L124.979 35.5215C124.363 35.9635 123.602 36.1846 122.695 36.1846C121.766 36.1846 121.08 35.9066 120.638 35.3506C120.2 34.79 119.981 34.0814 119.981 33.2246C119.981 31.9622 120.348 30.9779 121.082 30.2715C121.82 29.5605 122.67 29.2051 123.632 29.2051C124.215 29.2051 124.703 29.3464 125.095 29.6289C125.487 29.9115 125.683 30.3011 125.683 30.7979ZM124.596 30.8252C124.596 30.5837 124.484 30.3991 124.261 30.2715C124.037 30.1393 123.75 30.0732 123.399 30.0732C122.903 30.0732 122.44 30.2373 122.012 30.5654C121.588 30.8936 121.312 31.3971 121.185 32.0762C122.584 32.0488 123.543 31.9007 124.062 31.6318C124.418 31.4495 124.596 31.1807 124.596 30.8252ZM131.09 29.458L130.782 30.4492C130.326 30.2806 129.802 30.1963 129.21 30.1963C128.326 30.1963 127.884 30.4925 127.884 31.085C127.884 31.2992 127.968 31.4792 128.137 31.625C128.305 31.7708 128.627 31.944 129.101 32.1445C130.258 32.6413 130.837 33.2725 130.837 34.0381C130.837 35.4417 129.953 36.1436 128.185 36.1436C127.469 36.1436 126.808 36.082 126.202 35.959L126.517 34.9541C127.054 35.1546 127.642 35.2549 128.28 35.2549C129.306 35.2549 129.818 34.9609 129.818 34.373C129.818 33.9629 129.408 33.5778 128.588 33.2178C127.421 32.7074 126.838 32.0762 126.838 31.3242C126.838 30.6725 127.077 30.1735 127.556 29.8271C128.034 29.4808 128.62 29.3076 129.312 29.3076C130.06 29.3076 130.652 29.3577 131.09 29.458ZM133.756 35.0225C133.756 36.1253 133.018 37.2897 131.541 38.5156L131.227 38.1191C131.65 37.668 131.942 37.2533 132.102 36.875C132.202 36.638 132.272 36.3145 132.313 35.9043C132.09 35.7721 131.979 35.5397 131.979 35.207C131.979 34.9062 132.083 34.651 132.293 34.4414C132.507 34.2272 132.765 34.1201 133.065 34.1201C133.293 34.1201 133.469 34.2181 133.592 34.4141C133.701 34.5781 133.756 34.7809 133.756 35.0225ZM144.789 32.1855C144.789 33.2839 144.456 34.2386 143.791 35.0498C143.13 35.861 142.257 36.2666 141.173 36.2666C140.457 36.2666 139.84 35.9795 139.32 35.4053C138.805 34.8265 138.548 34.0791 138.548 33.1631C138.548 32.083 138.878 31.1533 139.539 30.374C140.2 29.5947 141.079 29.2051 142.178 29.2051C142.902 29.2051 143.518 29.474 144.023 30.0117C144.534 30.5495 144.789 31.2741 144.789 32.1855ZM143.627 32.3838C143.627 31.7458 143.481 31.2012 143.189 30.75C142.902 30.2943 142.485 30.0664 141.938 30.0664C141.259 30.0664 140.717 30.3854 140.312 31.0234C139.906 31.6569 139.703 32.3451 139.703 33.0879C139.703 33.7259 139.849 34.2728 140.141 34.7285C140.437 35.1797 140.861 35.4053 141.412 35.4053C142.082 35.4053 142.618 35.0885 143.019 34.4551C143.424 33.8171 143.627 33.1266 143.627 32.3838ZM151.892 31.3242C151.892 31.6842 151.839 32.418 151.734 33.5254C151.634 34.6328 151.584 35.4577 151.584 36L150.429 36.0684C150.429 35.8678 150.495 35.223 150.627 34.1338C150.759 33.0446 150.825 32.2197 150.825 31.6592C150.825 31.126 150.727 30.7568 150.531 30.5518C150.34 30.3421 150.037 30.2373 149.622 30.2373C149.125 30.2373 148.647 30.5632 148.187 31.2148C147.731 31.862 147.464 32.5775 147.387 33.3613C147.286 34.3822 147.209 35.2617 147.154 36L146.04 36.0684C146.359 33.7077 146.519 32.1126 146.519 31.2832C146.519 30.8047 146.482 30.2214 146.409 29.5332L147.564 29.3623C147.592 29.7633 147.605 30.2943 147.605 30.9551H147.66C148.253 29.8477 149.068 29.2939 150.107 29.2939C151.297 29.2939 151.892 29.9707 151.892 31.3242ZM159.001 30.7979C159.001 31.4131 158.716 31.8802 158.146 32.1992C157.422 32.6094 156.187 32.8304 154.441 32.8623C154.441 33.6826 154.583 34.2796 154.865 34.6533C155.152 35.0225 155.633 35.207 156.308 35.207C156.968 35.207 157.688 34.9746 158.468 34.5098L158.297 35.5215C157.682 35.9635 156.921 36.1846 156.014 36.1846C155.084 36.1846 154.398 35.9066 153.956 35.3506C153.519 34.79 153.3 34.0814 153.3 33.2246C153.3 31.9622 153.667 30.9779 154.4 30.2715C155.139 29.5605 155.989 29.2051 156.95 29.2051C157.534 29.2051 158.021 29.3464 158.413 29.6289C158.805 29.9115 159.001 30.3011 159.001 30.7979ZM157.914 30.8252C157.914 30.5837 157.802 30.3991 157.579 30.2715C157.356 30.1393 157.069 30.0732 156.718 30.0732C156.221 30.0732 155.758 30.2373 155.33 30.5654C154.906 30.8936 154.631 31.3971 154.503 32.0762C155.902 32.0488 156.861 31.9007 157.381 31.6318C157.736 31.4495 157.914 31.1807 157.914 30.8252ZM168.544 30.7979C168.544 31.4131 168.259 31.8802 167.689 32.1992C166.965 32.6094 165.73 32.8304 163.984 32.8623C163.984 33.6826 164.126 34.2796 164.408 34.6533C164.695 35.0225 165.176 35.207 165.851 35.207C166.511 35.207 167.231 34.9746 168.011 34.5098L167.84 35.5215C167.225 35.9635 166.464 36.1846 165.557 36.1846C164.627 36.1846 163.941 35.9066 163.499 35.3506C163.062 34.79 162.843 34.0814 162.843 33.2246C162.843 31.9622 163.21 30.9779 163.943 30.2715C164.682 29.5605 165.532 29.2051 166.493 29.2051C167.076 29.2051 167.564 29.3464 167.956 29.6289C168.348 29.9115 168.544 30.3011 168.544 30.7979ZM167.457 30.8252C167.457 30.5837 167.345 30.3991 167.122 30.2715C166.899 30.1393 166.612 30.0732 166.261 30.0732C165.764 30.0732 165.301 30.2373 164.873 30.5654C164.449 30.8936 164.174 31.3971 164.046 32.0762C165.445 32.0488 166.404 31.9007 166.924 31.6318C167.279 31.4495 167.457 31.1807 167.457 30.8252ZM176.146 26.3408C176.146 26.4593 176.068 26.9515 175.913 27.8174C175.758 28.6833 175.621 29.7087 175.503 30.8936C175.384 32.0739 175.325 33.1859 175.325 34.2295C175.325 34.8447 175.343 35.4349 175.38 36L174.313 36.0889C174.241 35.7106 174.204 35.1797 174.204 34.4961H174.149C173.548 35.6035 172.723 36.1572 171.675 36.1572C171.028 36.1572 170.504 35.9202 170.103 35.4463C169.701 34.9678 169.501 34.3252 169.501 33.5186C169.501 32.279 169.815 31.2604 170.444 30.4629C171.073 29.6654 171.921 29.2666 172.987 29.2666C173.671 29.2666 174.202 29.417 174.58 29.7178H174.635C174.73 28.7744 174.812 27.6624 174.881 26.3818L176.146 26.3408ZM174.56 30.5381C174.163 30.2738 173.735 30.1416 173.274 30.1416C172.422 30.1416 171.775 30.4082 171.333 30.9414C170.891 31.4701 170.67 32.1924 170.67 33.1084C170.67 34.512 171.164 35.2139 172.153 35.2139C172.65 35.2139 173.133 34.9017 173.603 34.2773C174.076 33.653 174.35 32.9238 174.423 32.0898L174.56 30.5381ZM178.9 29.376C178.905 29.7041 178.864 30.1576 178.777 30.7363C178.695 31.3105 178.609 32.0238 178.518 32.876C178.449 33.5231 178.374 34.5645 178.292 36L177.103 36.0684C177.207 35.3483 177.349 34.2842 177.526 32.876C177.622 31.9645 177.67 31.1237 177.67 30.3535C177.67 30.0299 177.661 29.7656 177.643 29.5605L178.9 29.376ZM179.393 27.3594C179.393 27.6237 179.306 27.8493 179.133 28.0361C178.96 28.223 178.741 28.3164 178.477 28.3164C178.062 28.3164 177.854 28.0954 177.854 27.6533C177.854 27.389 177.941 27.1657 178.114 26.9834C178.287 26.8011 178.506 26.71 178.771 26.71C179.185 26.71 179.393 26.9264 179.393 27.3594ZM184.267 34.749L184.096 35.6582C183.617 35.9818 183.125 36.1436 182.619 36.1436C181.995 36.1436 181.56 35.9909 181.313 35.6855C181.067 35.3757 180.944 34.8835 180.944 34.209C180.944 33.6439 181.074 32.4248 181.334 30.5518C181.092 30.5518 180.721 30.5654 180.22 30.5928L180.363 29.6016C180.792 29.6289 181.165 29.6426 181.484 29.6426C181.512 29.4557 181.61 28.8063 181.778 27.6943L182.804 27.585C182.722 28.0498 182.615 28.7357 182.482 29.6426C182.906 29.6426 183.512 29.6198 184.301 29.5742L184.164 30.5928C183.412 30.5654 182.799 30.5518 182.325 30.5518C182.088 32.083 181.97 33.179 181.97 33.8398C181.97 34.3594 182.036 34.7148 182.168 34.9062C182.3 35.0977 182.523 35.1934 182.838 35.1934C183.294 35.1934 183.77 35.0452 184.267 34.749ZM193.837 29.1982C193.422 31.5133 193.215 33.1973 193.215 34.25C193.215 34.7285 193.256 35.2891 193.338 35.9316L192.183 36.1025C192.155 35.6969 192.142 35.1888 192.142 34.5781H192.08C191.501 35.6309 190.738 36.1572 189.79 36.1572C189.239 36.1572 188.817 35.9385 188.525 35.501C188.238 35.0589 188.095 34.4847 188.095 33.7783C188.095 32.639 188.493 31.6478 189.291 30.8047C190.089 29.9616 191.235 29.5309 192.729 29.5127L193.03 29.3008L193.837 29.1982ZM192.593 30.2852C191.435 30.3079 190.59 30.6247 190.057 31.2354C189.528 31.8415 189.264 32.6458 189.264 33.6484C189.264 34.6875 189.61 35.207 190.303 35.207C190.786 35.207 191.23 34.8607 191.636 34.168C192.041 33.4707 192.292 32.8418 192.388 32.2812C192.488 31.7161 192.556 31.0508 192.593 30.2852ZM199.06 34.749L198.889 35.6582C198.41 35.9818 197.918 36.1436 197.412 36.1436C196.788 36.1436 196.353 35.9909 196.106 35.6855C195.86 35.3757 195.737 34.8835 195.737 34.209C195.737 33.6439 195.867 32.4248 196.127 30.5518C195.885 30.5518 195.514 30.5654 195.013 30.5928L195.156 29.6016C195.585 29.6289 195.958 29.6426 196.277 29.6426C196.305 29.4557 196.403 28.8063 196.571 27.6943L197.597 27.585C197.515 28.0498 197.408 28.7357 197.275 29.6426C197.699 29.6426 198.305 29.6198 199.094 29.5742L198.957 30.5928C198.205 30.5654 197.592 30.5518 197.118 30.5518C196.881 32.083 196.763 33.179 196.763 33.8398C196.763 34.3594 196.829 34.7148 196.961 34.9062C197.093 35.0977 197.316 35.1934 197.631 35.1934C198.087 35.1934 198.563 35.0452 199.06 34.749ZM208.63 29.1982C208.215 31.5133 208.008 33.1973 208.008 34.25C208.008 34.7285 208.049 35.2891 208.131 35.9316L206.976 36.1025C206.948 35.6969 206.935 35.1888 206.935 34.5781H206.873C206.294 35.6309 205.531 36.1572 204.583 36.1572C204.032 36.1572 203.61 35.9385 203.318 35.501C203.031 35.0589 202.888 34.4847 202.888 33.7783C202.888 32.639 203.286 31.6478 204.084 30.8047C204.882 29.9616 206.028 29.5309 207.522 29.5127L207.823 29.3008L208.63 29.1982ZM207.386 30.2852C206.228 30.3079 205.383 30.6247 204.85 31.2354C204.321 31.8415 204.057 32.6458 204.057 33.6484C204.057 34.6875 204.403 35.207 205.096 35.207C205.579 35.207 206.023 34.8607 206.429 34.168C206.834 33.4707 207.085 32.8418 207.181 32.2812C207.281 31.7161 207.349 31.0508 207.386 30.2852ZM216.737 34.749L216.566 35.6582C216.088 35.9818 215.596 36.1436 215.09 36.1436C214.465 36.1436 214.03 35.9909 213.784 35.6855C213.538 35.3757 213.415 34.8835 213.415 34.209C213.415 33.6439 213.545 32.4248 213.805 30.5518C213.563 30.5518 213.192 30.5654 212.69 30.5928L212.834 29.6016C213.262 29.6289 213.636 29.6426 213.955 29.6426C213.982 29.4557 214.08 28.8063 214.249 27.6943L215.274 27.585C215.192 28.0498 215.085 28.7357 214.953 29.6426C215.377 29.6426 215.983 29.6198 216.771 29.5742L216.635 30.5928C215.883 30.5654 215.27 30.5518 214.796 30.5518C214.559 32.083 214.44 33.179 214.44 33.8398C214.44 34.3594 214.507 34.7148 214.639 34.9062C214.771 35.0977 214.994 35.1934 215.309 35.1934C215.764 35.1934 216.241 35.0452 216.737 34.749ZM219.766 29.376C219.77 29.7041 219.729 30.1576 219.643 30.7363C219.561 31.3105 219.474 32.0238 219.383 32.876C219.314 33.5231 219.239 34.5645 219.157 36L217.968 36.0684C218.073 35.3483 218.214 34.2842 218.392 32.876C218.487 31.9645 218.535 31.1237 218.535 30.3535C218.535 30.0299 218.526 29.7656 218.508 29.5605L219.766 29.376ZM220.258 27.3594C220.258 27.6237 220.171 27.8493 219.998 28.0361C219.825 28.223 219.606 28.3164 219.342 28.3164C218.927 28.3164 218.72 28.0954 218.72 27.6533C218.72 27.389 218.806 27.1657 218.979 26.9834C219.153 26.8011 219.371 26.71 219.636 26.71C220.05 26.71 220.258 26.9264 220.258 27.3594ZM230.922 31.3242C230.922 31.8346 230.869 32.6139 230.765 33.6621C230.664 34.7103 230.614 35.4896 230.614 36L229.459 36.0684C229.459 35.7174 229.523 35.0088 229.65 33.9424C229.783 32.876 229.849 32.1377 229.849 31.7275C229.849 31.1852 229.769 30.8024 229.609 30.5791C229.454 30.3512 229.206 30.2373 228.864 30.2373C228.29 30.2373 227.796 30.5381 227.381 31.1396C226.971 31.7412 226.722 32.4818 226.636 33.3613C226.526 34.4733 226.472 35.3529 226.472 36L225.316 36.0684C225.316 35.763 225.382 35.0612 225.515 33.9629C225.647 32.8646 225.713 32.1195 225.713 31.7275C225.713 31.1852 225.633 30.8024 225.474 30.5791C225.319 30.3512 225.07 30.2373 224.729 30.2373C224.177 30.2373 223.689 30.554 223.266 31.1875C222.842 31.8164 222.587 32.541 222.5 33.3613C222.391 34.4642 222.313 35.3438 222.268 36L221.153 36.0684C221.472 33.7077 221.632 32.1126 221.632 31.2832C221.632 30.8047 221.595 30.2214 221.522 29.5332L222.678 29.3623C222.705 29.8089 222.719 30.3398 222.719 30.9551H222.773C223.302 29.8477 224.07 29.2939 225.077 29.2939C225.619 29.2939 226.027 29.4512 226.301 29.7656C226.574 30.0755 226.709 30.472 226.704 30.9551H226.766C227.331 29.8477 228.119 29.2939 229.131 29.2939C230.325 29.2939 230.922 29.9707 230.922 31.3242ZM238.024 30.7979C238.024 31.4131 237.74 31.8802 237.17 32.1992C236.445 32.6094 235.21 32.8304 233.465 32.8623C233.465 33.6826 233.606 34.2796 233.889 34.6533C234.176 35.0225 234.657 35.207 235.331 35.207C235.992 35.207 236.712 34.9746 237.491 34.5098L237.32 35.5215C236.705 35.9635 235.944 36.1846 235.037 36.1846C234.107 36.1846 233.422 35.9066 232.979 35.3506C232.542 34.79 232.323 34.0814 232.323 33.2246C232.323 31.9622 232.69 30.9779 233.424 30.2715C234.162 29.5605 235.012 29.2051 235.974 29.2051C236.557 29.2051 237.045 29.3464 237.437 29.6289C237.828 29.9115 238.024 30.3011 238.024 30.7979ZM236.938 30.8252C236.938 30.5837 236.826 30.3991 236.603 30.2715C236.379 30.1393 236.092 30.0732 235.741 30.0732C235.244 30.0732 234.782 30.2373 234.354 30.5654C233.93 30.8936 233.654 31.3971 233.526 32.0762C234.925 32.0488 235.885 31.9007 236.404 31.6318C236.76 31.4495 236.938 31.1807 236.938 30.8252ZM240.561 34.8721C240.561 35.182 240.458 35.4508 240.253 35.6787C240.052 35.902 239.797 36.0137 239.487 36.0137C239.018 36.0137 238.783 35.7539 238.783 35.2344C238.783 34.9245 238.883 34.6624 239.084 34.4482C239.289 34.2295 239.547 34.1201 239.856 34.1201C240.326 34.1201 240.561 34.3708 240.561 34.8721Z" fill="#AA9FC3"/>
</svg>
