<svg width="353" height="352" viewBox="0 0 353 352" fill="none" xmlns="http://www.w3.org/2000/svg">
<path d="M35.7246 1C46.8303 0.975183 60.1115 3.88637 74.9541 9.44922C104.637 20.5742 140.466 42.266 177.441 72.0459L177.753 72.2969L178.066 72.0479C214.391 43.1678 249.469 22.2265 278.515 11.5762C293.038 6.25063 306.029 3.50765 316.898 3.61621C327.426 3.72138 335.925 6.4987 341.928 12.1533L342.501 12.71C348.555 18.7637 351.512 27.5139 351.599 38.4355C351.685 49.3599 348.899 62.4156 343.511 77.0078C332.736 106.191 311.594 141.419 282.464 177.844L282.218 178.152L282.461 178.464C310.342 214.139 330.483 248.468 340.634 276.875C345.709 291.08 348.278 303.779 348.083 314.413C347.888 325.044 344.932 333.572 339.001 339.503C333.07 345.434 324.542 348.389 313.911 348.583C303.277 348.777 290.578 346.205 276.373 341.123C247.966 330.96 213.638 310.793 177.963 282.862L177.652 282.619L177.344 282.865C141.019 311.745 105.941 332.687 76.8955 343.337C62.372 348.662 49.3816 351.405 38.5117 351.297C27.9842 351.192 19.4839 348.414 13.4814 342.759L12.9082 342.203C6.90381 336.199 3.954 327.535 3.83301 316.725C3.71205 305.911 6.42361 292.989 11.6992 278.54C22.2497 249.645 43.0162 214.742 71.6465 178.566L71.8945 178.253L71.6436 177.942C41.8139 141.018 20.0984 105.189 8.96094 75.4932C3.39179 60.6442 0.476734 47.3539 0.5 36.2402C0.523267 25.1292 3.48127 16.2376 9.6084 10.1104C15.7357 3.98303 24.6214 1.02483 35.7246 1Z" fill="#FFDAF1" stroke="#7B6DDB"/>
</svg>
