<svg width="206" height="206" viewBox="0 0 206 206" fill="none" xmlns="http://www.w3.org/2000/svg">
<path d="M103.281 205.199H102.832C46.5951 205.199 0.841919 159.432 0.841919 103.179V102.729C0.841919 46.4759 46.5951 0.709229 102.832 0.709229H103.281C159.518 0.709229 205.271 46.4759 205.271 102.729V103.179C205.271 159.432 159.518 205.199 103.281 205.199ZM102.832 7.63099C50.4079 7.63099 7.76164 50.2898 7.76164 102.729V103.179C7.76164 155.618 50.4079 198.277 102.832 198.277H103.281C155.705 198.277 198.352 155.618 198.352 103.179V102.729C198.352 50.2898 155.705 7.63099 103.281 7.63099H102.832Z" fill="url(#paint0_linear_1_500)"/>
<path d="M133.618 44.3649H72.5025C55.6184 44.3649 41.8828 58.1046 41.8828 74.9937V130.922C41.8828 147.811 55.6184 161.55 72.5025 161.55H133.618C150.502 161.55 164.237 147.811 164.237 130.922V74.9937C164.237 58.1046 150.502 44.3649 133.618 44.3649ZM52.6845 74.9937C52.6845 64.0642 61.5763 55.1697 72.5025 55.1697H133.618C144.544 55.1697 153.436 64.0642 153.436 74.9937V130.922C153.436 141.851 144.544 150.745 133.618 150.745H72.5025C61.5763 150.745 52.6845 141.851 52.6845 130.922V74.9937Z" fill="url(#paint1_linear_1_500)"/>
<path d="M103.06 131.441C118.761 131.441 131.542 118.663 131.542 102.951C131.542 87.2383 118.768 74.4607 103.06 74.4607C87.3524 74.4607 74.5786 87.2383 74.5786 102.951C74.5786 118.663 87.3524 131.441 103.06 131.441ZM103.06 85.2725C112.81 85.2725 120.74 93.2048 120.74 102.958C120.74 112.71 112.81 120.643 103.06 120.643C93.3103 120.643 85.3803 112.71 85.3803 102.958C85.3803 93.2048 93.3103 85.2725 103.06 85.2725Z" fill="url(#paint2_linear_1_500)"/>
<path d="M134.178 79.0637C138.406 79.0637 141.852 75.6236 141.852 71.3874C141.852 67.1513 138.413 63.7112 134.178 63.7112C129.943 63.7112 126.504 67.1513 126.504 71.3874C126.504 75.6236 129.943 79.0637 134.178 79.0637Z" fill="url(#paint3_linear_1_500)"/>
<defs>
<linearGradient id="paint0_linear_1_500" x1="30.749" y1="175.283" x2="175.407" y2="30.6676" gradientUnits="userSpaceOnUse">
<stop stop-color="#FAAD4F"/>
<stop offset="0.35" stop-color="#DD2A7B"/>
<stop offset="0.62" stop-color="#9537B0"/>
<stop offset="1" stop-color="#515BD4"/>
</linearGradient>
<linearGradient id="paint1_linear_1_500" x1="52.1585" y1="153.867" x2="153.985" y2="52.078" gradientUnits="userSpaceOnUse">
<stop stop-color="#FAAD4F"/>
<stop offset="0.35" stop-color="#DD2A7B"/>
<stop offset="0.62" stop-color="#9537B0"/>
<stop offset="1" stop-color="#515BD4"/>
</linearGradient>
<linearGradient id="paint2_linear_1_500" x1="82.9307" y1="123.093" x2="123.195" y2="82.834" gradientUnits="userSpaceOnUse">
<stop stop-color="#FAAD4F"/>
<stop offset="0.35" stop-color="#DD2A7B"/>
<stop offset="0.62" stop-color="#9537B0"/>
<stop offset="1" stop-color="#515BD4"/>
</linearGradient>
<linearGradient id="paint3_linear_1_500" x1="128.753" y1="76.8141" x2="139.606" y2="65.964" gradientUnits="userSpaceOnUse">
<stop stop-color="#FAAD4F"/>
<stop offset="0.35" stop-color="#DD2A7B"/>
<stop offset="0.62" stop-color="#9537B0"/>
<stop offset="1" stop-color="#515BD4"/>
</linearGradient>
</defs>
</svg>
